<?xml version="1.0" standalone="no"?>
<!DOCTYPE svg PUBLIC "-//W3C//DTD SVG 20010904//EN"
 "http://www.w3.org/TR/2001/REC-SVG-20010904/DTD/svg10.dtd">
<svg version="1.0" xmlns="http://www.w3.org/2000/svg"
 width="688.000000pt" height="688.000000pt" viewBox="0 0 688.000000 688.000000"
 preserveAspectRatio="xMidYMid meet">
<metadata>
Created by potrace 1.14, written by Peter Selinger 2001-2017
</metadata>
<g transform="translate(0.000000,688.000000) scale(0.100000,-0.100000)"
fill="#000000" stroke="none">
<path d="M3228 5965 c-1 -2 -30 -6 -63 -10 -102 -12 -109 -13 -145 -19 -19 -4
-48 -9 -65 -12 -16 -3 -38 -7 -47 -10 -9 -3 -25 -7 -35 -9 -47 -9 -117 -28
-143 -38 -8 -3 -52 -17 -97 -31 -140 -43 -337 -132 -457 -205 -36 -23 -68 -41
-71 -41 -15 0 -266 -186 -273 -202 -2 -5 -8 -8 -13 -8 -5 0 -26 -17 -48 -37
-21 -21 -61 -59 -87 -84 -91 -86 -239 -257 -294 -339 -8 -12 -21 -28 -27 -36
-7 -7 -13 -15 -13 -17 0 -2 -22 -38 -50 -80 -27 -42 -50 -78 -50 -82 0 -3 -11
-23 -25 -45 -14 -22 -25 -46 -25 -55 0 -8 -4 -15 -8 -15 -21 0 -183 -415 -197
-505 -1 -5 -3 -12 -4 -15 -2 -3 -4 -12 -6 -20 -1 -8 -8 -42 -16 -75 -7 -33
-13 -64 -15 -70 -6 -29 -25 -160 -29 -205 -2 -14 -4 -25 -5 -25 -1 0 -7 -132
-9 -206 -1 -32 -8 -41 -58 -79 -32 -24 -62 -48 -68 -54 -5 -7 -27 -25 -49 -41
-76 -57 -282 -255 -371 -356 -143 -161 -292 -402 -321 -518 -2 -9 -11 -41 -20
-71 -21 -72 -26 -229 -10 -305 12 -55 52 -163 66 -175 3 -3 17 -23 31 -45 97
-147 313 -275 574 -341 17 -4 32 -8 35 -9 32 -8 111 -22 160 -29 14 -2 39 -6
55 -9 106 -20 532 -27 715 -13 125 10 194 16 215 19 11 2 25 -1 32 -7 6 -6 28
-22 48 -36 20 -14 48 -34 63 -46 81 -63 319 -190 480 -258 114 -48 327 -114
422 -131 18 -3 36 -7 39 -9 3 -2 30 -7 60 -11 30 -4 63 -8 73 -10 143 -28 580
-27 720 1 13 2 46 7 73 10 28 4 60 10 73 15 12 5 22 7 22 4 0 -2 15 1 33 6 17
6 45 13 61 16 51 9 287 89 373 127 45 20 86 36 91 36 6 0 12 3 14 8 2 4 39 25
83 47 44 22 82 42 85 46 3 3 16 12 30 19 41 21 205 132 208 142 2 4 9 8 16 8
6 0 18 9 26 20 8 11 20 20 26 20 7 0 14 3 16 8 2 4 21 22 43 41 206 174 403
411 562 676 37 61 120 239 173 370 5 11 20 58 35 105 15 47 29 92 32 100 3 8
7 22 9 30 1 8 13 64 26 123 22 99 26 110 58 135 19 14 37 29 40 32 3 3 23 19
45 35 22 16 49 37 60 47 11 9 31 26 45 38 128 109 306 282 363 354 18 21 39
46 47 55 19 20 55 69 105 141 36 52 145 257 154 290 2 8 13 44 24 80 28 90 30
282 4 360 -22 65 -57 140 -74 158 -7 7 -13 17 -13 21 0 29 -206 203 -270 227
-8 3 -27 12 -42 20 -25 14 -151 63 -173 69 -48 11 -74 18 -95 26 -14 5 -41 11
-60 14 -19 3 -48 8 -65 12 -16 3 -41 7 -55 9 -24 3 -49 7 -137 19 -21 3 -141
8 -268 11 l-230 6 -28 31 c-103 116 -285 288 -357 337 -19 13 -59 42 -105 77
-95 73 -322 195 -488 264 -64 26 -119 48 -122 49 -5 1 -5 1 -95 29 -36 11
-105 30 -155 42 -112 26 -118 27 -227 44 -18 3 -51 8 -73 11 -43 7 -491 15
-497 9z m2642 -1249 c14 -2 49 -7 78 -10 83 -10 220 -42 297 -71 228 -86 326
-223 288 -405 -12 -60 -57 -182 -76 -205 -4 -5 -22 -32 -39 -60 -51 -80 -154
-203 -253 -300 -131 -129 -185 -178 -190 -173 -3 2 -7 44 -10 94 -6 93 -8 117
-19 199 -13 91 -18 118 -26 141 -5 12 -7 24 -5 26 2 2 -5 37 -16 78 -11 41
-22 85 -24 96 -7 33 -81 243 -104 297 -11 26 -21 49 -21 52 -2 10 -113 221
-121 230 -5 5 -9 13 -9 18 0 8 194 2 250 -7z m-4916 -1733 c3 -21 8 -51 11
-68 7 -36 44 -184 52 -205 3 -8 7 -19 8 -25 15 -63 84 -232 145 -360 41 -84
137 -254 149 -265 10 -8 51 -69 51 -74 0 -3 6 -14 14 -23 115 -143 154 -198
146 -203 -24 -15 -469 -2 -590 16 -19 3 -51 7 -70 10 -80 10 -230 57 -307 94
-182 89 -253 221 -213 395 14 64 71 186 116 247 19 26 34 52 34 57 0 5 3 11 8
13 4 2 25 26 47 53 71 91 363 373 386 375 4 0 9 -17 13 -37z"/>
</g>
</svg>
