<svg id="visual" viewBox="0 0 960 540" width="960" height="540" xmlns="http://www.w3.org/2000/svg" xmlns:xlink="http://www.w3.org/1999/xlink" version="1.1"><path d="M0 104L20 113.8C40 123.7 80 143.3 120 149.2C160 155 200 147 240 134.8C280 122.7 320 106.3 360 109.2C400 112 440 134 480 150C520 166 560 176 600 164.3C640 152.7 680 119.3 720 110.7C760 102 800 118 840 134C880 150 920 166 940 174L960 182L960 0L940 0C920 0 880 0 840 0C800 0 760 0 720 0C680 0 640 0 600 0C560 0 520 0 480 0C440 0 400 0 360 0C320 0 280 0 240 0C200 0 160 0 120 0C80 0 40 0 20 0L0 0Z" fill="#000000" stroke-linecap="round" stroke-linejoin="miter"></path></svg>