<?xml version="1.0" encoding="UTF-8" standalone="no"?>
<svg
   version="1.1"
   width="1500"
   height="935"
   viewBox="0 0 1500 935"
   id="svg11"
   sodipodi:docname="logo.svg"
   inkscape:version="1.3.2 (091e20e, 2023-11-25)"
   xmlns:inkscape="http://www.inkscape.org/namespaces/inkscape"
   xmlns:sodipodi="http://sodipodi.sourceforge.net/DTD/sodipodi-0.dtd"
   xmlns="http://www.w3.org/2000/svg"
   xmlns:svg="http://www.w3.org/2000/svg">
  <defs
     id="defs11" />
  <sodipodi:namedview
     id="namedview11"
     pagecolor="#505050"
     bordercolor="#eeeeee"
     borderopacity="1"
     inkscape:showpageshadow="0"
     inkscape:pageopacity="0"
     inkscape:pagecheckerboard="0"
     inkscape:deskcolor="#505050"
     inkscape:zoom="0.39279566"
     inkscape:cx="1064.1665"
     inkscape:cy="586.81911"
     inkscape:window-width="1920"
     inkscape:window-height="1043"
     inkscape:window-x="0"
     inkscape:window-y="0"
     inkscape:window-maximized="1"
     inkscape:current-layer="svg11" />
  <g
     id="tight-bounds"
     transform="matrix(3.7854251,0,0,3.7854251,1.394332,-0.37854251)">
    <svg
       viewBox="0 0 395.52 247.2"
       height="247.2"
       width="395.51999"
       version="1.1"
       id="svg9">
      <g
         id="g1">
        <svg
           version="1.1"
           id="svg1"
           width="100%"
           height="100%" />
      </g>
      <g
         id="g8">
        <svg
           viewBox="0 0 395.52 247.2"
           height="247.2"
           width="395.51999"
           version="1.1"
           id="svg8">
          <g
             transform="translate(75.54432,56.55112)"
             id="g7">
            <svg
               viewBox="0 0 244.43136 134.09776"
               height="134.09776"
               width="244.43137"
               version="1.1"
               id="svg7">
              <g
                 id="g6">
                <svg
                   viewBox="0 0 244.43136 134.09776"
                   height="134.09776"
                   width="244.43137"
                   version="1.1"
                   id="svg6">
                  <g
                     id="g5">
                    <svg
                       viewBox="0 0 244.43136 134.09776"
                       height="134.09776"
                       width="244.43137"
                       version="1.1"
                       id="svg5">
                      <g
                         id="g4">
                        <svg
                           viewBox="0 0 244.43136 134.09776"
                           height="134.09776"
                           width="244.43137"
                           version="1.1"
                           id="svg4">
                          <g
                             id="textblocktransform">
                            <svg
                               viewBox="0 0 244.43136 134.09776"
                               height="134.09776"
                               width="244.43137"
                               id="textblock"
                               version="1.1">
                              <g
                                 id="g3">
                                <svg
                                   viewBox="0 0 244.43136 134.09776"
                                   height="134.09776"
                                   width="244.43137"
                                   version="1.1"
                                   id="svg3">
                                <g
                                   id="g2">
                                <svg
                                   width="244.43137"
                                   viewBox="3.9 -35 64.8 35.55"
                                   height="134.09776"
                                   data-palette-color="#1ba37d"
                                   version="1.1"
                                   id="svg2">
                                <path
                                   d="m 3.9,0 v -35 h 12.3 q 4.75,0 7.08,2.9 2.32,2.9 2.32,7.8 v 0 q 0,3.15 -0.5,5.67 -0.5,2.53 -2.5,4.45 -2,1.93 -6.05,1.93 v 0 H 6.7 V 0 Z m 12.7,-15 q 2.8,0 4.18,-1.5 1.37,-1.5 1.7,-3.4 0.32,-1.9 0.32,-4.25 v 0 q 0,-4.1 -1.7,-6.15 -1.7,-2.05 -4.7,-2.05 v 0 H 6.7 V -15 Z M 45.25,0 q -5.4,0.55 -7.8,0.55 v 0 Q 32.2,0.55 29.1,-1.4 26,-3.35 26,-8.45 v 0 -4.15 q 0,-4.95 3.45,-6.65 v 0 q 1.65,-0.85 4.2,-0.85 v 0 q 2.35,0 4.75,0.77 2.4,0.78 4.05,2.03 v 0 q 0,-2.75 -1.6,-4.38 -1.6,-1.62 -6.15,-1.62 v 0 l 0.15,-2.15 q 4.8,0 7.07,1.52 2.28,1.53 2.8,3.63 0.53,2.1 0.53,5.4 v 0 z m -2.8,-15.15 q -2.05,-0.95 -4.38,-1.65 -2.32,-0.7 -4.27,-0.7 v 0 q -5.05,0 -5.05,5.05 v 0 4.35 q 0,3.25 2.25,4.72 2.25,1.48 6.4,1.48 v 0 q 2.15,0 5.05,-0.4 v 0 z M 65.95,0 v -17.15 q 0,-3.05 -1.78,-4.43 -1.77,-1.37 -4.58,-1.37 v 0 q -1.69,0 -3.44,0.47 -1.75,0.48 -3.1,1.23 v 0 V 0 h -2.8 v -25.05 h 2.8 l -0.21,1.7 q 1.21,-1.05 3.06,-1.58 1.85,-0.52 3.85,-0.52 v 0 q 2.75,0 4.7,0.9 v 0 q 2,0.9 3.12,2.7 1.13,1.8 1.13,4.55 v 0 V 0 Z"
                                   opacity="1"
                                   fill="#1ba37d"
                                   class="wordmark-text-0"
                                   data-fill-palette-color="primary"
                                   id="text-0" />
                                </svg>
                                </g>
                                </svg>
                              </g>
                            </svg>
                          </g>
                        </svg>
                      </g>
                    </svg>
                  </g>
                </svg>
              </g>
            </svg>
          </g>
          <path
             d="M 247.875,50.551 V 5.193 H 11.061 v 236.814 h 236.814 v -45.358 h -12.093 v 33.265 H 23.154 V 17.286 h 212.628 v 33.265 z"
             fill="#1ba37d"
             stroke="transparent"
             data-fill-palette-color="tertiary"
             id="path7" />
        </svg>
      </g>
      <defs
         id="defs8" />
    </svg>
    <rect
       width="395.51999"
       height="247.2"
       fill="none"
       stroke="none"
       visibility="hidden"
       id="rect9"
       x="0"
       y="0" />
  </g>
</svg>
