<?xml version="1.0" encoding="UTF-8" standalone="no"?>
<!-- Created with Inkscape (http://www.inkscape.org/) -->

<svg
   width="174.58553"
   height="174.58589"
   viewBox="0 0 46.19242 46.192518"
   version="1.1"
   id="svg1"
   inkscape:version="1.3.2 (091e20e, 2023-11-25)"
   sodipodi:docname="0_sun.svg"
   xmlns:inkscape="http://www.inkscape.org/namespaces/inkscape"
   xmlns:sodipodi="http://sodipodi.sourceforge.net/DTD/sodipodi-0.dtd"
   xmlns="http://www.w3.org/2000/svg"
   xmlns:svg="http://www.w3.org/2000/svg">
  <sodipodi:namedview
     id="namedview1"
     pagecolor="#505050"
     bordercolor="#eeeeee"
     borderopacity="1"
     inkscape:showpageshadow="0"
     inkscape:pageopacity="0"
     inkscape:pagecheckerboard="0"
     inkscape:deskcolor="#505050"
     inkscape:document-units="px"
     inkscape:zoom="0.75098906"
     inkscape:cx="-26.631547"
     inkscape:cy="36.618376"
     inkscape:window-width="960"
     inkscape:window-height="1043"
     inkscape:window-x="20"
     inkscape:window-y="20"
     inkscape:window-maximized="0"
     inkscape:current-layer="layer1" />
  <defs
     id="defs1" />
  <g
     inkscape:label="Layer 1"
     inkscape:groupmode="layer"
     id="layer1"
     transform="translate(-111.9638,-138.39394)">
    <g
       id="g292"
       transform="matrix(0.26458334,0,0,0.26458334,-161.62864,189.18281)">
      <path
         id="path236"
         d="m 1096.4865,-188.32147 c -46.2026,13.73066 -72.5266,62.31066 -58.7986,108.513331 13.728,46.20146 62.308,72.5281298 108.512,58.79733 46.2013,-13.72547 72.5253,-62.3052 58.7986,-108.509331 -13.728,-46.20133 -62.3093,-72.52666 -108.512,-58.80133"
         style="fill:#331d1f;fill-opacity:1;fill-rule:evenodd;stroke:none;stroke-width:0.133333" />
      <path
         id="path237"
         d="m 1101.4612,-171.57881 c -36.9573,10.98 -58.0133,49.84134 -47.0347,86.796141 10.9814,36.95573 49.8414,58.01453 86.7987,47.03333 36.956,-10.97867 58.0133,-49.84013 47.032,-86.796131 -10.98,-36.956 -49.8387,-58.016 -86.796,-47.03334"
         style="fill:#f9d34a;fill-opacity:1;fill-rule:evenodd;stroke:none;stroke-width:0.133333" />
      <path
         id="path238"
         d="m 1103.2052,-165.70547 c -33.712,10.01466 -52.9227,45.46533 -42.9053,79.178531 10.0173,33.7136 45.4653,52.92133 79.1786,42.9052 33.716,-10.0156 52.924,-45.46667 42.9067,-79.179731 -10.016,-33.71334 -45.4653,-52.92134 -79.18,-42.904"
         style="fill:#ec5e3c;fill-opacity:1;fill-rule:evenodd;stroke:none;stroke-width:0.133333" />
      <path
         id="path239"
         d="m 1174.0385,-116.33214 c 0,33.474531 -27.1373,60.614531 -60.6133,60.614531 -23.1813,0 -43.324,-13.01453 -53.5187,-32.13333 7.3734,27.01093 32.0867,46.86826 61.4374,46.86826 35.1693,0 63.68,-28.51093 63.68,-63.681191 0,-20.78294 -9.9574,-39.24294 -25.3627,-50.8656 8.9707,10.568 14.3773,24.24933 14.3773,39.19733"
         style="fill:#cf3d39;fill-opacity:1;fill-rule:evenodd;stroke:none;stroke-width:0.133333" />
      <path
         id="path240"
         d="m 1113.1892,-153.04681 c -2.54,0.572 -5.0587,-1.024 -5.6293,-3.56266 -0.572,-2.53867 1.024,-5.06 3.5613,-5.632 1.248,-0.28 2.56,-0.52667 3.9293,-0.74267 1.3027,-0.20533 2.6187,-0.37067 3.9454,-0.492 2.5906,-0.23333 4.8786,1.676 5.112,4.26533 0.2346,2.58667 -1.6747,4.87867 -4.264,5.112 -1.1294,0.104 -2.248,0.24267 -3.3547,0.416 -1.0653,0.16934 -2.168,0.38 -3.3,0.636 z m -38.6773,35.76667 c -0.7347,2.496 -3.3547,3.924 -5.852,3.19333 -2.496,-0.73466 -3.9254,-3.35466 -3.192,-5.85333 2.328,-7.82667 6.2773,-15.03467 11.44,-21.252 5.2293,-6.29467 11.6986,-11.56533 18.9866,-15.42133 2.3027,-1.21334 5.1534,-0.328 6.3654,1.976 1.2146,2.304 0.3306,5.15333 -1.972,6.36666 -6.216,3.28667 -11.716,7.76134 -16.1454,13.09467 -4.3453,5.232 -7.6693,11.30267 -9.6306,17.896 v 0"
         style="fill:#f9d34a;fill-opacity:1;fill-rule:evenodd;stroke:none;stroke-width:0.133333" />
      <path
         id="path241"
         d="m 1111.7572,-47.073339 c 5.3373,0 9.6907,-4.34947 9.6907,-9.68533 0,-5.336 -4.3534,-9.6896 -9.6907,-9.6896 -5.3333,0 -9.6867,4.3536 -9.6867,9.6896 0,5.33586 4.3534,9.68533 9.6867,9.68533"
         style="fill:#cf3d39;fill-opacity:1;fill-rule:evenodd;stroke:none;stroke-width:0.133333" />
      <path
         id="path242"
         d="m 1126.7079,-60.686809 c 3.1506,0 5.7173,-2.56826 5.7173,-5.7172 0,-3.14946 -2.5667,-5.7188 -5.7173,-5.7188 -3.1494,0 -5.7174,2.56934 -5.7174,5.7188 0,3.14894 2.568,5.7172 5.7174,5.7172"
         style="fill:#cf3d39;fill-opacity:1;fill-rule:evenodd;stroke:none;stroke-width:0.133333" />
      <path
         id="path243"
         d="m 1098.5292,-60.777469 c 1.116,0 2.0253,-0.91347 2.0253,-2.02654 0,-1.11453 -0.9093,-2.024 -2.0253,-2.024 -1.116,0 -2.0253,0.90947 -2.0253,2.024 0,1.11307 0.9093,2.02654 2.0253,2.02654"
         style="fill:#cf3d39;fill-opacity:1;fill-rule:evenodd;stroke:none;stroke-width:0.133333" />
      <path
         id="path244"
         d="m 1170.5799,-100.42947 c 6.1613,0 11.184,-5.0256 11.184,-11.18547 0,-6.1612 -5.0227,-11.18653 -11.184,-11.18653 -6.1614,0 -11.1854,5.02533 -11.1854,11.18653 0,6.15987 5.024,11.18547 11.1854,11.18547"
         style="fill:#cf3d39;fill-opacity:1;fill-rule:evenodd;stroke:none;stroke-width:0.133333" />
      <path
         id="path245"
         d="m 1170.5799,-104.94827 c 3.672,0 6.6666,-2.9948 6.6666,-6.66667 0,-3.6732 -2.9946,-6.66787 -6.6666,-6.66787 -3.672,0 -6.668,2.99467 -6.668,6.66787 0,3.67187 2.996,6.66667 6.668,6.66667"
         style="fill:#ec5e3c;fill-opacity:1;fill-rule:evenodd;stroke:none;stroke-width:0.133333" />
      <path
         id="path246"
         d="m 1161.0972,-88.801469 c 2.756,0 5.0013,-2.2452 5.0013,-4.99894 0,-2.75573 -2.2453,-5.0036 -5.0013,-5.0036 -2.7533,0 -5,2.24787 -5,5.0036 0,2.75374 2.2467,4.99894 5,4.99894"
         style="fill:#cf3d39;fill-opacity:1;fill-rule:evenodd;stroke:none;stroke-width:0.133333" />
      <path
         id="path247"
         d="m 1172.0905,-125.15747 c 1.8054,0 3.2814,-1.476 3.2814,-3.28134 0,-1.80933 -1.476,-3.28266 -3.2814,-3.28266 -1.8093,0 -3.2826,1.47333 -3.2826,3.28266 0,1.80534 1.4733,3.28134 3.2826,3.28134"
         style="fill:#cf3d39;fill-opacity:1;fill-rule:evenodd;stroke:none;stroke-width:0.133333" />
      <path
         id="path248"
         d="m 1153.5372,-59.109739 c 5.9933,0 10.8813,-4.88493 10.8813,-10.87973 0,-5.9896 -4.888,-10.8776 -10.8813,-10.8776 -5.992,0 -10.8773,4.888 -10.8773,10.8776 0,5.9948 4.8853,10.87973 10.8773,10.87973"
         style="fill:#ec5e3c;fill-opacity:1;fill-rule:evenodd;stroke:none;stroke-width:0.133333" />
      <path
         id="path249"
         d="m 1143.2825,-54.212409 c 1.7227,0 3.1267,-1.4036 3.1267,-3.12493 0,-1.72133 -1.404,-3.12707 -3.1267,-3.12707 -1.72,0 -3.124,1.40574 -3.124,3.12707 0,1.72133 1.404,3.12493 3.124,3.12493"
         style="fill:#ec5e3c;fill-opacity:1;fill-rule:evenodd;stroke:none;stroke-width:0.133333" />
      <path
         id="path250"
         d="m 1166.5159,-75.986809 c 0.86,0 1.5626,-0.7016 1.5626,-1.56253 0,-0.86307 -0.7026,-1.56147 -1.5626,-1.56147 -0.8614,0 -1.5627,0.6984 -1.5627,1.56147 0,0.86093 0.7013,1.56253 1.5627,1.56253"
         style="fill:#ec5e3c;fill-opacity:1;fill-rule:evenodd;stroke:none;stroke-width:0.133333" />
      <path
         id="path251"
         d="m 1158.2865,-81.043069 c 1.1147,0 2.0254,-0.91307 2.0254,-2.02654 0,-1.1172 -0.9107,-2.02506 -2.0254,-2.02506 -1.116,0 -2.0266,0.90786 -2.0266,2.02506 0,1.11347 0.9106,2.02654 2.0266,2.02654"
         style="fill:#cf3d39;fill-opacity:1;fill-rule:evenodd;stroke:none;stroke-width:0.133333" />
      <path
         id="path252"
         d="m 1071.6705,-97.852409 c 1.116,0 2.0267,-0.90893 2.0267,-2.02346 0,-1.117741 -0.9107,-2.027071 -2.0267,-2.027071 -1.1146,0 -2.0253,0.90933 -2.0253,2.027071 0,1.11453 0.9107,2.02346 2.0253,2.02346"
         style="fill:#f2ab55;fill-opacity:1;fill-rule:evenodd;stroke:none;stroke-width:0.133333" />
      <path
         id="path253"
         d="m 1087.2212,-73.922809 c 6.7067,0 12.1787,-5.4708 12.1787,-12.1776 0,-6.70773 -5.472,-12.17866 -12.1787,-12.17866 -6.7067,0 -12.176,5.47093 -12.176,12.17866 0,6.7068 5.4693,12.1776 12.176,12.1776"
         style="fill:#f9d34a;fill-opacity:1;fill-rule:evenodd;stroke:none;stroke-width:0.133333" />
      <path
         id="path254"
         d="m 1087.2212,-77.545739 c 4.712,0 8.5547,-3.84267 8.5547,-8.55467 0,-4.712 -3.8427,-8.55466 -8.5547,-8.55466 -4.7093,0 -8.552,3.84266 -8.552,8.55466 0,4.712 3.8427,8.55467 8.552,8.55467"
         style="fill:#ec5e3c;fill-opacity:1;fill-rule:evenodd;stroke:none;stroke-width:0.133333" />
      <path
         id="path255"
         d="m 1149.3879,-126.38814 c 2.4986,0 4.5346,-2.036 4.5346,-4.53333 0,-2.49867 -2.036,-4.53467 -4.5346,-4.53467 -2.4974,0 -4.5347,2.036 -4.5347,4.53467 0,2.49733 2.0373,4.53333 4.5347,4.53333"
         style="fill:#f9d34a;fill-opacity:1;fill-rule:evenodd;stroke:none;stroke-width:0.133333" />
      <path
         id="path256"
         d="m 1110.8799,-115.67214 c 2.4973,0 4.536,-2.03467 4.536,-4.53467 0,-2.496 -2.0387,-4.53466 -4.536,-4.53466 -2.4987,0 -4.5334,2.03866 -4.5334,4.53466 0,2.5 2.0347,4.53467 4.5334,4.53467"
         style="fill:#f9d34a;fill-opacity:1;fill-rule:evenodd;stroke:none;stroke-width:0.133333" />
      <path
         id="path257"
         d="m 1111.4012,-144.71347 c 1.2493,0 2.2667,-1.01734 2.2667,-2.26667 0,-1.25067 -1.0174,-2.268 -2.2667,-2.268 -1.2493,0 -2.2667,1.01733 -2.2667,2.268 0,1.24933 1.0174,2.26667 2.2667,2.26667"
         style="fill:#f9d34a;fill-opacity:1;fill-rule:evenodd;stroke:none;stroke-width:0.133333" />
      <path
         id="path258"
         d="m 1128.8532,-98.501469 c 3.4133,0 6.196,-2.782801 6.196,-6.194671 0,-3.4136 -2.7827,-6.19747 -6.196,-6.19747 -3.412,0 -6.196,2.78387 -6.196,6.19747 0,3.41187 2.784,6.194671 6.196,6.194671"
         style="fill:#f9d34a;fill-opacity:1;fill-rule:evenodd;stroke:none;stroke-width:0.133333" />
      <path
         id="path259"
         d="m 1156.4972,-157.75881 c -2.048,3.84 -6.0947,6.452 -10.748,6.452 -6.7267,0 -12.1787,-5.45333 -12.1787,-12.17866 0,-1.244 0.1867,-2.44534 0.5347,-3.57467 8.0147,1.64533 15.6187,4.82267 22.392,9.30133"
         style="fill:#f9d34a;fill-opacity:1;fill-rule:evenodd;stroke:none;stroke-width:0.133333" />
      <path
         id="path260"
         d="m 1153.4092,-159.67614 c -1.4013,2.812 -4.3053,4.74533 -7.66,4.74533 -4.7267,0 -8.5547,-3.82933 -8.5547,-8.55466 0,-0.96 0.1574,-1.88267 0.4494,-2.74534 5.5373,1.47334 10.8413,3.68534 15.7653,6.55467"
         style="fill:#ec5e3c;fill-opacity:1;fill-rule:evenodd;stroke:none;stroke-width:0.133333" />
    </g>
  </g>
</svg>
