<?xml version="1.0" encoding="UTF-8" standalone="no"?>
<!-- Created with Inkscape (http://www.inkscape.org/) -->

<svg
   width="140.53474"
   height="140.53456"
   viewBox="0 0 37.183151 37.183103"
   version="1.1"
   id="svg1"
   inkscape:version="1.3.2 (091e20e, 2023-11-25)"
   sodipodi:docname="mercury.svg"
   xmlns:inkscape="http://www.inkscape.org/namespaces/inkscape"
   xmlns:sodipodi="http://sodipodi.sourceforge.net/DTD/sodipodi-0.dtd"
   xmlns="http://www.w3.org/2000/svg"
   xmlns:svg="http://www.w3.org/2000/svg">
  <sodipodi:namedview
     id="namedview1"
     pagecolor="#505050"
     bordercolor="#eeeeee"
     borderopacity="1"
     inkscape:showpageshadow="0"
     inkscape:pageopacity="0"
     inkscape:pagecheckerboard="0"
     inkscape:deskcolor="#505050"
     inkscape:document-units="px"
     inkscape:zoom="0.75098906"
     inkscape:cx="141.1472"
     inkscape:cy="179.09715"
     inkscape:window-width="960"
     inkscape:window-height="1043"
     inkscape:window-x="20"
     inkscape:window-y="20"
     inkscape:window-maximized="0"
     inkscape:current-layer="layer1" />
  <defs
     id="defs1" />
  <g
     inkscape:label="Layer 1"
     inkscape:groupmode="layer"
     id="layer1"
     transform="translate(-67.468748,-101.07084)">
    <g
       id="g284"
       transform="matrix(0.26458333,0,0,0.26458333,52.679431,86.281618)">
      <path
         id="path32"
         d="M 106.15573,58.824019 C 68.964532,69.874685 47.773999,108.98135 58.825065,146.17202 c 11.048933,37.18933 50.155595,58.38133 87.345595,47.33066 37.192,-11.04933 58.384,-50.156 47.332,-87.34666 C 182.452,68.964018 143.34666,47.774685 106.15573,58.824019"
         style="fill:#9ebc9d;fill-opacity:1;fill-rule:evenodd;stroke:none;stroke-width:0.133333" />
      <path
         id="path33"
         d="m 184.29733,113.29335 c 0,36.928 -29.93867,66.86533 -66.86667,66.86533 -25.573862,0 -47.792128,-14.356 -59.039995,-35.448 8.1344,29.79734 35.396266,51.70267 67.773865,51.70267 38.79813,0 70.25013,-31.452 70.25013,-70.24933 0,-22.928 -10.98533,-43.290669 -27.97866,-56.113335 9.89333,11.658666 15.86133,26.754666 15.86133,43.242665"
         style="fill:#759081;fill-opacity:1;fill-rule:evenodd;stroke:none;stroke-width:0.133333" />
      <path
         id="path34"
         d="m 117.1688,72.789352 c -2.79947,0.627999 -5.58187,-1.130667 -6.21,-3.929334 -0.63014,-2.8 1.12973,-5.581333 3.9292,-6.212 1.3776,-0.308 2.82293,-0.582666 4.33493,-0.821333 1.4364,-0.225333 2.88907,-0.408 4.35253,-0.541333 2.8552,-0.257334 5.38187,1.848 5.63854,4.704 0.25893,2.856 -1.84734,5.381333 -4.70307,5.638666 -1.24587,0.114667 -2.48173,0.269334 -3.70107,0.461334 -1.17546,0.185333 -2.39106,0.42 -3.64106,0.7 z M 74.501598,112.24668 c -0.809867,2.75334 -3.699466,4.32934 -6.454266,3.52 -2.754667,-0.808 -4.3312,-3.69866 -3.523334,-6.45466 2.569734,-8.63467 6.926534,-16.586669 12.6224,-23.445335 5.7676,-6.945334 12.905733,-12.758667 20.942666,-17.009333 2.541196,-1.338667 5.686936,-0.364 7.024936,2.178666 1.33813,2.54 0.36253,5.685333 -2.178,7.024 -6.854269,3.625333 -12.922002,8.561333 -17.810002,14.445333 -4.794267,5.772 -8.460933,12.466669 -10.6244,19.741329 v 0"
         style="fill:#c4e2b3;fill-opacity:1;fill-rule:evenodd;stroke:none;stroke-width:0.133333" />
      <path
         id="path35"
         d="m 115.59013,189.69602 c 5.888,0 10.688,-4.8 10.688,-10.68667 0,-5.88667 -4.8,-10.688 -10.688,-10.688 -5.8844,0 -10.686,4.80133 -10.686,10.688 0,5.88667 4.8016,10.68667 10.686,10.68667"
         style="fill:#759081;fill-opacity:1;fill-rule:evenodd;stroke:none;stroke-width:0.133333" />
      <path
         id="path36"
         d="m 132.08333,174.67868 c 3.474,0 6.30867,-2.83333 6.30867,-6.308 0,-3.47333 -2.83467,-6.30666 -6.30867,-6.30666 -3.47293,0 -6.30627,2.83333 -6.30627,6.30666 0,3.47467 2.83334,6.308 6.30627,6.308"
         style="fill:#759081;fill-opacity:1;fill-rule:evenodd;stroke:none;stroke-width:0.133333" />
      <path
         id="path37"
         d="m 100.99693,174.57735 c 1.2296,0 2.23373,-1.004 2.23373,-2.236 0,-1.23067 -1.00413,-2.23467 -2.23373,-2.23467 -1.231866,0 -2.235999,1.004 -2.235999,2.23467 0,1.232 1.004133,2.236 2.235999,2.236"
         style="fill:#759081;fill-opacity:1;fill-rule:evenodd;stroke:none;stroke-width:0.133333" />
      <path
         id="path38"
         d="m 180.47866,130.83335 c 6.796,0 12.33867,-5.54133 12.33867,-12.33867 0,-6.796 -5.54267,-12.33866 -12.33867,-12.33866 -6.796,0 -12.33866,5.54266 -12.33866,12.33866 0,6.79734 5.54266,12.33867 12.33866,12.33867"
         style="fill:#759081;fill-opacity:1;fill-rule:evenodd;stroke:none;stroke-width:0.133333" />
      <path
         id="path39"
         d="m 180.47866,125.84935 c 4.05067,0 7.35467,-3.30267 7.35467,-7.35467 0,-4.05066 -3.304,-7.356 -7.35467,-7.356 -4.05066,0 -7.35466,3.30534 -7.35466,7.356 0,4.052 3.304,7.35467 7.35466,7.35467"
         style="fill:#9ebc9d;fill-opacity:1;fill-rule:evenodd;stroke:none;stroke-width:0.133333" />
      <path
         id="path40"
         d="m 170.02133,143.66402 c 3.03733,0 5.516,-2.47734 5.516,-5.51734 0,-3.03866 -2.47867,-5.516 -5.516,-5.516 -3.03867,0 -5.51867,2.47734 -5.51867,5.516 0,3.04 2.48,5.51734 5.51867,5.51734"
         style="fill:#759081;fill-opacity:1;fill-rule:evenodd;stroke:none;stroke-width:0.133333" />
      <path
         id="path41"
         d="m 182.14533,103.55602 c 1.99333,0 3.62,-1.62667 3.62,-3.620002 0,-1.994667 -1.62667,-3.621334 -3.62,-3.621334 -1.99467,0 -3.62133,1.626667 -3.62133,3.621334 0,1.993332 1.62666,3.620002 3.62133,3.620002"
         style="fill:#759081;fill-opacity:1;fill-rule:evenodd;stroke:none;stroke-width:0.133333" />
      <path
         id="path42"
         d="m 161.68,176.41735 c 6.612,0 12.00266,-5.39067 12.00266,-12.00133 0,-6.61067 -5.39066,-12 -12.00266,-12 -6.60934,0 -12,5.38933 -12,12 0,6.61066 5.39066,12.00133 12,12.00133"
         style="fill:#9ebc9d;fill-opacity:1;fill-rule:evenodd;stroke:none;stroke-width:0.133333" />
      <path
         id="path43"
         d="m 150.36666,181.81868 c 1.9,0 3.448,-1.54933 3.448,-3.448 0,-1.89866 -1.548,-3.44666 -3.448,-3.44666 -1.89733,0 -3.448,1.548 -3.448,3.44666 0,1.89867 1.55067,3.448 3.448,3.448"
         style="fill:#9ebc9d;fill-opacity:1;fill-rule:evenodd;stroke:none;stroke-width:0.133333" />
      <path
         id="path44"
         d="m 175.99733,157.80002 c 0.948,0 1.724,-0.77467 1.724,-1.724 0,-0.94934 -0.776,-1.724 -1.724,-1.724 -0.95067,0 -1.724,0.77466 -1.724,1.724 0,0.94933 0.77333,1.724 1.724,1.724"
         style="fill:#9ebc9d;fill-opacity:1;fill-rule:evenodd;stroke:none;stroke-width:0.133333" />
      <path
         id="path45"
         d="m 166.91733,152.21868 c 1.23067,0 2.23467,-1.004 2.23467,-2.23333 0,-1.232 -1.004,-2.23467 -2.23467,-2.23467 -1.23067,0 -2.23467,1.00267 -2.23467,2.23467 0,1.22933 1.004,2.23333 2.23467,2.23333"
         style="fill:#759081;fill-opacity:1;fill-rule:evenodd;stroke:none;stroke-width:0.133333" />
      <path
         id="path46"
         d="m 81.640665,112.45735 c 1.230133,0 2.235333,-1.004 2.235333,-2.23333 0,-1.232 -1.0052,-2.236 -2.235333,-2.236 -1.229734,0 -2.233867,1.004 -2.233867,2.236 0,1.22933 1.004133,2.23333 2.233867,2.23333"
         style="fill:#c4e2b3;fill-opacity:1;fill-rule:evenodd;stroke:none;stroke-width:0.133333" />
      <path
         id="path47"
         d="m 91.971331,150.88135 c 7.3984,0 13.433329,-6.03333 13.433329,-13.43333 0,-7.39867 -6.034929,-13.43334 -13.433329,-13.43334 -7.3984,0 -13.433866,6.03467 -13.433866,13.43334 0,7.4 6.035466,13.43333 13.433866,13.43333"
         style="fill:#c4e2b3;fill-opacity:1;fill-rule:evenodd;stroke:none;stroke-width:0.133333" />
      <path
         id="path48"
         d="m 91.971331,146.88535 c 5.196933,0 9.436529,-4.24 9.436529,-9.43733 0,-5.19867 -4.239596,-9.436 -9.436529,-9.436 -5.1984,0 -9.435866,4.23733 -9.435866,9.436 0,5.19733 4.237466,9.43733 9.435866,9.43733"
         style="fill:#9ebc9d;fill-opacity:1;fill-rule:evenodd;stroke:none;stroke-width:0.133333" />
      <path
         id="path49"
         d="m 91.233864,120.57335 c 2.754134,0 5.002534,-2.248 5.002534,-5.00267 0,-2.756 -2.2484,-5.00266 -5.002534,-5.00266 -2.7568,0 -5.003199,2.24666 -5.003199,5.00266 0,2.75467 2.246399,5.00267 5.003199,5.00267"
         style="fill:#c4e2b3;fill-opacity:1;fill-rule:evenodd;stroke:none;stroke-width:0.133333" />
      <path
         id="path50"
         d="m 138.29733,89.656018 c 2.75467,0 5.00267,-2.246667 5.00267,-5.002667 0,-2.754666 -2.248,-5.004 -5.00267,-5.004 -2.75733,0 -5.0036,2.249334 -5.0036,5.004 0,2.756 2.24627,5.002667 5.0036,5.002667"
         style="fill:#c4e2b3;fill-opacity:1;fill-rule:evenodd;stroke:none;stroke-width:0.133333" />
      <path
         id="path51"
         d="m 115.19693,81.982685 c 1.3776,0 2.50147,-1.122667 2.50147,-2.501334 0,-1.377333 -1.12387,-2.5 -2.50147,-2.5 -1.3772,0 -2.5016,1.122667 -2.5016,2.5 0,1.378667 1.1244,2.501334 2.5016,2.501334"
         style="fill:#c4e2b3;fill-opacity:1;fill-rule:evenodd;stroke:none;stroke-width:0.133333" />
      <path
         id="path52"
         d="m 134.448,132.96268 c 3.76666,0 6.836,-3.07066 6.836,-6.83466 0,-3.76667 -3.06934,-6.83467 -6.836,-6.83467 -3.76307,0 -6.834,3.068 -6.834,6.83467 0,3.764 3.07093,6.83466 6.834,6.83466"
         style="fill:#c4e2b3;fill-opacity:1;fill-rule:evenodd;stroke:none;stroke-width:0.133333" />
    </g>
  </g>
</svg>
