<?xml version="1.0" encoding="UTF-8" standalone="no"?>
<!-- Created with Inkscape (http://www.inkscape.org/) -->

<svg
   width="140.53508"
   height="140.53455"
   viewBox="0 0 37.18324 37.183099"
   version="1.1"
   id="svg1"
   inkscape:version="1.3.2 (091e20e, 2023-11-25)"
   sodipodi:docname="2_venus.svg"
   xmlns:inkscape="http://www.inkscape.org/namespaces/inkscape"
   xmlns:sodipodi="http://sodipodi.sourceforge.net/DTD/sodipodi-0.dtd"
   xmlns="http://www.w3.org/2000/svg"
   xmlns:svg="http://www.w3.org/2000/svg">
  <sodipodi:namedview
     id="namedview1"
     pagecolor="#505050"
     bordercolor="#eeeeee"
     borderopacity="1"
     inkscape:showpageshadow="0"
     inkscape:pageopacity="0"
     inkscape:pagecheckerboard="0"
     inkscape:deskcolor="#505050"
     inkscape:document-units="px"
     inkscape:zoom="0.75098906"
     inkscape:cx="171.77347"
     inkscape:cy="175.10242"
     inkscape:window-width="960"
     inkscape:window-height="1043"
     inkscape:window-x="20"
     inkscape:window-y="20"
     inkscape:window-maximized="0"
     inkscape:current-layer="layer1" />
  <defs
     id="defs1" />
  <g
     inkscape:label="Layer 1"
     inkscape:groupmode="layer"
     id="layer1"
     transform="translate(-59.531253,-102.12916)">
    <g
       id="g285"
       transform="matrix(0.26458333,0,0,0.26458333,-10.071568,87.339945)">
      <path
         id="path4"
         d="m 313.32533,58.824019 c -37.18934,11.050666 -58.38134,50.157331 -47.332,87.348001 11.05066,37.18933 50.15733,58.38133 87.34799,47.33066 37.18934,-11.04933 58.38134,-50.156 47.332,-87.34666 C 389.62266,68.964018 350.51599,47.774685 313.32533,58.824019"
         style="fill:#f9e299;fill-opacity:1;fill-rule:evenodd;stroke:none;stroke-width:0.133333" />
      <path
         id="path5"
         d="m 357.40132,145.28935 c 2.65734,0 4.82667,-2.168 4.82667,-4.82667 0,-2.65733 -2.16933,-4.82533 -4.82667,-4.82533 -2.66,0 -4.82666,2.168 -4.82666,4.82533 0,2.65867 2.16666,4.82667 4.82666,4.82667"
         style="fill:#b98541;fill-opacity:1;fill-rule:evenodd;stroke:none;stroke-width:0.133333" />
      <path
         id="path6"
         d="m 391.46799,113.29335 c 0,36.928 -29.94,66.86533 -66.86933,66.86533 -25.572,0 -47.792,-14.356 -59.04,-35.448 8.136,29.79734 35.39867,51.70267 67.77467,51.70267 38.79866,0 70.24933,-31.452 70.24933,-70.24933 0,-22.928 -10.98534,-43.290669 -27.97734,-56.113335 9.892,11.658666 15.86267,26.754666 15.86267,43.242665"
         style="fill:#ebcb82;fill-opacity:1;fill-rule:evenodd;stroke:none;stroke-width:0.133333" />
      <path
         id="path7"
         d="m 395.11466,159.59868 c -6.43467,-1.28933 -16.14667,-1.668 -29.008,2.152 -25.232,7.5 -41.19733,12.24134 -55.16667,16.392 -5.32533,1.58267 -9.61066,5.06534 -12.87733,8.76934 -8.60267,-4.99334 -16.16267,-11.808 -22.04533,-20.1 l 125.11866,-22.248 c -1.42933,5.23866 -3.45067,10.28533 -6.02133,15.03466 z m 8.192,-39.76 c -0.416,-4.55333 -1.28,-9.132 -2.63334,-13.68266 -2.93333,-9.872002 -7.844,-18.616002 -14.16933,-25.929335 -0.0573,0.08933 -0.116,0.178666 -0.16933,0.276 -4.996,8.774666 -38.72,28.413335 -61.812,35.274665 -23.09333,6.86133 10.40533,-3.092 -27.79867,8.25867 -20.37733,6.05333 -29.52933,5.464 -33.636,3.59466 0.13067,6.14267 1.072,12.368 2.90534,18.54134 0.0973,0.32666 0.20133,0.648 0.304,0.972 11.05733,1.16133 29.648,-4.26 44.63333,-8.712 18.67333,-5.548 24.51866,-7.284 57.16266,-16.984 17.27067,-5.132 28.48267,-3.904 35.21334,-1.60934 z M 346.72932,57.193352 c -6.032,6.958666 -17.94133,18.573333 -34.35466,24.494666 -13.42133,4.842667 -24.91333,2.246667 -32.53467,-1.064 8.51734,-10.024 19.93734,-17.774666 33.48534,-21.799999 11.236,-3.338667 22.64399,-3.730667 33.40399,-1.630667 v 0"
         style="fill:#d7b973;fill-opacity:1;fill-rule:evenodd;stroke:none;stroke-width:0.133333" />
      <path
         id="path8"
         d="m 266.96133,147.20402 c -0.47067,-0.79867 -0.92934,-1.60667 -1.36667,-2.42667 0.12933,0.46667 0.26,0.92933 0.39867,1.39467 0.0973,0.32666 0.20133,0.648 0.304,0.972 0.21733,0.0227 0.44,0.0427 0.664,0.06 z m 42.844,31.31066 c -9.992,-2.25866 -19.13734,-6.752 -26.88134,-12.93066 l -6.88933,1.224 c 3.992,5.61866 8.788,10.62533 14.22133,14.84933 l 0.272,0.208 0.60534,0.46 c 2.21866,1.66533 4.53333,3.19733 6.92933,4.58667 3.03067,-3.43867 6.94,-6.684 11.74267,-8.39734 z m 71.95199,-30.504 c -2.68933,4.41867 -5.88133,8.49867 -9.488,12.16667 9.84,-2.09333 17.48134,-1.65333 22.84534,-0.57867 2.57066,-4.74933 4.592,-9.796 6.02133,-15.03466 z m 9.71067,-34.71733 c 0,1.53733 -0.0587,3.06533 -0.16133,4.57733 5.00666,0.11334 8.95733,0.932 11.996,1.96667 -0.092,-1.00933 -0.204,-2.012 -0.336,-3.008 -0.48,-3.55733 -1.23867,-7.12533 -2.29334,-10.67333 -1.352,-4.54934 -3.12266,-8.858669 -5.25866,-12.900002 -2.48667,-4.677334 -5.484,-9.042667 -8.92,-13.016 -0.0547,0.08533 -0.108,0.169333 -0.16,0.262667 -0.452,0.794666 -1.14267,1.678666 -2.03734,2.636 4.58534,9.058666 7.17067,19.303995 7.17067,30.154665 v 0"
         style="fill:#bc985c;fill-opacity:1;fill-rule:evenodd;stroke:none;stroke-width:0.133333" />
      <path
         id="path9"
         d="m 401.47332,109.09335 c -3.756,-1.52933 -9.80133,-2.252 -19.21333,0.54267 -19.81333,5.888 -37.204,11.05466 -54.59733,16.22266 -17.39067,5.168 -34.78267,10.33467 -41.90933,12.452 -4.908,1.45734 -14.516,2.69467 -21.44934,0.91067 -0.30666,-1.61333 -0.55333,-3.228 -0.744,-4.83867 5.12,1.236 13.57734,1.52267 26.824,-2.41333 26.088,-7.75067 57.30667,-17.02667 71.276,-21.17733 10.6,-3.15067 25.43333,-12.468002 32.236,-20.245336 2.82133,4.805334 5.11867,10.026666 6.77733,15.609336 0.292,0.97733 0.55334,1.95733 0.8,2.93733 z m 0.70667,31.08133 c -0.38,1.86134 -0.83333,3.70534 -1.36133,5.52267 l -67.64667,20.1 -45.70933,13.58 c -7.152,-6.15333 -13.12533,-13.8 -17.38533,-22.64933 4.68666,-1.46534 14.684,-4.54534 22.44,-6.62 10.492,-2.808 20.29066,2.50266 33.14,2.40933 12.84799,-0.096 15.25599,-6.08533 21.46666,-6.06933 6.212,0.016 15.72533,5.41333 27.55733,1.89733 z m -13.78667,29.62134 c -18.20266,-0.75467 -48.07733,2.14 -75.73866,23.50933 12.80267,3.95467 26.87733,4.3 40.68666,0.19733 14.396,-4.27733 26.39067,-12.76 35.052,-23.70666 z M 374.83866,69.489352 346.17999,78.004018 c -13.116,3.897333 -10.63067,7.037333 -30.44666,12.924 -17.032,5.061333 -32.79334,3.210666 -42.976,-0.329334 -2.03467,3.466667 -3.77067,7.104 -5.18934,10.870666 10.56267,2.99467 29.36934,5.92933 51.344,-1.40133 34.01733,-11.348002 19.56,-10.932002 42.224,-17.664002 l 21.42667,-6.368 c -2.42134,-2.372 -5.00267,-4.56 -7.724,-6.546666 v 0"
         style="fill:#b98541;fill-opacity:1;fill-rule:evenodd;stroke:none;stroke-width:0.133333" />
      <path
         id="path10"
         d="m 393.97332,90.677351 -0.0773,-0.130667 c -1.344,1.538667 -3.00533,3.136 -4.884,4.736 1.12933,4.048 1.888,8.249336 2.236,12.569336 4.51867,-0.37867 7.836,0.26933 10.22533,1.24133 -0.24666,-0.98 -0.508,-1.96 -0.8,-2.93733 -1.57866,-5.30934 -3.732,-10.286669 -6.364,-14.898669 l -0.02,-0.032 -0.12933,-0.226667 -0.0147,-0.024 z m -93.73066,84.903999 c -10.69733,-4.18667 -20.05467,-11.04667 -27.244,-19.76133 -1.112,0.344 -2.1,0.65066 -2.92133,0.908 0.50666,1.052 1.03733,2.08666 1.59066,3.104 l 0.22267,0.404 0.264,0.472 c 4.004,7.07866 9.20133,13.38933 15.31867,18.66666 z m 54.11333,-2.396 c -5.43067,2.70133 -11.28,4.68533 -17.42667,5.83467 -8.05066,3.44933 -16.25599,8.08933 -24.27466,14.28533 2.17733,0.67067 4.39333,1.24 6.636,1.7 l 0.18133,0.036 c 0.27867,0.0573 0.55734,0.11067 0.83734,0.164 4.22,0.792 8.57466,1.208 13.024,1.208 3.56799,0 7.07333,-0.26933 10.49999,-0.78267 l 0.512,-0.0787 c 0.252,-0.04 0.504,-0.0827 0.75734,-0.12667 2.748,-0.46933 5.49733,-1.108 8.23866,-1.92267 4.31734,-1.28266 8.41867,-2.944 12.27867,-4.93733 0.39333,-0.20267 0.78533,-0.408 1.17333,-0.61867 l 0.0573,-0.0307 c 8.34666,-4.53867 15.672,-10.72667 21.53866,-18.12 -9.036,-0.376 -20.94666,0.152 -34.03333,3.38933 z m 28.64267,-27.312 c -1.22,2.18 -2.55334,4.28667 -4.00134,6.308 l 21.82134,-6.484 c 0.528,-1.81733 0.98133,-3.66133 1.36133,-5.52267 z m -2.464,-69.234665 2.016,-0.598667 c -1.46667,-1.44 -2.99467,-2.817333 -4.58134,-4.125333 l -0.008,-0.0053 -0.007,-0.0053 -0.11467,-0.09467 -0.368,-0.3 -0.124,-0.1 c -0.56933,-0.454667 -1.14533,-0.902667 -1.728,-1.341334 1.76667,2.084 3.408,4.278667 4.91467,6.570667 v 0"
         style="fill:#9d6823;fill-opacity:1;fill-rule:evenodd;stroke:none;stroke-width:0.133333" />
      <path
         id="path11"
         d="m 324.33866,72.789352 c -2.80133,0.627999 -5.58133,-1.130667 -6.21067,-3.929334 -0.62933,-2.8 1.12934,-5.581333 3.92934,-6.212 1.37866,-0.308 2.824,-0.582666 4.336,-0.821333 1.436,-0.225333 2.88933,-0.408 4.35066,-0.541333 2.85733,-0.257334 5.384,1.848 5.64,4.704 0.25867,2.856 -1.848,5.381333 -4.70266,5.638666 -1.24667,0.114667 -2.48134,0.269334 -3.70134,0.461334 -1.176,0.185333 -2.392,0.42 -3.64133,0.7 z m -42.668,39.457328 c -0.80933,2.75334 -3.7,4.32934 -6.45467,3.52 -2.75466,-0.808 -4.33066,-3.69866 -3.52133,-6.45466 2.568,-8.63467 6.924,-16.586669 12.62,-23.445335 5.768,-6.945334 12.90533,-12.758667 20.94533,-17.009333 2.54134,-1.338667 5.68667,-0.364 7.024,2.178666 1.33867,2.54 0.36267,5.685333 -2.18,7.024 -6.85333,3.625333 -12.92133,8.561333 -17.808,14.445333 -4.79466,5.772 -8.46266,12.466669 -10.62533,19.741329 v 0"
         style="fill:#fdebaf;fill-opacity:1;fill-rule:evenodd;stroke:none;stroke-width:0.133333" />
      <path
         id="path12"
         d="m 304.98799,108.40135 c 2.72134,0 4.94267,-2.22 4.94267,-4.94133 0,-2.72267 -2.22133,-4.944002 -4.94267,-4.944002 -2.72133,0 -4.94133,2.221332 -4.94133,4.944002 0,2.72133 2.22,4.94133 4.94133,4.94133"
         style="fill:#b98541;fill-opacity:1;fill-rule:evenodd;stroke:none;stroke-width:0.133333" />
      <path
         id="path13"
         d="m 314.67199,109.54802 c 1.096,0 1.98667,-0.892 1.98667,-1.98534 0,-1.096 -0.89067,-1.98666 -1.98667,-1.98666 -1.09333,0 -1.98533,0.89066 -1.98533,1.98666 0,1.09334 0.892,1.98534 1.98533,1.98534"
         style="fill:#b98541;fill-opacity:1;fill-rule:evenodd;stroke:none;stroke-width:0.133333" />
      <path
         id="path14"
         d="m 330.42533,88.574684 c 1.71733,0 3.11599,-1.4 3.11599,-3.114666 0,-1.717333 -1.39866,-3.116 -3.11599,-3.116 -1.71467,0 -3.11334,1.398667 -3.11334,3.116 0,1.714666 1.39867,3.114666 3.11334,3.114666"
         style="fill:#b98541;fill-opacity:1;fill-rule:evenodd;stroke:none;stroke-width:0.133333" />
      <path
         id="path15"
         d="m 358.47999,107.21735 c 3.23333,0 5.872,-2.63733 5.872,-5.87333 0,-3.234669 -2.63867,-5.872002 -5.872,-5.872002 -3.23467,0 -5.87333,2.637333 -5.87333,5.872002 0,3.236 2.63866,5.87333 5.87333,5.87333"
         style="fill:#d7b973;fill-opacity:1;fill-rule:evenodd;stroke:none;stroke-width:0.133333" />
      <path
         id="path16"
         d="m 335.81866,175.93468 c 2.504,0 4.548,-2.04266 4.548,-4.548 0,-2.50533 -2.044,-4.548 -4.548,-4.548 -2.50533,0 -4.548,2.04267 -4.548,4.548 0,2.50534 2.04267,4.548 4.548,4.548"
         style="fill:#d7b973;fill-opacity:1;fill-rule:evenodd;stroke:none;stroke-width:0.133333" />
      <path
         id="path17"
         d="m 318.39333,144.54268 c 3.78533,0 6.872,-3.08533 6.872,-6.87066 0,-3.78534 -3.08667,-6.872 -6.872,-6.872 -3.784,0 -6.87067,3.08666 -6.87067,6.872 0,3.78533 3.08667,6.87066 6.87067,6.87066"
         style="fill:#d7b973;fill-opacity:1;fill-rule:evenodd;stroke:none;stroke-width:0.133333" />
      <path
         id="path18"
         d="m 308.26133,147.17602 c 1.516,0 2.75333,-1.23867 2.75333,-2.75467 0,-1.51467 -1.23733,-2.75067 -2.75333,-2.75067 -1.51467,0 -2.752,1.236 -2.752,2.75067 0,1.516 1.23733,2.75467 2.752,2.75467"
         style="fill:#d7b973;fill-opacity:1;fill-rule:evenodd;stroke:none;stroke-width:0.133333" />
      <path
         id="path19"
         d="m 328.22666,137.81335 c 0.75733,0 1.37733,-0.61867 1.37733,-1.376 0,-0.75733 -0.62,-1.376 -1.37733,-1.376 -0.75733,0 -1.376,0.61867 -1.376,1.376 0,0.75733 0.61867,1.376 1.376,1.376"
         style="fill:#d7b973;fill-opacity:1;fill-rule:evenodd;stroke:none;stroke-width:0.133333" />
    </g>
  </g>
</svg>
