<?xml version="1.0" encoding="UTF-8" standalone="no"?>
<!-- Created with Inkscape (http://www.inkscape.org/) -->

<svg
   width="140.53381"
   height="140.53456"
   viewBox="0 0 37.182905 37.183103"
   version="1.1"
   id="svg1"
   inkscape:version="1.3.2 (091e20e, 2023-11-25)"
   sodipodi:docname="3_earth.svg"
   xmlns:inkscape="http://www.inkscape.org/namespaces/inkscape"
   xmlns:sodipodi="http://sodipodi.sourceforge.net/DTD/sodipodi-0.dtd"
   xmlns="http://www.w3.org/2000/svg"
   xmlns:svg="http://www.w3.org/2000/svg">
  <sodipodi:namedview
     id="namedview1"
     pagecolor="#505050"
     bordercolor="#eeeeee"
     borderopacity="1"
     inkscape:showpageshadow="0"
     inkscape:pageopacity="0"
     inkscape:pagecheckerboard="0"
     inkscape:deskcolor="#505050"
     inkscape:document-units="px"
     inkscape:zoom="0.75098906"
     inkscape:cx="133.15773"
     inkscape:cy="152.4656"
     inkscape:window-width="960"
     inkscape:window-height="1043"
     inkscape:window-x="20"
     inkscape:window-y="20"
     inkscape:window-maximized="0"
     inkscape:current-layer="layer1" />
  <defs
     id="defs1" />
  <g
     inkscape:label="Layer 1"
     inkscape:groupmode="layer"
     id="layer1"
     transform="translate(-69.58542,-108.21458)">
    <g
       id="g286"
       transform="matrix(0.26458334,0,0,0.26458334,72.470521,156.41637)">
      <path
         id="path20"
         d="m 39.35592,-179.25225 c -37.1920003,11.05067 -58.38267,50.15733 -47.3320003,87.348 11.04933,37.18933 50.1560003,58.38133 87.3466603,47.33066 37.19067,-11.04933 58.38133,-50.156 47.33067,-87.34666 -11.048,-37.192 -50.15467,-58.38133 -87.34533,-47.332"
         style="fill:#7dcfd1;fill-opacity:1;fill-rule:evenodd;stroke:none;stroke-width:0.133333" />
      <path
         id="path21"
         d="m 117.49592,-124.78292 c 0,36.928 -29.93734,66.86533 -66.86667,66.86533 -25.57333,0 -47.7933303,-14.356 -59.0400003,-35.448 8.13466996,29.79734 35.3960003,51.70267 67.7746703,51.70267 38.79733,0 70.24799,-31.452 70.24799,-70.24933 0,-22.928 -10.98399,-43.29067 -27.97599,-56.11333 9.892,11.65866 15.86,26.75466 15.86,43.24266"
         style="fill:#60c0c2;fill-opacity:1;fill-rule:evenodd;stroke:none;stroke-width:0.133333" />
      <path
         id="path22"
         d="m 50.36658,-165.28692 c -2.8,0.628 -5.57866,-1.13066 -6.208,-3.92933 -0.632,-2.8 1.128,-5.58133 3.928,-6.212 1.37734,-0.308 2.824,-0.58267 4.33467,-0.82133 1.43867,-0.22534 2.88933,-0.408 4.35333,-0.54134 2.856,-0.25733 5.38134,1.848 5.64,4.704 0.25734,2.856 -1.848,5.38134 -4.704,5.63867 -1.248,0.11467 -2.48133,0.26933 -3.7,0.46133 -1.17733,0.18534 -2.392,0.42 -3.644,0.7 z m -42.6666603,39.45733 c -0.80934,2.75334 -3.7,4.32934 -6.45334,3.52 -2.75466,-0.808 -4.332,-3.69866 -3.52266,-6.45466 2.56799996,-8.63467 6.92533,-16.58667 12.6200003,-23.44533 5.768,-6.94534 12.90666,-12.75867 20.94533,-17.00934 2.54133,-1.33866 5.68533,-0.364 7.024,2.17867 1.33867,2.54 0.36133,5.68533 -2.17867,7.024 -6.85466,3.62533 -12.92133,8.56133 -17.808,14.44533 -4.796,5.772 -8.4626603,12.46667 -10.6266603,19.74133 v 0"
         style="fill:#abe0e9;fill-opacity:1;fill-rule:evenodd;stroke:none;stroke-width:0.133333" />
      <path
         id="path23"
         d="m 92.60792,-50.01225 c 3.02666,-2.54 8.13333,-5.55067 8.13333,-7.76934 0,-2.86933 -0.23333,-7.28666 3.17733,-9.612 3.412,-2.32533 7.28667,-3.56533 7.28667,-6.66666 0,-3.1 -0.312,-6.24 1.39467,-9.37867 1.70666,-3.14133 2.636,-2.404 2.636,-5 0,-2.59867 -0.73734,-3.45067 -2.48134,-3.48933 -1.744,-0.0387 -2.44133,-1.74267 -2.44133,-1.74267 -2.016,-4.576 -4.96267,-1.708 -8.372,-4.576 -3.41067,-2.86667 -5.92667,-8.87333 -10.54533,-8.87333 -4.61867,0 -4.69334,0.264 -6.244,-0.87067 -1.55334,-1.136 -2.008,-2.30933 -3.10534,-3.67067 -1.09733,-1.364 -1.78266,-1.40266 -4.66533,-1.40266 -2.88267,0 -3.076,-2.54267 -4.796,-2.54267 -1.72,0 -2.012,0 -4.45867,0 -2.44666,0 -2.808,0.60533 -4.844,2.76133 -2.036,2.156 -3.77466,3.10267 -5.5,2.64 -1.724,-0.46133 -2.93066,-1.52533 -2.93066,-3.07466 0,-1.55067 0,-1.308 0,-3.87734 0,-2.56666 -0.58,-3.00266 -2.01067,-3.77733 -1.42933,-0.776 -2.64133,-1.89067 -0.99333,-3.58533 1.64933,-1.696 2.78533,-3.60934 1.79333,-3.60934 -0.99333,0 -2.73733,0 -4.98933,0 -2.25334,0 -3.27067,0.17067 -4.288,1.212 -1.01867,1.04134 -2.036,2.63867 -2.73867,2.46934 -0.70133,-0.168 -1.308,-1.524 -1.06533,-2.204 0.24133,-0.67734 2.13066,-7.31467 4.65066,-9.3 2.51867,-1.988 4.98934,-1.01867 6.056,0 1.06534,1.016 1.21067,4.84266 4.69867,3.77733 3.488,-1.06533 4.65067,-8.91467 6.97733,-11.04667 2.32534,-2.13066 8.91467,-0.872 13.08134,-6.78133 4.16533,-5.91066 6.34666,-10.708 9.01066,-10.708 2.66534,0 2.956,0 7.21867,0 4.26267,0 5.71733,-1.11466 5.71733,-5.08666 0,-2.08667 1.29734,-2.63734 2.52667,-3.06 -2.59867,-1.87334 -5.32133,-3.56934 -8.14533,-5.07067 -0.71867,0.24933 -1.47334,0.71867 -2.23067,1.59067 -1.91333,2.204 -3.80267,3.51066 -5.32933,2.83333 -1.52534,-0.67733 -1.69467,-1.38 -3.48934,-1.38 -1.792,0 -3.02666,0.99333 -3.70533,2.30133 -0.67733,1.30667 -2.084,3.39067 -3.464,3.39067 -1.38133,0 -1.79333,-0.58133 -1.79333,-1.236 0,-0.65333 0,-1.79333 0,-3.052 0,-1.26 -0.436,-2.85733 -3.052,-2.85733 -2.616,0 -4.50534,-0.58267 -3.244,-2.32667 1.06666,-1.47867 2.51866,-5.29333 5.65466,-6.41733 -10.44533,-1.872 -21.47733,-1.4 -32.34266,1.82933 -15.272,4.53733 -27.844,13.80933 -36.5946703,25.73333 2.53733,4.46667 4.664,7.84667 5.65467,8.58133 3.4866603,2.584 6.0066603,6.136 10.5920003,6.136 4.588,0 8.20666,0.51734 8.20666,4.97334 0,4.45733 -1.80933,4.45733 -1.80933,7.88266 0,3.424 1.744,4.29334 3.87467,4.29334 2.132,0 3.52,0 8.55866,0 5.04134,0 4.232,2.812 7.97867,2.812 3.74667,0 3.58533,3.06933 4.78,5.36133 1.19467,2.29333 2.704,5.46533 6.656,5.46533 3.95467,0 3.25733,3.332 1.08667,6.744 -2.172,3.41067 -5.34934,6.976 -5.34934,10.54267 0,3.56533 -0.15466,5.968 4.49734,5.968 4.64933,0 1.23733,6.04533 6.89866,6.04533 5.65867,0 5.192,3.8 5.192,8.21867 0,4.41867 2.404,3.876 2.404,6.82133 0,2.94534 0,3.876 0,7.75067 0,3.87467 0.0773,6.04667 2.48,8.29467 0.92667,0.86666 1.50534,2.24666 1.93467,3.864 0.992,-0.248 1.98533,-0.51467 2.97333,-0.80934 4.67734,-1.388 9.09734,-3.22266 13.23734,-5.43866"
         style="fill:#3aab3d;fill-opacity:1;fill-rule:evenodd;stroke:none;stroke-width:0.133333" />
      <path
         id="path24"
         d="m 92.61192,-50.01892 c 3.02933,-2.54 8.12933,-5.54533 8.12933,-7.76267 0,-2.86933 -0.23333,-7.28666 3.17733,-9.612 3.412,-2.32533 7.28667,-3.56533 7.28667,-6.66666 0,-3.1 -0.312,-6.24 1.39467,-9.37867 1.70666,-3.14133 2.636,-2.404 2.636,-5 0,-2.59867 -0.73734,-3.45067 -2.48134,-3.48933 -1.744,-0.0387 -2.44133,-1.74267 -2.44133,-1.74267 -0.076,-0.17333 -0.15333,-0.33333 -0.232,-0.48533 -7.90533,15.316 -21.55467,27.184 -38.09867,32.756 v 5.47733 c 0,3.87467 0.0773,6.04667 2.48,8.29467 0.92667,0.86666 1.50534,2.24666 1.93467,3.864 0.992,-0.248 1.98533,-0.51467 2.97333,-0.80934 3.94534,-1.172 7.70934,-2.66 11.276,-4.428 l 0.196,-0.0987 c 0.268,-0.132 0.53067,-0.268 0.79467,-0.40267 0.32667,-0.16933 0.652,-0.34133 0.97467,-0.516"
         style="fill:#34953c;fill-opacity:1;fill-rule:evenodd;stroke:none;stroke-width:0.133333" />
      <path
         id="path25"
         d="m 50.36658,-165.28692 c -2.8,0.628 -5.57866,-1.13066 -6.208,-3.92933 -0.632,-2.8 1.128,-5.58133 3.928,-6.212 1.37734,-0.308 2.824,-0.58267 4.33467,-0.82133 1.43867,-0.22534 2.88933,-0.408 4.35333,-0.54134 2.856,-0.25733 5.38134,1.848 5.64,4.704 0.25734,2.856 -1.848,5.38134 -4.704,5.63867 -1.248,0.11467 -2.48133,0.26933 -3.7,0.46133 -1.17733,0.18534 -2.392,0.42 -3.644,0.7 z m -43.7946603,18.068 c 1.18,-1.72133 2.43866,-3.38533 3.7720003,-4.99066 5.768,-6.94534 12.90666,-12.75867 20.94533,-17.00934 2.54133,-1.33866 5.68533,-0.364 7.024,2.17867 1.33867,2.54 0.36133,5.68533 -2.17867,7.024 -6.85466,3.62533 -12.92133,8.56133 -17.808,14.44533 -1.428,1.716 -2.75333,3.516 -3.97066,5.38667 -2.07467,-1.272 -3.82934,-3.18934 -5.9400003,-4.75334 -0.42534,-0.316 -1.05867,-1.11733 -1.844,-2.28133 v 0"
         style="fill:#4db738;fill-opacity:1;fill-rule:evenodd;stroke:none;stroke-width:0.133333" />
      <path
         id="path26"
         d="m 33.02258,-55.34425 c 4.55734,0 8.27467,-3.716 8.27467,-8.27334 0,-4.55866 -3.71733,-8.27466 -8.27467,-8.27466 -4.55733,0 -8.27466,3.716 -8.27466,8.27466 0,4.55734 3.71733,8.27334 8.27466,8.27334"
         style="fill:#60c0c2;fill-opacity:1;fill-rule:evenodd;stroke:none;stroke-width:0.133333" />
      <path
         id="path27"
         d="m 19.00125,-70.39892 c 2.532,0 4.59733,-2.06533 4.59733,-4.596 0,-2.53333 -2.06533,-4.59867 -4.59733,-4.59867 -2.532,0 -4.59733,2.06534 -4.59733,4.59867 0,2.53067 2.06533,4.596 4.59733,4.596"
         style="fill:#60c0c2;fill-opacity:1;fill-rule:evenodd;stroke:none;stroke-width:0.133333" />
      <path
         id="path28"
         d="m 49.28392,-59.71225 c 1.17066,0 2.12666,-0.95334 2.12666,-2.12534 0,-1.17066 -0.956,-2.12666 -2.12666,-2.12666 -1.17067,0 -2.12534,0.956 -2.12534,2.12666 0,1.172 0.95467,2.12534 2.12534,2.12534"
         style="fill:#60c0c2;fill-opacity:1;fill-rule:evenodd;stroke:none;stroke-width:0.133333" />
      <path
         id="path29"
         d="m 109.76392,-100.80825 c 1.17066,0 2.12666,-0.95467 2.12666,-2.12667 0,-1.16933 -0.956,-2.12533 -2.12666,-2.12533 -1.172,0 -2.12667,0.956 -2.12667,2.12533 0,1.172 0.95467,2.12667 2.12667,2.12667"
         style="fill:#60c0c2;fill-opacity:1;fill-rule:evenodd;stroke:none;stroke-width:0.133333" />
      <path
         id="path30"
         d="m 115.65858,-126.07092 c 5.06267,0 9.192,-4.13067 9.192,-9.19333 0,-5.064 -4.12933,-9.192 -9.192,-9.192 -5.064,0 -9.192,4.128 -9.192,9.192 0,5.06266 4.128,9.19333 9.192,9.19333"
         style="fill:#60c0c2;fill-opacity:1;fill-rule:evenodd;stroke:none;stroke-width:0.133333" />
      <path
         id="path31"
         d="m 107.38258,-114.53092 c 2.53067,0 4.59467,-2.064 4.59467,-4.596 0,-2.532 -2.064,-4.59467 -4.59467,-4.59467 -2.53333,0 -4.59866,2.06267 -4.59866,4.59467 0,2.532 2.06533,4.596 4.59866,4.596"
         style="fill:#60c0c2;fill-opacity:1;fill-rule:evenodd;stroke:none;stroke-width:0.133333" />
    </g>
  </g>
</svg>
