<?xml version="1.0" encoding="UTF-8" standalone="no"?>
<!-- Created with Inkscape (http://www.inkscape.org/) -->

<svg
   width="140.53474"
   height="140.53484"
   viewBox="0 0 37.183151 37.183176"
   version="1.1"
   id="svg1"
   inkscape:version="1.3.2 (091e20e, 2023-11-25)"
   sodipodi:docname="4_mars.svg"
   xmlns:inkscape="http://www.inkscape.org/namespaces/inkscape"
   xmlns:sodipodi="http://sodipodi.sourceforge.net/DTD/sodipodi-0.dtd"
   xmlns="http://www.w3.org/2000/svg"
   xmlns:svg="http://www.w3.org/2000/svg">
  <sodipodi:namedview
     id="namedview1"
     pagecolor="#505050"
     bordercolor="#eeeeee"
     borderopacity="1"
     inkscape:showpageshadow="0"
     inkscape:pageopacity="0"
     inkscape:pagecheckerboard="0"
     inkscape:deskcolor="#505050"
     inkscape:document-units="px"
     inkscape:zoom="0.75098906"
     inkscape:cx="141.1472"
     inkscape:cy="149.80245"
     inkscape:window-width="960"
     inkscape:window-height="1043"
     inkscape:window-x="20"
     inkscape:window-y="20"
     inkscape:window-maximized="0"
     inkscape:current-layer="layer1" />
  <defs
     id="defs1" />
  <g
     inkscape:label="Layer 1"
     inkscape:groupmode="layer"
     id="layer1"
     transform="translate(-67.468753,-108.74375)">
    <g
       id="g287"
       transform="matrix(0.26458334,0,0,0.26458334,25.159023,156.32491)">
      <path
         id="path53"
         d="m 210.16988,-176.90616 c -37.1912,11.04933 -58.38173,50.15466 -47.33066,87.347989 11.04893,37.188 50.15559,58.38134 87.34559,47.33067 37.192,-11.05067 58.384,-50.15733 47.332,-87.347999 -11.05066,-37.18933 -50.156,-58.38133 -87.34693,-47.33066"
         style="fill:#eb4842;fill-opacity:1;fill-rule:evenodd;stroke:none;stroke-width:0.133333" />
      <path
         id="path54"
         d="m 288.31148,-122.43816 c 0,36.926659 -29.93867,66.863989 -66.86667,66.863989 -25.57386,0 -47.79213,-14.35333 -59.03999,-35.44666 8.1344,29.79866 35.39626,51.70266 67.77386,51.70266 38.79813,0 70.25013,-31.452 70.25013,-70.247999 0,-22.92799 -10.98533,-43.29066 -27.97866,-56.11333 9.89333,11.65867 15.86133,26.752 15.86133,43.24134"
         style="fill:#d22f41;fill-opacity:1;fill-rule:evenodd;stroke:none;stroke-width:0.133333" />
      <path
         id="path55"
         d="m 221.18295,-162.94083 c -2.79947,0.628 -5.58187,-1.13067 -6.21,-3.93067 -0.63014,-2.79866 1.12973,-5.58133 3.9292,-6.21066 1.3776,-0.308 2.82293,-0.58267 4.33493,-0.82134 1.4364,-0.22666 2.88907,-0.408 4.35253,-0.54133 2.8552,-0.25867 5.38187,1.848 5.63854,4.704 0.25893,2.856 -1.84734,5.38133 -4.70307,5.64 -1.24587,0.11333 -2.48173,0.268 -3.70107,0.46 -1.17546,0.18533 -2.39106,0.42 -3.64106,0.7 z m -42.6672,39.456 c -0.80987,2.75333 -3.69947,4.332 -6.45427,3.52133 -2.75466,-0.80933 -4.3312,-3.7 -3.52333,-6.45466 2.56973,-8.63467 6.92653,-16.588 12.6224,-23.44534 5.7676,-6.94533 12.90573,-12.75866 20.94266,-17.01066 2.5412,-1.33734 5.68694,-0.36267 7.02494,2.17733 1.33813,2.54267 0.36253,5.68667 -2.178,7.02533 -6.85427,3.62667 -12.922,8.56267 -17.81,14.44534 -4.79427,5.772 -8.46093,12.468 -10.6244,19.74133 v 0"
         style="fill:#f2915a;fill-opacity:1;fill-rule:evenodd;stroke:none;stroke-width:0.133333" />
      <path
         id="path56"
         d="m 219.60428,-46.035501 c 5.888,0 10.688,-4.80133 10.688,-10.68667 0,-5.88666 -4.8,-10.688 -10.688,-10.688 -5.8844,0 -10.686,4.80134 -10.686,10.688 0,5.88534 4.8016,10.68667 10.686,10.68667"
         style="fill:#d22f41;fill-opacity:1;fill-rule:evenodd;stroke:none;stroke-width:0.133333" />
      <path
         id="path57"
         d="m 236.09748,-61.054171 c 3.474,0 6.30867,-2.83066 6.30867,-6.30666 0,-3.472 -2.83467,-6.30534 -6.30867,-6.30534 -3.47293,0 -6.30627,2.83334 -6.30627,6.30534 0,3.476 2.83334,6.30666 6.30627,6.30666"
         style="fill:#d22f41;fill-opacity:1;fill-rule:evenodd;stroke:none;stroke-width:0.133333" />
      <path
         id="path58"
         d="m 205.01108,-61.154171 c 1.2296,0 2.23373,-1.00533 2.23373,-2.23333 0,-1.232 -1.00413,-2.236 -2.23373,-2.236 -1.23187,0 -2.236,1.004 -2.236,2.236 0,1.228 1.00413,2.23333 2.236,2.23333"
         style="fill:#d22f41;fill-opacity:1;fill-rule:evenodd;stroke:none;stroke-width:0.133333" />
      <path
         id="path59"
         d="m 284.49281,-104.89683 c 6.796,0 12.33867,-5.54267 12.33867,-12.33867 0,-6.79733 -5.54267,-12.34 -12.33867,-12.34 -6.796,0 -12.33866,5.54267 -12.33866,12.34 0,6.796 5.54266,12.33867 12.33866,12.33867"
         style="fill:#d22f41;fill-opacity:1;fill-rule:evenodd;stroke:none;stroke-width:0.133333" />
      <path
         id="path60"
         d="m 284.49281,-109.8795 c 4.05067,0 7.35467,-3.30533 7.35467,-7.356 0,-4.052 -3.304,-7.356 -7.35467,-7.356 -4.05066,0 -7.35466,3.304 -7.35466,7.356 0,4.05067 3.304,7.356 7.35466,7.356"
         style="fill:#eb4842;fill-opacity:1;fill-rule:evenodd;stroke:none;stroke-width:0.133333" />
      <path
         id="path61"
         d="m 274.03548,-92.067501 c 3.03733,0 5.516,-2.47867 5.516,-5.51867 0,-3.037329 -2.47867,-5.514659 -5.516,-5.514659 -3.03867,0 -5.51867,2.47733 -5.51867,5.514659 0,3.04 2.48,5.51867 5.51867,5.51867"
         style="fill:#d22f41;fill-opacity:1;fill-rule:evenodd;stroke:none;stroke-width:0.133333" />
      <path
         id="path62"
         d="m 286.15948,-132.17416 c 1.99333,0 3.62,-1.628 3.62,-3.62134 0,-1.99333 -1.62667,-3.62 -3.62,-3.62 -1.99467,0 -3.62133,1.62667 -3.62133,3.62 0,1.99334 1.62666,3.62134 3.62133,3.62134"
         style="fill:#d22f41;fill-opacity:1;fill-rule:evenodd;stroke:none;stroke-width:0.133333" />
      <path
         id="path63"
         d="m 265.69415,-59.314171 c 6.612,0 12.00266,-5.39066 12.00266,-12.00133 0,-6.61067 -5.39066,-12 -12.00266,-12 -6.60934,0 -12,5.38933 -12,12 0,6.61067 5.39066,12.00133 12,12.00133"
         style="fill:#eb4842;fill-opacity:1;fill-rule:evenodd;stroke:none;stroke-width:0.133333" />
      <path
         id="path64"
         d="m 254.38081,-53.912831 c 1.9,0 3.448,-1.54934 3.448,-3.448 0,-1.89734 -1.548,-3.448 -3.448,-3.448 -1.89733,0 -3.448,1.55066 -3.448,3.448 0,1.89866 1.55067,3.448 3.448,3.448"
         style="fill:#eb4842;fill-opacity:1;fill-rule:evenodd;stroke:none;stroke-width:0.133333" />
      <path
         id="path65"
         d="m 280.01148,-77.931501 c 0.948,0 1.724,-0.77333 1.724,-1.72267 0,-0.95066 -0.776,-1.724 -1.724,-1.724 -0.95067,0 -1.724,0.77334 -1.724,1.724 0,0.94934 0.77333,1.72267 1.724,1.72267"
         style="fill:#eb4842;fill-opacity:1;fill-rule:evenodd;stroke:none;stroke-width:0.133333" />
      <path
         id="path66"
         d="m 270.93148,-83.510171 c 1.23067,0 2.23467,-1.00666 2.23467,-2.236 0,-1.23066 -1.004,-2.23466 -2.23467,-2.23466 -1.23067,0 -2.23467,1.004 -2.23467,2.23466 0,1.22934 1.004,2.236 2.23467,2.236"
         style="fill:#d22f41;fill-opacity:1;fill-rule:evenodd;stroke:none;stroke-width:0.133333" />
      <path
         id="path67"
         d="m 175.38188,-102.05283 c 1.2296,0 2.23387,-1.00134 2.23387,-2.23334 0,-1.23066 -1.00427,-2.23466 -2.23387,-2.23466 -1.22973,0 -2.23333,1.004 -2.23333,2.23466 0,1.232 1.0036,2.23334 2.23333,2.23334"
         style="fill:#f2915a;fill-opacity:1;fill-rule:evenodd;stroke:none;stroke-width:0.133333" />
      <path
         id="path68"
         d="m 192.53761,-75.655501 c 7.3984,0 13.43387,-6.03467 13.43387,-13.43333 0,-7.39867 -6.03547,-13.434669 -13.43387,-13.434669 -7.39799,0 -13.43279,6.035999 -13.43279,13.434669 0,7.39866 6.0348,13.43333 13.43279,13.43333"
         style="fill:#f2915a;fill-opacity:1;fill-rule:evenodd;stroke:none;stroke-width:0.133333" />
      <path
         id="path69"
         d="m 192.53761,-79.651501 c 5.1984,0 9.43694,-4.24 9.43694,-9.43733 0,-5.19734 -4.23854,-9.43734 -9.43694,-9.43734 -5.19693,0 -9.43653,4.24 -9.43653,9.43734 0,5.19733 4.2396,9.43733 9.43653,9.43733"
         style="fill:#eb4842;fill-opacity:1;fill-rule:evenodd;stroke:none;stroke-width:0.133333" />
      <path
         id="path70"
         d="m 261.11548,-133.53283 c 2.756,0 5.00267,-2.24667 5.00267,-5.00133 0,-2.75467 -2.24667,-5.00267 -5.00267,-5.00267 -2.75467,0 -5.00133,2.248 -5.00133,5.00267 0,2.75466 2.24666,5.00133 5.00133,5.00133"
         style="fill:#f2915a;fill-opacity:1;fill-rule:evenodd;stroke:none;stroke-width:0.133333" />
      <path
         id="path71"
         d="m 218.63655,-121.71016 c 2.75466,0 5.00266,-2.248 5.00266,-5.00267 0,-2.756 -2.248,-5.00267 -5.00266,-5.00267 -2.75467,0 -5.00267,2.24667 -5.00267,5.00267 0,2.75467 2.248,5.00267 5.00267,5.00267"
         style="fill:#f2915a;fill-opacity:1;fill-rule:evenodd;stroke:none;stroke-width:0.133333" />
      <path
         id="path72"
         d="m 219.21108,-153.74883 c 1.3776,0 2.50147,-1.12267 2.50147,-2.5 0,-1.37733 -1.12387,-2.50267 -2.50147,-2.50267 -1.3772,0 -2.5016,1.12534 -2.5016,2.50267 0,1.37733 1.1244,2.5 2.5016,2.5"
         style="fill:#f2915a;fill-opacity:1;fill-rule:evenodd;stroke:none;stroke-width:0.133333" />
      <path
         id="path73"
         d="m 238.46215,-102.7675 c 3.76666,0 6.836,-3.07067 6.836,-6.836 0,-3.764 -3.06934,-6.83333 -6.836,-6.83333 -3.76307,0 -6.834,3.06933 -6.834,6.83333 0,3.76533 3.07093,6.836 6.834,6.836"
         style="fill:#f2915a;fill-opacity:1;fill-rule:evenodd;stroke:none;stroke-width:0.133333" />
      <path
         id="path74"
         d="m 268.95815,-168.1395 c -2.26,4.23467 -6.72267,7.11734 -11.85867,7.11734 -7.41867,0 -13.43333,-6.01467 -13.43333,-13.43334 0,-1.372 0.20666,-2.696 0.58933,-3.94533 8.844,1.81733 17.23067,5.32 24.70267,10.26133"
         style="fill:#f2915a;fill-opacity:1;fill-rule:evenodd;stroke:none;stroke-width:0.133333" />
      <path
         id="path75"
         d="m 265.55281,-170.2555 c -1.54666,3.104 -4.75066,5.23734 -8.45333,5.23734 -5.21067,0 -9.436,-4.22534 -9.436,-9.43734 0,-1.06 0.17467,-2.07866 0.49733,-3.028 6.10667,1.624 11.95734,4.06267 17.392,7.228"
         style="fill:#eb4842;fill-opacity:1;fill-rule:evenodd;stroke:none;stroke-width:0.133333" />
    </g>
  </g>
</svg>
