<?xml version="1.0" encoding="UTF-8" standalone="no"?>
<!-- Created with Inkscape (http://www.inkscape.org/) -->

<svg
   width="140.56203"
   height="140.53484"
   viewBox="0 0 37.19037 37.183176"
   version="1.1"
   id="svg1"
   inkscape:version="1.3.2 (091e20e, 2023-11-25)"
   sodipodi:docname="5_jupiter.svg"
   xmlns:inkscape="http://www.inkscape.org/namespaces/inkscape"
   xmlns:sodipodi="http://sodipodi.sourceforge.net/DTD/sodipodi-0.dtd"
   xmlns="http://www.w3.org/2000/svg"
   xmlns:svg="http://www.w3.org/2000/svg">
  <sodipodi:namedview
     id="namedview1"
     pagecolor="#505050"
     bordercolor="#eeeeee"
     borderopacity="1"
     inkscape:showpageshadow="0"
     inkscape:pageopacity="0"
     inkscape:pagecheckerboard="0"
     inkscape:deskcolor="#505050"
     inkscape:document-units="px"
     inkscape:zoom="0.75098906"
     inkscape:cx="137.15246"
     inkscape:cy="143.14456"
     inkscape:window-width="960"
     inkscape:window-height="1043"
     inkscape:window-x="20"
     inkscape:window-y="20"
     inkscape:window-maximized="0"
     inkscape:current-layer="layer1" />
  <defs
     id="defs1" />
  <g
     inkscape:label="Layer 1"
     inkscape:groupmode="layer"
     id="layer1"
     transform="translate(-68.527088,-110.33125)">
    <g
       id="g288"
       transform="matrix(0.26458334,0,0,0.26458334,-1.0721778,40.728576)">
      <path
         id="path199"
         d="m 313.31066,265.99335 c -37.18933,11.04933 -58.38,50.15466 -47.33067,87.34799 11.04934,37.188 50.156,58.38134 87.348,47.33067 37.19067,-11.05067 58.38133,-50.15733 47.33067,-87.348 -11.048,-37.18933 -50.15467,-58.38133 -87.348,-47.33066"
         style="fill:#ebcb82;fill-opacity:1;fill-rule:evenodd;stroke:none;stroke-width:0.133333" />
      <path
         id="path200"
         d="m 323.83999,279.38935 c -2.8,0.62933 -5.58133,-1.13067 -6.212,-3.93067 -0.628,-2.8 1.132,-5.58133 3.93067,-6.20933 1.37733,-0.30934 2.82267,-0.584 4.33467,-0.82267 1.43733,-0.22667 2.88933,-0.40667 4.35333,-0.54133 2.85467,-0.25734 5.38133,1.848 5.63866,4.704 0.25734,2.856 -1.848,5.38266 -4.70266,5.64 -1.24667,0.11333 -2.48267,0.268 -3.70133,0.46 -1.176,0.184 -2.392,0.41866 -3.64134,0.7 z m -42.668,39.45466 c -0.80933,2.75467 -3.69866,4.33334 -6.45333,3.52267 -2.75467,-0.80933 -4.33333,-3.7 -3.524,-6.45467 2.57067,-8.636 6.92533,-16.588 12.62133,-23.44533 5.76934,-6.944 12.90667,-12.75867 20.944,-17.01067 2.54134,-1.33866 5.68667,-0.36266 7.02534,2.18 1.33733,2.54 0.36266,5.68534 -2.17867,7.02267 -6.85467,3.62667 -12.92267,8.56267 -17.80933,14.44533 -4.79467,5.772 -8.46134,12.46934 -10.62534,19.74 v 0"
         style="fill:#ebcb82;fill-opacity:1;fill-rule:evenodd;stroke:none;stroke-width:0.133333" />
      <path
         id="path201"
         d="m 391.45332,320.46135 c 0,36.92666 -29.93866,66.86399 -66.86666,66.86399 -25.572,0 -47.792,-14.35333 -59.04,-35.44666 8.136,29.79866 35.396,51.70266 67.77467,51.70266 38.79733,0 70.24933,-31.452 70.24933,-70.248 0,-22.92799 -10.98534,-43.29066 -27.98,-56.11333 9.89466,11.65867 15.86266,26.752 15.86266,43.24134"
         style="fill:#bc985c;fill-opacity:1;fill-rule:evenodd;stroke:none;stroke-width:0.133333" />
      <path
         id="path202"
         d="m 265.12399,316.57735 c 7.93734,-2.33067 18.77334,-5.59867 26.78534,-8.33734 14.22266,-4.86133 21.54,-14.22533 30.98666,-17.27466 6.78267,-2.188 35.57867,-10.35734 51.292,-14.79467 7.784,5.56667 14.424,12.7 19.41733,21.004 -14.02666,8.77067 -47.196,27.06267 -55.652,29.82267 -10.49599,3.42533 -50.10133,13.73866 -52.68666,13.27466 -1.388,-0.24933 -13.04133,0.64 -21.98267,-2.13067 -0.51333,-7.41999 0.14667,-14.67333 1.84,-21.56399"
         style="fill:#fdebaf;fill-opacity:1;fill-rule:evenodd;stroke:none;stroke-width:0.133333" />
      <path
         id="path203"
         d="m 270.38533,364.56001 c 20.50533,-6.19867 52.31866,-15.64667 59.65466,-16.872 11.03333,-1.83867 35.63067,-1.604 53.324,-6.89467 7.02933,-2.10133 14.16667,-5.03466 20.21867,-7.80933 0.0413,7.71467 -1.2,15.28533 -3.57334,22.43333 -13.368,4.496 -37.908,12.30667 -48.82266,12.95734 -10.18534,0.608 -41.48267,11.87333 -61.97733,19.63333 -7.74934,-6.24133 -14.23467,-14.17067 -18.824,-23.448"
         style="fill:#f7e29e;fill-opacity:1;fill-rule:evenodd;stroke:none;stroke-width:0.133333" />
      <path
         id="path204"
         d="m 388.84532,339.00401 c 5.17867,-1.824 10.24534,-3.96133 14.72134,-6.012 l 0.004,0.34133 c 0,4.19467 -0.37067,8.304 -1.07467,12.29734 l -0.068,0.364 c -0.0613,0.33466 -0.12533,0.66666 -0.19067,0.99866 -0.56933,2.86134 -1.31466,5.67467 -2.228,8.424 -6.29866,2.11734 -15.072,4.96934 -23.736,7.46534 5.69734,-6.93067 10.02267,-15.02934 12.572,-23.87867 z m -118.45999,25.556 3.12666,-0.944 c 7.464,8.828 17.17734,15.69333 28.25334,19.71467 -4.42667,1.62133 -8.684,3.212 -12.556,4.67733 -6.90267,-5.576 -12.72534,-12.43067 -17.112,-20.204 l -0.104,-0.18667 c -0.13867,-0.24666 -0.272,-0.49466 -0.408,-0.74133 -0.41334,-0.76267 -0.81334,-1.53467 -1.2,-2.316 v 0"
         style="fill:#cfab6e;fill-opacity:1;fill-rule:evenodd;stroke:none;stroke-width:0.133333" />
      <path
         id="path205"
         d="m 265.30666,333.34934 c 0,0 24.32,-8.23866 33.45467,-11.19599 9.132,-2.95734 15.77866,-16.00267 26.31866,-20.19067 9.288,-3.68933 36.36267,-12.23733 57.48933,-18.76 4.456,4.36667 8.34,9.33467 11.51867,14.792 l -27.38,16.63733 -103.04533,27.41067 c -0.04,-0.30534 -0.0813,-0.61067 -0.11467,-0.91867 -0.15733,-1.41067 -0.268,-2.81333 -0.34,-4.21067 l 2.09867,-3.564"
         style="fill:#6a211c;fill-opacity:1;fill-rule:evenodd;stroke:none;stroke-width:0.133333" />
      <path
         id="path206"
         d="m 279.87199,378.88268 c 13.23067,-4.784 41.41734,-14.936 47.144,-16.72534 7.544,-2.352 22.61867,7.03334 40.66133,-0.11066 10.97334,-4.34267 24.80934,-10.584 34.632,-15.156 -0.75466,3.85066 -1.828,7.59866 -3.19333,11.216 l -90.01733,41.168 c -11.352,-4.19067 -21.42667,-11.24534 -29.22667,-20.392"
         style="fill:#e0491f;fill-opacity:1;fill-rule:evenodd;stroke:none;stroke-width:0.133333" />
      <path
         id="path207"
         d="m 380.89599,356.53734 c 7.564,-3.28 15.23467,-6.77066 21.35467,-9.62133 -0.75467,3.86133 -1.82934,7.61067 -3.18934,11.216 l -33.99066,15.54667 c 6.22,-4.74 11.58933,-10.544 15.82533,-17.14134 z m -101.024,22.34534 7.652,-2.76134 c 10.60934,7.07734 23.352,11.204 37.06267,11.204 4.704,0 9.296,-0.48533 13.72533,-1.41066 l -29.21333,13.36 c -11.352,-4.19067 -21.42667,-11.24534 -29.22667,-20.392 v 0"
         style="fill:#b03a20;fill-opacity:1;fill-rule:evenodd;stroke:none;stroke-width:0.133333" />
      <path
         id="path208"
         d="m 293.10133,390.90001 c 5.76,-2.54667 34.98133,-15.45067 41.17333,-17.944 6.87333,-2.77067 17.75066,2.744 31.89066,-3.31867 8.664,-3.716 23.892,-10.81466 34.38934,-15.75733 -7.95467,25.97867 -30.68667,46.06933 -59.40534,49.27333 -17.67333,1.972 -34.54133,-2.79866 -48.04799,-12.25333"
         style="fill:#6a211c;fill-opacity:1;fill-rule:evenodd;stroke:none;stroke-width:0.133333" />
      <path
         id="path209"
         d="m 293.10133,390.90001 c 2.12133,-0.93733 7.42933,-3.28267 13.59866,-5.99467 5.692,1.576 11.68934,2.42 17.88667,2.42 19.008,0 36.164,-7.93066 48.33733,-20.66533 8.54,-3.832 19.464,-8.93333 27.58267,-12.75467 -7.61334,24.89334 -28.68134,43.91067 -54.72534,48.572 l -0.048,0.009 c -4.03066,0.71866 -8.17866,1.09466 -12.41199,1.09466 -4.544,0 -8.98667,-0.432 -13.28934,-1.25466 l -0.10133,-0.0213 c -0.37867,-0.0707 -0.756,-0.14933 -1.13333,-0.22933 l -0.66667,-0.144 -0.42133,-0.0947 c -8.92267,-2.04133 -17.264,-5.79733 -24.608,-10.93733"
         style="fill:#401b16;fill-opacity:1;fill-rule:evenodd;stroke:none;stroke-width:0.133333" />
      <path
         id="path210"
         d="m 396.62266,363.89868 c -8.772,4.65466 -32.69467,17.36533 -36.31734,19.37066 -4.44666,2.464 -14.16533,0.42267 -27.62533,7.64534 -5.21333,2.796 -11.18933,6.74666 -16.556,10.53866 -5.7,-1.444 -11.15066,-3.592 -16.23866,-6.356 11.38133,-5.87466 27.88133,-14.34 32.29866,-16.28666 6.928,-3.05867 18.828,1.29466 26.43467,-2.18267 l 40.49733,-18.52133 c -0.74533,1.972 -1.58,3.904 -2.49333,5.792"
         style="fill:#d7b973;fill-opacity:1;fill-rule:evenodd;stroke:none;stroke-width:0.133333" />
      <path
         id="path211"
         d="m 396.57599,363.92001 c -8.808,4.67733 -32.65333,17.34667 -36.27067,19.34933 -4.44666,2.464 -14.16533,0.42267 -27.62533,7.64534 -5.21333,2.796 -11.18933,6.74666 -16.556,10.53866 -5.7,-1.444 -11.15066,-3.592 -16.23866,-6.356 4.904,-2.53066 10.75866,-5.54533 16.188,-8.30933 2.788,0.35467 5.62933,0.53733 8.51333,0.53733 15.21866,0 29.248,-5.08666 40.48533,-13.64933 l 33.98933,-15.544 c -0.74666,1.97333 -1.57333,3.90533 -2.48533,5.788"
         style="fill:#b1834b;fill-opacity:1;fill-rule:evenodd;stroke:none;stroke-width:0.133333" />
      <path
         id="path212"
         d="m 268.51466,360.38401 c 13.376,-4.54267 42.63867,-14.356 54.20667,-17.24133 15.21599,-3.792 37.94799,1.77466 56.97466,-3.40934 8.70533,-2.37333 17.18667,-6.276 23.832,-9.81199 0.068,1.4 0.0973,2.792 0.0827,4.17733 -9.14667,5.10933 -22.62934,11.85866 -33.76667,14.24666 -18.82133,4.03467 -25.10533,-3.91866 -55.268,8.75867 -14.03333,5.9 -27.73733,12.112 -38.38133,17.072 -3.04267,-4.25467 -5.62933,-8.87067 -7.68,-13.792"
         style="fill:#6a211c;fill-opacity:1;fill-rule:evenodd;stroke:none;stroke-width:0.133333" />
      <path
         id="path213"
         d="m 389.52799,336.43201 c 5.09733,-2.008 9.87467,-4.316 13.95867,-6.48933 0.0547,1.124 0.084,2.25333 0.084,3.39066 0,0.26534 -0.008,0.528 -0.012,0.79467 -4.45734,2.488 -9.93734,5.36133 -15.672,7.92933 0.628,-1.83866 1.17466,-3.71733 1.64133,-5.62533 z m -121.01333,23.952 1.94267,-0.66 c 3.216,4.42267 6.95733,8.43867 11.13733,11.95067 -1.87333,0.86133 -3.676,1.69866 -5.4,2.50133 -3.04267,-4.25467 -5.62933,-8.87067 -7.68,-13.792 v 0"
         style="fill:#401b16;fill-opacity:1;fill-rule:evenodd;stroke:none;stroke-width:0.133333" />
      <path
         id="path214"
         d="m 270.12266,302.73868 c 10.48533,-3.16 22.964,-6.99733 27.60533,-8.72933 8.58534,-3.204 11.34,-10.27467 21.33467,-13.07734 6.86933,-1.924 30.18266,-7.75333 44.108,-11.21466 -2.99867,-1.40934 -6.10934,-2.608 -9.308,-3.58534 -13.31467,3.12934 -34.38133,8.06534 -44.22533,10.28934 -7.62667,1.72266 -13.696,1.192 -17.82,0.25466 -9.24267,6.792 -16.69867,15.76134 -21.69467,26.06267"
         style="fill:#e0491f;fill-opacity:1;fill-rule:evenodd;stroke:none;stroke-width:0.133333" />
      <path
         id="path215"
         d="m 263.20933,336.93868 c 15.08266,-4.16 37.16933,-10.39867 45.70933,-13.55467 13.504,-4.98933 12.51467,-13.35466 21.524,-16.60133 9.00933,-3.248 8.25733,-3.04 12.24666,-4.18 3.98667,-1.13733 13.10534,7.54667 22.18534,4.06133 9.08133,-3.48533 6.108,-10.46933 12.48266,-13.332 3.09467,-1.38933 7.06134,-3.13066 10.32134,-4.55333 4.50533,5.48 8.20666,11.67867 10.908,18.42933 l -133.29333,43.50267 c -0.78934,-3.10934 -1.37867,-6.308 -1.74534,-9.58667 -0.15733,-1.40133 -0.26666,-2.79467 -0.33866,-4.18533"
         style="fill:#e0491f;fill-opacity:1;fill-rule:evenodd;stroke:none;stroke-width:0.133333" />
      <path
         id="path216"
         d="m 384.26532,290.27201 3.38,-1.48 c 4.51867,5.50534 8.21734,11.71067 10.90934,18.42667 l -7.94667,2.59333 c -1.108,-6.92666 -3.28,-13.49733 -6.34267,-19.54"
         style="fill:#b03a20;fill-opacity:1;fill-rule:evenodd;stroke:none;stroke-width:0.133333" />
      <path
         id="path217"
         d="m 323.83999,279.38935 c -2.8,0.62933 -5.58133,-1.13067 -6.212,-3.93067 -0.628,-2.8 1.132,-5.58133 3.93067,-6.20933 1.37733,-0.30934 2.82267,-0.584 4.33467,-0.82267 1.43733,-0.22667 2.88933,-0.40667 4.35333,-0.54133 2.85467,-0.25734 5.38133,1.848 5.63866,4.704 0.25734,2.856 -1.848,5.38266 -4.70266,5.64 -1.24667,0.11333 -2.48267,0.268 -3.70133,0.46 -1.176,0.184 -2.392,0.41866 -3.64134,0.7 z m -42.668,39.45466 c -0.80933,2.75467 -3.69866,4.33334 -6.45333,3.52267 -2.75467,-0.80933 -4.33333,-3.7 -3.524,-6.45467 2.57067,-8.636 6.92533,-16.588 12.62133,-23.44533 5.76934,-6.944 12.90667,-12.75867 20.944,-17.01067 2.54134,-1.33866 5.68667,-0.36266 7.02534,2.18 1.33733,2.54 0.36266,5.68534 -2.17867,7.02267 -6.85467,3.62667 -12.92267,8.56267 -17.80933,14.44533 -4.79467,5.772 -8.46134,12.46934 -10.62534,19.74 v 0"
         style="fill:#fdebaf;fill-opacity:1;fill-rule:evenodd;stroke:none;stroke-width:0.133333" />
      <path
         id="path218"
         d="m 356.65599,331.17068 c 5.76133,0 10.45733,-4.69867 10.45733,-10.45867 0,-5.76 -4.696,-10.45866 -10.45733,-10.45866 -5.76133,0 -10.45867,4.69866 -10.45867,10.45866 0,5.76 4.69734,10.45867 10.45867,10.45867"
         style="fill:#e0491f;fill-opacity:1;fill-rule:evenodd;stroke:none;stroke-width:0.133333" />
      <path
         id="path219"
         d="m 344.47332,336.06268 c 2.18934,0 3.972,-1.784 3.972,-3.97333 0,-2.188 -1.78266,-3.97334 -3.972,-3.97334 -2.188,0 -3.97333,1.78534 -3.97333,3.97334 0,2.18933 1.78533,3.97333 3.97333,3.97333"
         style="fill:#e0491f;fill-opacity:1;fill-rule:evenodd;stroke:none;stroke-width:0.133333" />
      <path
         id="path220"
         d="m 372.63066,322.92801 c 1.22133,0 2.21733,-0.996 2.21733,-2.216 0,-1.22133 -0.996,-2.21733 -2.21733,-2.21733 -1.22134,0 -2.216,0.996 -2.216,2.21733 0,1.22 0.99466,2.216 2.216,2.216"
         style="fill:#e0491f;fill-opacity:1;fill-rule:evenodd;stroke:none;stroke-width:0.133333" />
      <path
         id="path221"
         d="m 356.65599,326.05735 c 2.94267,0 5.344,-2.40134 5.344,-5.34534 0,-2.944 -2.40133,-5.34533 -5.344,-5.34533 -2.94533,0 -5.34667,2.40133 -5.34667,5.34533 0,2.944 2.40134,5.34534 5.34667,5.34534"
         style="fill:#f4af63;fill-opacity:1;fill-rule:evenodd;stroke:none;stroke-width:0.133333" />
      <path
         id="path222"
         d="m 345.50799,321.08668 c 1.472,0 2.672,-1.2 2.672,-2.672 0,-1.472 -1.2,-2.672 -2.672,-2.672 -1.47333,0 -2.672,1.2 -2.672,2.672 0,1.472 1.19867,2.672 2.672,2.672"
         style="fill:#f4af63;fill-opacity:1;fill-rule:evenodd;stroke:none;stroke-width:0.133333" />
      <path
         id="path223"
         d="m 363.75466,314.99468 c 1.08,0 1.96,-0.87867 1.96,-1.95867 0,-1.07733 -0.88,-1.95733 -1.96,-1.95733 -1.076,0 -1.956,0.88 -1.956,1.95733 0,1.08 0.88,1.95867 1.956,1.95867"
         style="fill:#f4af63;fill-opacity:1;fill-rule:evenodd;stroke:none;stroke-width:0.133333" />
      <path
         id="path224"
         d="m 347.51999,369.26134 c 4.212,0 7.64667,-3.43733 7.64667,-7.64933 0,-4.212 -3.43467,-7.648 -7.64667,-7.648 -4.21467,0 -7.65067,3.436 -7.65067,7.648 0,4.212 3.436,7.64933 7.65067,7.64933"
         style="fill:#e0491f;fill-opacity:1;fill-rule:evenodd;stroke:none;stroke-width:0.133333" />
      <path
         id="path225"
         d="m 362.34532,360.98134 c 1.80134,0 3.27467,-1.47066 3.27467,-3.27733 0,-1.80267 -1.47333,-3.27467 -3.27467,-3.27467 -1.80533,0 -3.27733,1.472 -3.27733,3.27467 0,1.80667 1.472,3.27733 3.27733,3.27733"
         style="fill:#e0491f;fill-opacity:1;fill-rule:evenodd;stroke:none;stroke-width:0.133333" />
      <path
         id="path226"
         d="m 316.38933,373.26134 c 3.77466,0 6.852,-3.076 6.852,-6.85066 0,-3.77467 -3.07734,-6.85334 -6.852,-6.85334 -3.77467,0 -6.852,3.07867 -6.852,6.85334 0,3.77466 3.07733,6.85066 6.852,6.85066"
         style="fill:#f7e29e;fill-opacity:1;fill-rule:evenodd;stroke:none;stroke-width:0.133333" />
      <path
         id="path227"
         d="m 325.32399,349.39201 c 3.77467,0 6.85467,-3.08 6.85467,-6.85467 0,-3.772 -3.08,-6.85066 -6.85467,-6.85066 -3.772,0 -6.852,3.07866 -6.852,6.85066 0,3.77467 3.08,6.85467 6.852,6.85467"
         style="fill:#6a211c;fill-opacity:1;fill-rule:evenodd;stroke:none;stroke-width:0.133333" />
      <path
         id="path228"
         d="m 312.98399,342.43734 c 0.952,0 1.728,-0.776 1.728,-1.728 0,-0.952 -0.776,-1.72666 -1.728,-1.72666 -0.952,0 -1.72666,0.77466 -1.72666,1.72666 0,0.952 0.77466,1.728 1.72666,1.728"
         style="fill:#6a211c;fill-opacity:1;fill-rule:evenodd;stroke:none;stroke-width:0.133333" />
      <path
         id="path229"
         d="m 335.27599,340.48401 c 0.952,0 1.728,-0.776 1.728,-1.728 0,-0.95067 -0.776,-1.728 -1.728,-1.728 -0.952,0 -1.72667,0.77733 -1.72667,1.728 0,0.952 0.77467,1.728 1.72667,1.728"
         style="fill:#6a211c;fill-opacity:1;fill-rule:evenodd;stroke:none;stroke-width:0.133333" />
      <path
         id="path230"
         d="m 358.03199,298.27868 c 4.30533,0 7.816,-3.51067 7.816,-7.81467 0,-4.30533 -3.51067,-7.816 -7.816,-7.816 -4.30267,0 -7.81333,3.51067 -7.81333,7.816 0,4.304 3.51066,7.81467 7.81333,7.81467"
         style="fill:#6a211c;fill-opacity:1;fill-rule:evenodd;stroke:none;stroke-width:0.133333" />
      <path
         id="path231"
         d="m 358.03199,294.66001 c 2.312,0 4.19733,-1.88533 4.19733,-4.196 0,-2.312 -1.88533,-4.196 -4.19733,-4.196 -2.31067,0 -4.196,1.884 -4.196,4.196 0,2.31067 1.88533,4.196 4.196,4.196"
         style="fill:#f7e29e;fill-opacity:1;fill-rule:evenodd;stroke:none;stroke-width:0.133333" />
      <path
         id="path232"
         d="m 352.74666,300.75068 c 1.172,0 2.128,-0.956 2.128,-2.12667 0,-1.172 -0.956,-2.128 -2.128,-2.128 -1.17067,0 -2.12667,0.956 -2.12667,2.128 0,1.17067 0.956,2.12667 2.12667,2.12667"
         style="fill:#f7e29e;fill-opacity:1;fill-rule:evenodd;stroke:none;stroke-width:0.133333" />
      <path
         id="path233"
         d="m 366.10666,293.62535 c 0.58533,0 1.06266,-0.47867 1.06266,-1.064 0,-0.58667 -0.47733,-1.06267 -1.06266,-1.06267 -0.58534,0 -1.064,0.476 -1.064,1.06267 0,0.58533 0.47866,1.064 1.064,1.064"
         style="fill:#f7e29e;fill-opacity:1;fill-rule:evenodd;stroke:none;stroke-width:0.133333" />
      <path
         id="path234"
         d="m 369.63599,289.61335 c 1.488,0 2.704,-1.21467 2.704,-2.704 0,-1.49067 -1.216,-2.70534 -2.704,-2.70534 -1.492,0 -2.70533,1.21467 -2.70533,2.70534 0,1.48933 1.21333,2.704 2.70533,2.704"
         style="fill:#6a211c;fill-opacity:1;fill-rule:evenodd;stroke:none;stroke-width:0.133333" />
      <path
         id="path235"
         d="m 346.70666,292.48668 c 0.82666,0 1.50133,-0.67467 1.50133,-1.5 0,-0.82533 -0.67467,-1.5 -1.50133,-1.5 -0.824,0 -1.49734,0.67467 -1.49734,1.5 0,0.82533 0.67334,1.5 1.49734,1.5"
         style="fill:#6a211c;fill-opacity:1;fill-rule:evenodd;stroke:none;stroke-width:0.133333" />
    </g>
  </g>
</svg>
