<?xml version="1.0" encoding="UTF-8" standalone="no"?>
<!-- Created with Inkscape (http://www.inkscape.org/) -->

<svg
   width="172.30344"
   height="126.65488"
   viewBox="0 0 45.588618 33.51077"
   version="1.1"
   id="svg1"
   inkscape:version="1.3.2 (091e20e, 2023-11-25)"
   sodipodi:docname="6_saturn.svg"
   xmlns:inkscape="http://www.inkscape.org/namespaces/inkscape"
   xmlns:sodipodi="http://sodipodi.sourceforge.net/DTD/sodipodi-0.dtd"
   xmlns="http://www.w3.org/2000/svg"
   xmlns:svg="http://www.w3.org/2000/svg">
  <sodipodi:namedview
     id="namedview1"
     pagecolor="#505050"
     bordercolor="#eeeeee"
     borderopacity="1"
     inkscape:showpageshadow="0"
     inkscape:pageopacity="0"
     inkscape:pagecheckerboard="0"
     inkscape:deskcolor="#505050"
     inkscape:document-units="px"
     inkscape:zoom="0.75098906"
     inkscape:cx="-74.56833"
     inkscape:cy="-19.307871"
     inkscape:window-width="960"
     inkscape:window-height="1043"
     inkscape:window-x="20"
     inkscape:window-y="20"
     inkscape:window-maximized="0"
     inkscape:current-layer="layer1" />
  <defs
     id="defs1" />
  <g
     inkscape:label="Layer 1"
     inkscape:groupmode="layer"
     id="layer1"
     transform="translate(-124.61876,-153.19375)">
    <g
       id="g289"
       transform="matrix(0.26458334,0,0,0.26458334,4.4048618,81.755037)">
      <path
         id="path149"
         d="m 522.47199,272.64268 c -33.51867,9.96 -52.616,45.204 -42.65734,78.72 9.95867,33.51733 45.20267,52.616 78.71867,42.65866 33.51867,-9.96 52.61733,-45.204 42.66,-78.71999 -9.96,-33.51734 -45.204,-52.616 -78.72133,-42.65867"
         style="fill:#fdebaf;fill-opacity:1;fill-rule:evenodd;stroke:none;stroke-width:0.133333" />
      <path
         id="path150"
         d="m 592.89465,321.73201 c 0,33.28267 -26.98,60.26267 -60.26266,60.26267 -23.048,0 -43.072,-12.93734 -53.20934,-31.94667 7.332,26.85467 31.90134,46.59333 61.08134,46.59333 34.96533,0 63.30933,-28.34133 63.30933,-63.308 0,-20.66399 -9.89867,-39.01599 -25.21333,-50.57199 8.91733,10.508 14.29466,24.11066 14.29466,38.97066"
         style="fill:#f3d492;fill-opacity:1;fill-rule:evenodd;stroke:none;stroke-width:0.133333" />
      <path
         id="path151"
         d="m 495.96932,378.34801 25.38933,-5.39067 c 12.06,-2.564 10.05334,-5.56266 28.276,-9.43466 18.22267,-3.87067 34.232,0.53866 42.516,5.356 0.18934,0.10933 0.372,0.20666 0.55334,0.3 2.12933,-3.108 3.96666,-6.388 5.50133,-9.79734 -7.456,-3.436 -26.56,-10.28533 -50.772,-4.296 -31.372,7.76 -18.35333,8.42134 -39.19867,12.84667 l -18.05066,3.836 c 1.79066,2.34933 3.728,4.54267 5.78533,6.58 z m -18.78133,-45.61866 c 6.07466,1.65599 14.97066,2.30799 27.592,-0.37067 30.02266,-6.37867 35.39733,-7.51867 52.57333,-11.16667 15.776,-3.35333 35.89733,-7.50933 44.51733,-3.47733 1.66133,6.50533 2.24267,13.13867 1.82,19.66266 l -1.44933,0.99467 c 0,0 1.976,-10.69333 -33.15733,-3.232 -35.136,7.46267 -4.328,0.92 -25.56534,5.43067 -20.04666,4.25866 -49.408,18.06133 -56.944,25.92533 -0.58666,-0.952 -1.14933,-1.92267 -1.68933,-2.916 -5.33867,-9.816 -7.80667,-20.42133 -7.69733,-30.85066 z m 11.268,-35.46267 c 5.352,0.80133 12.336,0.864 20.99466,-0.97467 23.204,-4.93066 37.888,-8.048 50.736,-10.77733 4.87467,-1.036 8.96,-3.83867 12.15334,-6.916 8.872,5.14933 16.59466,12.516 22.24933,21.824 l -3.76,-2.236 -108.648,10.512 c 1.68533,-3.99733 3.784,-7.832 6.27467,-11.432 z m 7.78266,-9.22 c 16.16134,1.03867 39.348,-1.024 62.17867,-15.43733 -15.53333,-4.58267 -32.81333,-3.244 -48.16267,5.10533 -5.252,2.85733 -9.93866,6.35067 -14.016,10.332 z m 22.11067,104.592 c 5.53733,-5.64667 17.53867,-16.172 33.64267,-20.572 15.50666,-4.23867 27.47466,1.75066 33.43066,5.89733 -4.228,4.252 -9.132,7.97333 -14.672,10.98533 -16.764,9.11734 -35.82666,9.87467 -52.40133,3.68934 v 0"
         style="fill:#f4af63;fill-opacity:1;fill-rule:evenodd;stroke:none;stroke-width:0.133333" />
      <path
         id="path152"
         d="m 592.15199,296.71068 c -3.776,-5.316 -8.35067,-10.02533 -13.552,-13.94933 3.96266,4.668 7.22266,9.948 9.628,15.676 l 2.60133,-0.25067 3.76,2.236 c -0.776,-1.27333 -1.58667,-2.51067 -2.43733,-3.712 z m -102.57867,67.17866 c -4.00267,-4.08533 -7.428,-8.73866 -10.14267,-13.82666 1.264,4.60533 3.07467,9.13866 5.45467,13.51733 0.54,0.99333 1.10267,1.964 1.68933,2.916 0.77734,-0.80933 1.78934,-1.68533 2.99867,-2.60667 z m 17.01867,12.20267 c -3.39067,-1.62667 -6.60667,-3.56133 -9.60934,-5.768 l -6.792,1.44267 c 1.78,2.32533 3.71734,4.524 5.79334,6.57733 z m 76.63866,-21.62 c -2.036,3.13867 -4.35333,6.07733 -6.92133,8.77867 6.56133,1.276 12.024,3.40666 15.84133,5.628 0.18534,0.108 0.36667,0.204 0.544,0.29466 0.66534,-0.96666 1.30534,-1.948 1.916,-2.952 l 0.0893,-0.148 c 0.18266,-0.29866 0.36,-0.60133 0.536,-0.90666 1.08933,-1.87734 2.08133,-3.80934 2.96933,-5.78534 -3.11467,-1.436 -8.268,-3.468 -14.97467,-4.90933 z m 9.664,-32.74 c 0,3.69734 -0.336,7.31467 -0.972,10.828 11.272,0.632 10.31867,5.812 10.31867,5.812 l 1.44,-0.98933 c 0.0853,-1.34134 0.132,-2.688 0.132,-4.04934 0,-4.82266 -0.53867,-9.51866 -1.56,-14.03199 l -0.012,-0.0587 v 0 l -0.0293,-0.12133 -0.108,-0.46267 c -0.076,-0.31467 -0.152,-0.63067 -0.23333,-0.944 -2.34,-1.09333 -5.524,-1.584 -9.24,-1.652 0.17467,1.86533 0.264,3.75733 0.264,5.66933 z m -74.54533,70.90667 c 2.748,-2.80267 7.088,-6.80667 12.73067,-10.66667 0.51466,0.0133 1.032,0.0227 1.552,0.0227 12.968,0 24.97866,-4.096 34.81066,-11.06667 7.98534,1.02933 14.18667,4.396 17.968,7.028 -2.52933,2.54667 -5.272,4.87733 -8.2,6.96533 l -0.152,0.108 c -0.29866,0.21067 -0.6,0.41867 -0.90266,0.62267 l -0.64134,0.432 -0.24133,0.16133 c -1.45867,0.95467 -2.96533,1.856 -4.52267,2.704 -3.904,2.12267 -7.936,3.79467 -12.02933,5.028 l -0.23467,0.072 c -0.34666,0.1 -0.692,0.20134 -1.04133,0.29867 -0.29867,0.0813 -0.59733,0.16267 -0.89733,0.24133 l -0.30667,0.0813 c -5.032,1.28933 -10.304,1.97066 -15.73733,1.97066 -2.22534,0 -4.42267,-0.11333 -6.588,-0.33866 l -0.25734,-0.0267 c -0.29733,-0.032 -0.59066,-0.0667 -0.884,-0.10267 -4.93466,-0.612 -9.77733,-1.80133 -14.42533,-3.53466 v 0"
         style="fill:#dd9a4e;fill-opacity:1;fill-rule:evenodd;stroke:none;stroke-width:0.133333" />
      <path
         id="path153"
         d="m 477.83199,342.41734 c 3.21066,0.688 7.55066,0.77467 13.37466,-0.46133 18.22267,-3.872 34.216,-7.268 50.21067,-10.66533 15.99467,-3.39733 31.98933,-6.796 38.54533,-8.188 5.684,-1.20667 18.048,-1.564 23.43867,2.90133 0.16133,1.38667 0.28,2.77334 0.34933,4.16 -3.16,-2.11866 -11.184,-5.35466 -28.40533,-1.696 -23.99067,5.096 -52.70267,11.19333 -65.548,13.92267 -8.80267,1.86933 -21.06667,8.01066 -28.272,13.97066 -1.78933,-4.564 -3.012,-9.24 -3.69333,-13.944"
         style="fill:#e0984b;fill-opacity:1;fill-rule:evenodd;stroke:none;stroke-width:0.133333" />
      <path
         id="path154"
         d="m 482.67332,355.44134 c -0.39467,0.308 -0.77867,0.61467 -1.148,0.92 -0.81733,-2.08 -1.51333,-4.18 -2.09467,-6.29866 0.988,1.85333 2.072,3.648 3.24267,5.37866 z m 110.212,-32.92133 c 4.088,0.39867 8.03066,1.43067 10.50666,3.476 0.16,1.37334 0.27334,2.75867 0.34267,4.15734 -1.81867,-1.216 -5.236,-2.792 -11.064,-3.228 0.124,-1.45334 0.19467,-2.924 0.21467,-4.40534 v 0"
         style="fill:#bf8139;fill-opacity:1;fill-rule:evenodd;stroke:none;stroke-width:0.133333" />
      <path
         id="path155"
         d="m 480.91865,311.94268 19.868,-4.22133 c 10.88134,-2.30934 19.04267,3.21866 24.62267,3.67733 5.57733,0.45867 8.17067,-4.74933 19.72,-3.91467 11.55067,0.83334 19.97333,6.308 29.59867,4.536 9.62666,-1.77066 23.07466,-4.9 23.07466,-4.9 l 0.076,-0.54266 c -0.54666,-1.17467 -1.13066,-2.34 -1.75733,-3.49334 -3.63867,-6.688 -8.30933,-12.45866 -13.704,-17.22266 l -43.088,9.15333 -56.40133,11.98 c -0.73867,1.62133 -1.40934,3.272 -2.00934,4.948"
         style="fill:#e0984b;fill-opacity:1;fill-rule:evenodd;stroke:none;stroke-width:0.133333" />
      <path
         id="path156"
         d="m 591.44932,308.55735 c 3.744,-0.83067 6.35333,-1.43734 6.35333,-1.43734 l 0.076,-0.54266 c -0.54666,-1.17467 -1.13066,-2.34 -1.75733,-3.49334 -1.07067,-1.964 -2.22667,-3.85066 -3.468,-5.656 l -0.34533,-0.49866 -0.024,-0.0347 c -2.85867,-4.05333 -6.17867,-7.75467 -9.88667,-11.02933 l -1.15333,0.24533 c 4.83866,6.58933 8.36666,14.2 10.20533,22.44667"
         style="fill:#c3843b;fill-opacity:1;fill-rule:evenodd;stroke:none;stroke-width:0.133333" />
      <path
         id="path157"
         d="m 532.39599,285.22935 c -2.524,0.568 -5.03067,-1.01867 -5.596,-3.54134 -0.568,-2.524 1.016,-5.02933 3.54133,-5.59733 1.24133,-0.28 2.54533,-0.52667 3.90667,-0.74 1.29333,-0.20533 2.604,-0.368 3.92133,-0.488 2.576,-0.232 4.852,1.66533 5.08267,4.23867 0.23333,2.57466 -1.664,4.85066 -4.23867,5.08266 -1.12267,0.10267 -2.236,0.24134 -3.33467,0.41467 -1.06,0.16667 -2.15466,0.37733 -3.28266,0.63067 z m -38.45334,35.55866 c -0.72933,2.48267 -3.33466,3.904 -5.81733,3.176 -2.48267,-0.73066 -3.90267,-3.33466 -3.17333,-5.81866 2.31466,-7.784 6.24133,-14.95067 11.37333,-21.12934 5.2,-6.26 11.632,-11.49866 18.876,-15.33066 2.29067,-1.20667 5.12533,-0.32667 6.33067,1.96266 1.20666,2.29067 0.328,5.12534 -1.96267,6.33067 -6.17733,3.26933 -11.64667,7.716 -16.04933,13.01867 -4.32267,5.20133 -7.628,11.23733 -9.57734,17.79066 v 0"
         style="fill:#fef7d8;fill-opacity:1;fill-rule:evenodd;stroke:none;stroke-width:0.133333" />
      <path
         id="path158"
         d="m 588.99999,292.61735 c 0.452,-0.0187 0.9,-0.0333 1.34533,-0.0453 18.48,-0.51333 31.72933,3.98667 35.36133,13.62134 3.62933,9.632 -3.35333,21.75466 -17.57867,33.56666 -13.13466,10.90933 -32.69199,21.96533 -55.55199,30.58267 l -0.009,0.001 c -22.86133,8.616 -44.84533,13.21867 -61.904,13.692 -18.48266,0.51333 -31.73199,-3.98667 -35.36266,-13.62133 -3.62933,-9.632 3.352,-21.75467 17.57733,-33.56667 1.368,-1.136 2.80267,-2.27067 4.30133,-3.40533 0.009,3.36533 0.28534,6.76 0.848,10.16133 -11.16533,9.33467 -16.95999,17.99733 -14.77066,23.81467 2.20933,5.86 12.43333,8.53733 27.172,8.128 16.16133,-0.44934 37.156,-4.87334 59.14933,-13.16267 22.00133,-8.29333 40.692,-18.824 53.12533,-29.14933 11.34267,-9.42133 17.25733,-18.18133 15.04667,-24.04533 -1.98134,-5.25867 -10.42,-7.952 -22.78,-8.156 -1.772,-2.99067 -3.77067,-5.80134 -5.96933,-8.416"
         style="fill:#e3672e;fill-opacity:1;fill-rule:evenodd;stroke:none;stroke-width:0.133333" />
      <path
         id="path159"
         d="m 548.91732,317.64801 c 4.74267,0 8.61067,-3.868 8.61067,-8.60933 0,-4.74133 -3.868,-8.61067 -8.61067,-8.61067 -4.74133,0 -8.61067,3.86934 -8.61067,8.61067 0,4.74133 3.86934,8.60933 8.61067,8.60933"
         style="fill:#e0984b;fill-opacity:1;fill-rule:evenodd;stroke:none;stroke-width:0.133333" />
      <path
         id="path160"
         d="m 548.91732,314.09335 c 2.78533,0 5.05733,-2.27067 5.05733,-5.056 0,-2.784 -2.272,-5.056 -5.05733,-5.056 -2.784,0 -5.056,2.272 -5.056,5.056 0,2.78533 2.272,5.056 5.056,5.056"
         style="fill:#fdebaf;fill-opacity:1;fill-rule:evenodd;stroke:none;stroke-width:0.133333" />
      <path
         id="path161"
         d="m 535.55599,320.63468 c 2.344,0 4.25333,-1.91067 4.25333,-4.25333 0,-2.34267 -1.90933,-4.252 -4.25333,-4.252 -2.34134,0 -4.25067,1.90933 -4.25067,4.252 0,2.34266 1.90933,4.25333 4.25067,4.25333"
         style="fill:#e0984b;fill-opacity:1;fill-rule:evenodd;stroke:none;stroke-width:0.133333" />
      <path
         id="path162"
         d="m 560.41332,316.48535 c 1.02533,0 1.86267,-0.83734 1.86267,-1.86267 0,-1.028 -0.83734,-1.86533 -1.86267,-1.86533 -1.02667,0 -1.86267,0.83733 -1.86267,1.86533 0,1.02533 0.836,1.86267 1.86267,1.86267"
         style="fill:#e0984b;fill-opacity:1;fill-rule:evenodd;stroke:none;stroke-width:0.133333" />
      <path
         id="path163"
         d="m 570.25332,295.87468 c 3.252,0 5.90267,-2.652 5.90267,-5.90267 0,-3.252 -2.65067,-5.90266 -5.90267,-5.90266 -3.25067,0 -5.90133,2.65066 -5.90133,5.90266 0,3.25067 2.65066,5.90267 5.90133,5.90267"
         style="fill:#f4af63;fill-opacity:1;fill-rule:evenodd;stroke:none;stroke-width:0.133333" />
      <path
         id="path164"
         d="m 570.25332,293.24535 c 1.804,0 3.27467,-1.47067 3.27467,-3.27334 0,-1.804 -1.47067,-3.27466 -3.27467,-3.27466 -1.80133,0 -3.27333,1.47066 -3.27333,3.27466 0,1.80267 1.472,3.27334 3.27333,3.27334"
         style="fill:#e0984b;fill-opacity:1;fill-rule:evenodd;stroke:none;stroke-width:0.133333" />
      <path
         id="path165"
         d="m 579.16132,342.94001 c 1.04933,0 1.90667,-0.856 1.90667,-1.90667 0,-1.05066 -0.85734,-1.90666 -1.90667,-1.90666 -1.05067,0 -1.908,0.856 -1.908,1.90666 0,1.05067 0.85733,1.90667 1.908,1.90667"
         style="fill:#e0984b;fill-opacity:1;fill-rule:evenodd;stroke:none;stroke-width:0.133333" />
      <path
         id="path166"
         d="m 565.95999,343.83334 c 3.43466,0 6.23466,-2.804 6.23466,-6.23733 0,-3.43467 -2.8,-6.23466 -6.23466,-6.23466 -3.436,0 -6.23734,2.79999 -6.23734,6.23466 0,3.43333 2.80134,6.23733 6.23734,6.23733"
         style="fill:#f4af63;fill-opacity:1;fill-rule:evenodd;stroke:none;stroke-width:0.133333" />
      <path
         id="path167"
         d="m 565.95999,341.16668 c 1.96533,0 3.568,-1.604 3.568,-3.57067 0,-1.96533 -1.60267,-3.568 -3.568,-3.568 -1.96667,0 -3.57067,1.60267 -3.57067,3.568 0,1.96667 1.604,3.57067 3.57067,3.57067"
         style="fill:#fdebaf;fill-opacity:1;fill-rule:evenodd;stroke:none;stroke-width:0.133333" />
      <path
         id="path168"
         d="m 556.42532,347.37868 c 1.46933,0 2.668,-1.19867 2.668,-2.668 0,-1.468 -1.19867,-2.668 -2.668,-2.668 -1.468,0 -2.66667,1.2 -2.66667,2.668 0,1.46933 1.19867,2.668 2.66667,2.668"
         style="fill:#f4af63;fill-opacity:1;fill-rule:evenodd;stroke:none;stroke-width:0.133333" />
      <path
         id="path169"
         d="m 550.47999,343.33201 c 0.65866,0 1.19333,-0.53467 1.19333,-1.18933 0,-0.65734 -0.53467,-1.192 -1.19333,-1.192 -0.65467,0 -1.18934,0.53466 -1.18934,1.192 0,0.65466 0.53467,1.18933 1.18934,1.18933"
         style="fill:#f4af63;fill-opacity:1;fill-rule:evenodd;stroke:none;stroke-width:0.133333" />
      <path
         id="path170"
         d="m 574.91465,337.82268 c 0.656,0 1.18934,-0.53467 1.18934,-1.19067 0,-0.656 -0.53334,-1.19067 -1.18934,-1.19067 -0.656,0 -1.19066,0.53467 -1.19066,1.19067 0,0.656 0.53466,1.19067 1.19066,1.19067"
         style="fill:#f4af63;fill-opacity:1;fill-rule:evenodd;stroke:none;stroke-width:0.133333" />
      <path
         id="path171"
         d="m 497.54132,320.73335 c 2.54,0 4.60933,-2.06934 4.60933,-4.60667 0,-2.53867 -2.06933,-4.608 -4.60933,-4.608 -2.53733,0 -4.608,2.06933 -4.608,4.608 0,2.53733 2.07067,4.60667 4.608,4.60667"
         style="fill:#fef7d8;fill-opacity:1;fill-rule:evenodd;stroke:none;stroke-width:0.133333" />
      <path
         id="path172"
         d="m 507.34399,315.68535 c 1.27733,0 2.316,-1.04134 2.316,-2.31734 0,-1.27733 -1.03867,-2.31733 -2.316,-2.31733 -1.276,0 -2.31734,1.04 -2.31734,2.31733 0,1.276 1.04134,2.31734 2.31734,2.31734"
         style="fill:#fef7d8;fill-opacity:1;fill-rule:evenodd;stroke:none;stroke-width:0.133333" />
      <path
         id="path173"
         d="m 503.92532,337.17601 c 3.644,0 6.61467,-2.972 6.61467,-6.61466 0,-3.644 -2.97067,-6.61467 -6.61467,-6.61467 -3.644,0 -6.61333,2.97067 -6.61333,6.61467 0,3.64266 2.96933,6.61466 6.61333,6.61466"
         style="fill:#f4af63;fill-opacity:1;fill-rule:evenodd;stroke:none;stroke-width:0.133333" />
      <path
         id="path174"
         d="m 493.08399,332.56801 c 1.40666,0 2.55466,-1.14933 2.55466,-2.556 0,-1.408 -1.148,-2.556 -2.55466,-2.556 -1.408,0 -2.55734,1.148 -2.55734,2.556 0,1.40667 1.14934,2.556 2.55734,2.556"
         style="fill:#f4af63;fill-opacity:1;fill-rule:evenodd;stroke:none;stroke-width:0.133333" />
      <path
         id="path175"
         d="m 514.77865,328.72935 c 0.86,0 1.56267,-0.70134 1.56267,-1.56267 0,-0.86133 -0.70267,-1.564 -1.56267,-1.564 -0.86133,0 -1.564,0.70267 -1.564,1.564 0,0.86133 0.70267,1.56267 1.564,1.56267"
         style="fill:#f4af63;fill-opacity:1;fill-rule:evenodd;stroke:none;stroke-width:0.133333" />
      <path
         id="path176"
         d="m 503.92532,334.58534 c 2.21733,0 4.02667,-1.80799 4.02667,-4.02399 0,-2.216 -1.80934,-4.02534 -4.02667,-4.02534 -2.216,0 -4.024,1.80934 -4.024,4.02534 0,2.216 1.808,4.02399 4.024,4.02399"
         style="fill:#fdebaf;fill-opacity:1;fill-rule:evenodd;stroke:none;stroke-width:0.133333" />
      <path
         id="path177"
         d="m 526.33599,366.37601 c 3.64266,0 6.61466,-2.972 6.61466,-6.616 0,-3.64267 -2.972,-6.61333 -6.61466,-6.61333 -3.64267,0 -6.616,2.97066 -6.616,6.61333 0,3.644 2.97333,6.616 6.616,6.616"
         style="fill:#f4af63;fill-opacity:1;fill-rule:evenodd;stroke:none;stroke-width:0.133333" />
      <path
         id="path178"
         d="m 511.81465,364.30401 c 1.80934,0 3.28267,-1.47467 3.28267,-3.28 0,-1.812 -1.47333,-3.28533 -3.28267,-3.28533 -1.80533,0 -3.28,1.47333 -3.28,3.28533 0,1.80533 1.47467,3.28 3.28,3.28"
         style="fill:#f4af63;fill-opacity:1;fill-rule:evenodd;stroke:none;stroke-width:0.133333" />
      <path
         id="path179"
         d="m 535.36132,356.85068 c 0.87733,0 1.592,-0.71334 1.592,-1.58934 0,-0.876 -0.71467,-1.58933 -1.592,-1.58933 -0.87333,0 -1.58667,0.71333 -1.58667,1.58933 0,0.876 0.71334,1.58934 1.58667,1.58934"
         style="fill:#f4af63;fill-opacity:1;fill-rule:evenodd;stroke:none;stroke-width:0.133333" />
    </g>
  </g>
</svg>
