<?xml version="1.0" encoding="UTF-8" standalone="no"?>
<!-- Created with Inkscape (http://www.inkscape.org/) -->

<svg
   width="140.53474"
   height="140.53329"
   viewBox="0 0 37.183151 37.182768"
   version="1.1"
   id="svg1"
   inkscape:version="1.3.2 (091e20e, 2023-11-25)"
   sodipodi:docname="7_uranus.svg"
   xmlns:inkscape="http://www.inkscape.org/namespaces/inkscape"
   xmlns:sodipodi="http://sodipodi.sourceforge.net/DTD/sodipodi-0.dtd"
   xmlns="http://www.w3.org/2000/svg"
   xmlns:svg="http://www.w3.org/2000/svg">
  <sodipodi:namedview
     id="namedview1"
     pagecolor="#505050"
     bordercolor="#eeeeee"
     borderopacity="1"
     inkscape:showpageshadow="0"
     inkscape:pageopacity="0"
     inkscape:pagecheckerboard="0"
     inkscape:deskcolor="#505050"
     inkscape:document-units="px"
     inkscape:zoom="0.75098906"
     inkscape:cx="-17.310505"
     inkscape:cy="5.992098"
     inkscape:window-width="960"
     inkscape:window-height="1043"
     inkscape:window-x="20"
     inkscape:window-y="20"
     inkscape:window-maximized="0"
     inkscape:current-layer="layer1" />
  <defs
     id="defs1" />
  <g
     inkscape:label="Layer 1"
     inkscape:groupmode="layer"
     id="layer1"
     transform="translate(-109.53751,-146.57917)">
    <g
       id="g290"
       transform="matrix(0.26458334,0,0,0.26458334,-77.530232,192.88193)">
      <path
         id="path180"
         d="m 757.28677,-172.07479 c -37.1912,11.04934 -58.38173,50.156 -47.33066,87.346675 11.04893,37.18907 50.15559,58.38133 87.34559,47.3308 37.192,-11.04947 58.384,-50.15467 47.332,-87.346805 -11.05066,-37.19067 -50.156,-58.38 -87.34693,-47.33067"
         style="fill:#60c0c2;fill-opacity:1;fill-rule:evenodd;stroke:none;stroke-width:0.133333" />
      <path
         id="path181"
         d="m 768.29984,-158.11079 c -2.79947,0.62934 -5.58187,-1.12933 -6.21,-3.92933 -0.63014,-2.80133 1.12973,-5.58 3.9292,-6.21067 1.3776,-0.30933 2.82293,-0.584 4.33493,-0.82133 1.4364,-0.22533 2.88907,-0.40933 4.35253,-0.54133 2.8552,-0.26 5.38187,1.848 5.63854,4.704 0.25893,2.856 -1.84734,5.38 -4.70307,5.63866 -1.24587,0.116 -2.48173,0.26934 -3.70107,0.45867 -1.17546,0.188 -2.39106,0.42133 -3.64106,0.70133 z m -42.6672,39.45734 c -0.80987,2.75333 -3.69947,4.33066 -6.45427,3.52 -2.75466,-0.80667 -4.3312,-3.69867 -3.52333,-6.45334 2.56973,-8.63733 6.92653,-16.588 12.6224,-23.44533 5.7676,-6.94533 12.90573,-12.75867 20.94266,-17.01067 2.5412,-1.33733 5.68694,-0.364 7.02494,2.17867 1.33813,2.54 0.36253,5.68533 -2.178,7.024 -6.85427,3.62533 -12.922,8.56133 -17.81,14.44667 -4.79427,5.77066 -8.46093,12.46666 -10.6244,19.74 v 0"
         style="fill:#abe0e9;fill-opacity:1;fill-rule:evenodd;stroke:none;stroke-width:0.133333" />
      <path
         id="path182"
         d="m 835.42837,-117.60679 c 0,36.929205 -29.93867,66.866675 -66.86667,66.866675 -25.57386,0 -47.79213,-14.3588 -59.03999,-35.4504 8.1344,29.7984 35.39626,51.7036 67.77386,51.7036 38.79813,0 70.25013,-31.45053 70.25013,-70.248935 0,-22.92694 -10.98533,-43.29094 -27.97866,-56.11094 9.89333,11.65734 15.86133,26.75067 15.86133,43.24"
         style="fill:#4ba5a9;fill-opacity:1;fill-rule:evenodd;stroke:none;stroke-width:0.133333" />
      <path
         id="path183"
         d="m 737.03677,-47.169715 c 3.09067,2.1588 6.34427,4.06973 9.7344,5.70413 1.79533,-2.25053 3.75107,-4.6984 5.29733,-6.61306 3.88547,-4.81867 8.81094,-6.28014 13.25,-7.46974 4.4396,-1.18906 9.5912,-2.85053 19.25254,-5.43853 9.65866,-2.588 39.90266,-11.46667 48.828,-11.05987 1.712,0.076 3.704,0.26147 5.80133,0.50934 1.876,-3.49894 3.45867,-7.15467 4.72267,-10.93067 -1.484,-0.20533 -2.70934,-0.35573 -3.49467,-0.4172 -4.432,-0.35213 -5.82533,-1.38027 -17.184,1.66667 -11.35867,3.04106 -50.7232,13.388 -59.07787,15.62386 -8.35573,2.23854 -10.8516,3.88654 -16.14946,8.6652 -3.2032,2.88947 -7.8276,6.98014 -10.98027,9.75987 z m -29.6016,-50.09587 19.3656,-5.191605 c 10.0532,-2.69226 18.58907,7.753075 34.38653,3.522405 11.8708,-3.182935 60.7264,-16.397335 84.27307,-22.769335 1.53067,6.128 2.20133,12.28547 2.08533,18.33747 -23.344,6.319865 -67.274,18.207865 -73.93293,19.990665 -9.138,2.4464 -5.82187,10.65467 -20.3124,14.53694 l -30.68813,8.22293 c -1.65573,-2.05053 -3.20573,-4.20253 -4.6348,-6.45307 l 20.7364,-5.55626 c 11.61826,-3.1136 14.12813,-7.84427 15.02973,-10.74427 0.90307,-2.8984 -0.96933,-4.14533 -4.09533,-4.84893 -3.12867,-0.7016 -11.89173,-2.33854 -19.0084,-0.43334 l -20.22027,5.4172 c -0.1604,-0.4948 -0.31453,-0.99066 -0.46346,-1.49333 -1.23907,-4.1692 -2.0704,-8.3656 -2.52094,-12.53747 z m 6.836,-38.493205 c -1.5208,3.08934 -2.81773,6.28667 -3.87293,9.57467 l 15.95933,-4.27733 c 8.74694,-2.34534 15.98493,1.17466 20.53027,2.47466 4.54626,1.3 12.8828,3.68534 18.28013,5.036 5.39907,1.35334 12.30427,0.48 20.26573,-1.652 5.25734,-1.408 34.152,-9.24666 53.19067,-14.41333 -5.53333,-9.91867 -13.29333,-18.144 -22.43467,-24.216 -23.50266,6.36133 -61.36333,16.608 -69.77426,18.86133 l -32.14427,8.612 v 0"
         style="fill:#a8d7ba;fill-opacity:1;fill-rule:evenodd;stroke:none;stroke-width:0.133333" />
      <path
         id="path184"
         d="m 711.08891,-83.415045 c -0.53134,-0.89067 -1.0412,-1.79174 -1.53134,-2.70627 0.1276,0.46413 0.2604,0.9292 0.39854,1.3932 0.14893,0.50267 0.30306,0.99853 0.46346,1.49333 z m 19.30413,20.7136 c -2.52707,-1.75894 -4.926,-3.68654 -7.18133,-5.77094 l -5.22187,1.39894 c 1.4256,2.2412 2.97507,4.39586 4.63813,6.4548 z m 25.83013,10.82386 c -3.6448,-0.6828 -7.188,-1.6572 -10.59947,-2.90253 -2.8552,2.55053 -6.1572,5.4692 -8.58693,7.6104 3.09067,2.1588 6.34427,4.06973 9.7344,5.70413 1.79533,-2.25053 3.75107,-4.6984 5.29733,-6.61306 1.28907,-1.6 2.6932,-2.8296 4.15467,-3.79894 z m 68.73453,-29.79053 c -2.99733,4.68947 -6.564,8.9812 -10.60133,12.7776 8.01867,-1.9068 15.352,-3.3256 19.04267,-3.15627 1.712,0.076 3.704,0.26147 5.80133,0.50934 1.876,-3.49894 3.45867,-7.15467 4.72267,-10.93067 -1.484,-0.20533 -2.70934,-0.35573 -3.49467,-0.4172 -4.19733,-0.33493 -5.672,-1.27187 -15.47067,1.2172 z m 10.47067,-35.938675 c 0,6.30947 -0.876,12.41054 -2.50933,18.200005 l 14.608,-3.953605 c 0.009,-0.45733 0.0187,-0.9156 0.0187,-1.37546 0,-2.83334 -0.16933,-5.62814 -0.49466,-8.37094 l -0.0333,-0.26266 -0.036,-0.28534 c -0.34666,-2.68133 -0.852,-5.368 -1.52133,-8.04933 l -10.04667,2.71733 c 0.008,0.46 0.0147,0.92 0.0147,1.38 z m -2.96133,-19.73866 6.15733,-1.67067 -0.244,-0.43333 -0.34933,-0.60667 -0.052,-0.0907 c -4.36934,-7.472 -10.07867,-14.06266 -16.8,-19.448 l -0.21734,-0.17066 -0.26933,-0.21334 c -0.368,-0.28933 -0.74,-0.57333 -1.116,-0.85733 5.76667,6.79733 10.196,14.764 12.89067,23.49067 v 0"
         style="fill:#94ceab;fill-opacity:1;fill-rule:evenodd;stroke:none;stroke-width:0.133333" />
      <path
         id="path185"
         d="m 718.03891,-128.23079 c 1.45573,-3.46266 3.20773,-6.784 5.22133,-9.93733 l 16.9672,-4.544 c -1.39534,1.37333 -2.72187,2.81333 -3.9704,4.31867 -1.8744,2.256 -3.57867,4.65733 -5.08693,7.17733 -1.54427,0.076 -3.15107,0.30933 -4.81254,0.75467 l -8.31866,2.23066"
         style="fill:#97d8df;fill-opacity:1;fill-rule:evenodd;stroke:none;stroke-width:0.133333" />
      <path
         id="path186"
         d="m 793.38037,-97.772385 c 5.64133,0 10.244,-4.602535 10.244,-10.246265 0,-5.64147 -4.60267,-10.24414 -10.244,-10.24414 -5.644,0 -10.24667,4.60267 -10.24667,10.24414 0,5.64373 4.60267,10.246265 10.24667,10.246265"
         style="fill:#a8d7ba;fill-opacity:1;fill-rule:evenodd;stroke:none;stroke-width:0.133333" />
      <path
         id="path187"
         d="m 775.84504,-105.31865 c 2.51773,0 4.572,-2.05374 4.572,-4.57094 0,-2.5172 -2.05427,-4.57186 -4.572,-4.57186 -2.5192,0 -4.57227,2.05466 -4.57227,4.57186 0,2.5172 2.05307,4.57094 4.57227,4.57094"
         style="fill:#a8d7ba;fill-opacity:1;fill-rule:evenodd;stroke:none;stroke-width:0.133333" />
      <path
         id="path188"
         d="m 807.69104,-113.46279 c 1.13333,0 2.056,-0.924 2.056,-2.05866 0,-1.13067 -0.92267,-2.056 -2.056,-2.056 -1.132,0 -2.056,0.92533 -2.056,2.056 0,1.13466 0.924,2.05866 2.056,2.05866"
         style="fill:#a8d7ba;fill-opacity:1;fill-rule:evenodd;stroke:none;stroke-width:0.133333" />
      <path
         id="path189"
         d="m 786.72837,-55.020245 c 4.32267,0 7.84667,-3.52507 7.84667,-7.84787 0,-4.3224 -3.524,-7.84693 -7.84667,-7.84693 -4.32187,0 -7.8468,3.52453 -7.8468,7.84693 0,4.3228 3.52493,7.84787 7.8468,7.84787"
         style="fill:#a8d7ba;fill-opacity:1;fill-rule:evenodd;stroke:none;stroke-width:0.133333" />
      <path
         id="path190"
         d="m 786.72837,-58.627045 c 2.336,0 4.244,-1.90254 4.244,-4.24107 0,-2.336 -1.908,-4.24013 -4.244,-4.24013 -2.33533,0 -4.24107,1.90413 -4.24107,4.24013 0,2.33853 1.90574,4.24107 4.24107,4.24107"
         style="fill:#60c0c2;fill-opacity:1;fill-rule:evenodd;stroke:none;stroke-width:0.133333" />
      <path
         id="path191"
         d="m 799.0297,-71.785315 c 1.852,0 3.36267,-1.512 3.36267,-3.36413 0,-1.84947 -1.51067,-3.35987 -3.36267,-3.35987 -1.852,0 -3.36266,1.5104 -3.36266,3.35987 0,1.85213 1.51066,3.36413 3.36266,3.36413"
         style="fill:#60c0c2;fill-opacity:1;fill-rule:evenodd;stroke:none;stroke-width:0.133333" />
      <path
         id="path192"
         d="m 792.65504,-66.490515 c 0.836,0 1.52,-0.6844 1.52,-1.52453 0,-0.836 -0.684,-1.51827 -1.52,-1.51827 -0.83867,0 -1.52134,0.68227 -1.52134,1.51827 0,0.84013 0.68267,1.52453 1.52134,1.52453"
         style="fill:#60c0c2;fill-opacity:1;fill-rule:evenodd;stroke:none;stroke-width:0.133333" />
      <path
         id="path193"
         d="m 776.3889,-89.768115 c 2.66147,0 4.83067,-2.16933 4.83067,-4.8308 0,-2.65987 -2.1692,-4.8292 -4.83067,-4.8292 -2.65893,0 -4.83026,2.16933 -4.83026,4.8292 0,2.66147 2.17133,4.8308 4.83026,4.8308"
         style="fill:#60c0c2;fill-opacity:1;fill-rule:evenodd;stroke:none;stroke-width:0.133333" />
      <path
         id="path194"
         d="m 816.0097,-124.48145 c 5.88534,0 10.688,-4.80134 10.688,-10.688 0,-5.88534 -4.80266,-10.688 -10.688,-10.688 -5.888,0 -10.688,4.80266 -10.688,10.688 0,5.88666 4.8,10.688 10.688,10.688"
         style="fill:#60c0c2;fill-opacity:1;fill-rule:evenodd;stroke:none;stroke-width:0.133333" />
      <path
         id="path195"
         d="m 796.9897,-130.91745 c 2.436,0 4.424,-1.98534 4.424,-4.424 0,-2.436 -1.988,-4.424 -4.424,-4.424 -2.43866,0 -4.42533,1.988 -4.42533,4.424 0,2.43866 1.98667,4.424 4.42533,4.424"
         style="fill:#60c0c2;fill-opacity:1;fill-rule:evenodd;stroke:none;stroke-width:0.133333" />
      <path
         id="path196"
         d="m 783.71597,-129.48145 c 1.55107,0 2.81507,-1.264 2.81507,-2.81467 0,-1.552 -1.264,-2.81467 -2.81507,-2.81467 -1.5516,0 -2.81773,1.26267 -2.81773,2.81467 0,1.55067 1.26613,2.81467 2.81773,2.81467"
         style="fill:#60c0c2;fill-opacity:1;fill-rule:evenodd;stroke:none;stroke-width:0.133333" />
      <path
         id="path197"
         d="m 822.10037,-147.36945 c 0.93867,0 1.708,-0.76534 1.708,-1.70534 0,-0.94133 -0.76933,-1.708 -1.708,-1.708 -0.94133,0 -1.708,0.76667 -1.708,1.708 0,0.94 0.76667,1.70534 1.708,1.70534"
         style="fill:#60c0c2;fill-opacity:1;fill-rule:evenodd;stroke:none;stroke-width:0.133333" />
      <path
         id="path198"
         d="m 816.0097,-129.24012 c 3.264,0 5.928,-2.66267 5.928,-5.92933 0,-3.264 -2.664,-5.92934 -5.928,-5.92934 -3.26666,0 -5.93066,2.66534 -5.93066,5.92934 0,3.26666 2.664,5.92933 5.93066,5.92933"
         style="fill:#a8d7ba;fill-opacity:1;fill-rule:evenodd;stroke:none;stroke-width:0.133333" />
    </g>
  </g>
</svg>
