<?xml version="1.0" encoding="UTF-8" standalone="no"?>
<!-- Created with Inkscape (http://www.inkscape.org/) -->

<svg
   width="140.53506"
   height="140.53329"
   viewBox="0 0 37.183236 37.182768"
   version="1.1"
   id="svg1"
   inkscape:version="1.3.2 (091e20e, 2023-11-25)"
   sodipodi:docname="7_neptune.svg"
   xmlns:inkscape="http://www.inkscape.org/namespaces/inkscape"
   xmlns:sodipodi="http://sodipodi.sourceforge.net/DTD/sodipodi-0.dtd"
   xmlns="http://www.w3.org/2000/svg"
   xmlns:svg="http://www.w3.org/2000/svg">
  <sodipodi:namedview
     id="namedview1"
     pagecolor="#505050"
     bordercolor="#eeeeee"
     borderopacity="1"
     inkscape:showpageshadow="0"
     inkscape:pageopacity="0"
     inkscape:pagecheckerboard="0"
     inkscape:deskcolor="#505050"
     inkscape:document-units="px"
     inkscape:zoom="0.75098906"
     inkscape:cx="-14.647351"
     inkscape:cy="23.302603"
     inkscape:window-width="960"
     inkscape:window-height="1043"
     inkscape:window-x="20"
     inkscape:window-y="20"
     inkscape:window-maximized="0"
     inkscape:current-layer="layer1" />
  <defs
     id="defs1" />
  <g
     inkscape:label="Layer 1"
     inkscape:groupmode="layer"
     id="layer1"
     transform="translate(-108.77381,-142.08968)">
    <g
       id="g291"
       transform="matrix(0.26458333,0,0,0.26458333,-121.26896,186.36372)">
      <path
         id="path76"
         d="m 919.71255,-164.4072 c -37.18934,11.04934 -58.38134,50.156 -47.332,87.346673 11.05066,37.18907 50.15733,58.38133 87.34799,47.3308 37.18934,-11.04947 58.38136,-50.15467 47.33196,-87.346803 -11.05062,-37.19067 -50.15729,-58.38 -87.34795,-47.33067"
         style="fill:#6a87ca;fill-opacity:1;fill-rule:evenodd;stroke:none;stroke-width:0.133333" />
      <path
         id="path77"
         d="m 997.85521,-109.9392 c 0,36.929203 -29.94,66.866673 -66.86933,66.866673 -25.572,0 -47.792,-14.3588 -59.04,-35.4504 8.136,29.7984 35.39867,51.7036 67.77467,51.7036 38.79866,0 70.24935,-31.45053 70.24935,-70.24893 0,-22.926943 -10.98536,-43.290943 -27.97736,-56.110943 9.892,11.65734 15.86267,26.75067 15.86267,43.24"
         style="fill:#415f9a;fill-opacity:1;fill-rule:evenodd;stroke:none;stroke-width:0.133333" />
      <path
         id="path78"
         d="m 930.72588,-150.4432 c -2.80133,0.62934 -5.58133,-1.12933 -6.21067,-3.92933 -0.62933,-2.80133 1.12934,-5.58 3.92934,-6.21067 1.37866,-0.30933 2.824,-0.584 4.336,-0.82133 1.436,-0.22533 2.88933,-0.40933 4.35066,-0.54133 2.85733,-0.26 5.384,1.848 5.64,4.704 0.25867,2.856 -1.848,5.38 -4.70266,5.63866 -1.24667,0.116 -2.48134,0.26934 -3.70134,0.45867 -1.176,0.188 -2.392,0.42133 -3.64133,0.70133 z m -42.668,39.45734 c -0.80933,2.75333 -3.7,4.33066 -6.45467,3.52 -2.75466,-0.80667 -4.33066,-3.69867 -3.52133,-6.45334 2.568,-8.63733 6.924,-16.588 12.62,-23.44533 5.768,-6.94533 12.90533,-12.75867 20.94533,-17.01067 2.54134,-1.33733 5.68667,-0.364 7.024,2.17867 1.33867,2.54 0.36267,5.68533 -2.18,7.024 -6.85333,3.62533 -12.92133,8.56133 -17.808,14.44667 -4.79466,5.77066 -8.46266,12.46666 -10.62533,19.74 v 0"
         style="fill:#a2b2dc;fill-opacity:1;fill-rule:evenodd;stroke:none;stroke-width:0.133333" />
      <path
         id="path79"
         d="m 994.03654,-93.128657 c 6.39196,0 11.60666,-5.21467 11.60666,-11.607873 0,-6.396 -5.2147,-11.61067 -11.60666,-11.61067 -6.39466,0 -11.60933,5.21467 -11.60933,11.61067 0,6.393203 5.21467,11.607873 11.60933,11.607873"
         style="fill:#415f9a;fill-opacity:1;fill-rule:evenodd;stroke:none;stroke-width:0.133333" />
      <path
         id="path80"
         d="m 983.57654,-79.567197 c 3.04,0 5.51734,-2.4772 5.51734,-5.5172 0,-3.04013 -2.47734,-5.5172 -5.51734,-5.5172 -3.03866,0 -5.516,2.47707 -5.516,5.5172 0,3.04 2.47734,5.5172 5.516,5.5172"
         style="fill:#415f9a;fill-opacity:1;fill-rule:evenodd;stroke:none;stroke-width:0.133333" />
      <path
         id="path81"
         d="m 995.70054,-119.67653 c 1.99467,0 3.62,-1.62667 3.62,-3.62 0,-1.99333 -1.62533,-3.62 -3.62,-3.62 -1.99333,0 -3.61866,1.62667 -3.61866,3.62 0,1.99333 1.62533,3.62 3.61866,3.62"
         style="fill:#415f9a;fill-opacity:1;fill-rule:evenodd;stroke:none;stroke-width:0.133333" />
      <path
         id="path82"
         d="m 945.71121,-53.907327 c 5.67067,3.43333 7.48133,10.81347 4.048,16.48386 -3.432,5.66974 -10.81333,7.48174 -16.48133,4.0484 -5.66933,-3.43333 -7.48267,-10.81453 -4.04933,-16.48279 3.43333,-5.66934 10.81333,-7.4828 16.48266,-4.04947"
         style="fill:#6a87ca;fill-opacity:1;fill-rule:evenodd;stroke:none;stroke-width:0.133333" />
      <path
         id="path83"
         d="m 924.37521,-40.511057 c 1.628,0.98386 2.14934,3.10373 1.16267,4.73333 -0.98667,1.6276 -3.10667,2.14906 -4.73467,1.1636 -1.62933,-0.98747 -2.14933,-3.10627 -1.164,-4.736 0.98667,-1.62907 3.10667,-2.14893 4.736,-1.16093"
         style="fill:#6a87ca;fill-opacity:1;fill-rule:evenodd;stroke:none;stroke-width:0.133333" />
      <path
         id="path84"
         d="m 956.95388,-44.831327 c 0.81333,0.49213 1.07333,1.55053 0.58133,2.3656 -0.49333,0.8156 -1.55333,1.07453 -2.368,0.58227 -0.81333,-0.4932 -1.07467,-1.55467 -0.58267,-2.3692 0.49467,-0.81307 1.55334,-1.07454 2.36934,-0.57867"
         style="fill:#6a87ca;fill-opacity:1;fill-rule:evenodd;stroke:none;stroke-width:0.133333" />
      <path
         id="path85"
         d="m 980.47254,-71.012527 c 1.232,0 2.236,-1.00427 2.236,-2.23493 0,-1.23174 -1.004,-2.23334 -2.236,-2.23334 -1.228,0 -2.232,1.0016 -2.232,2.23334 0,1.23066 1.004,2.23493 2.232,2.23493"
         style="fill:#415f9a;fill-opacity:1;fill-rule:evenodd;stroke:none;stroke-width:0.133333" />
      <path
         id="path86"
         d="m 905.06988,-59.936527 c 7.39733,0 13.432,-6.03853 13.432,-13.436 0,-7.39733 -6.03467,-13.43333 -13.432,-13.43333 -7.39867,0 -13.43333,6.036 -13.43333,13.43333 0,7.39747 6.03466,13.436 13.43333,13.436"
         style="fill:#415f9a;fill-opacity:1;fill-rule:evenodd;stroke:none;stroke-width:0.133333" />
      <path
         id="path87"
         d="m 905.06988,-64.797997 c 4.72267,0 8.57333,-3.85213 8.57333,-8.57453 0,-4.7228 -3.85066,-8.57187 -8.57333,-8.57187 -4.72267,0 -8.57467,3.84907 -8.57467,8.57187 0,4.7224 3.852,8.57453 8.57467,8.57453"
         style="fill:#6a87ca;fill-opacity:1;fill-rule:evenodd;stroke:none;stroke-width:0.133333" />
      <path
         id="path88"
         d="m 978.50054,-155.64053 c -2.25866,4.23467 -6.72133,7.11867 -11.85733,7.11867 -7.42,0 -13.43333,-6.016 -13.43333,-13.43467 0,-1.372 0.20533,-2.69733 0.58933,-3.94533 8.84133,1.816 17.228,5.32 24.70133,10.26133"
         style="fill:#415f9a;fill-opacity:1;fill-rule:evenodd;stroke:none;stroke-width:0.133333" />
      <path
         id="path89"
         d="m 975.09521,-157.7552 c -1.54533,3.10267 -4.74933,5.236 -8.452,5.236 -5.21333,0 -9.436,-4.22533 -9.436,-9.43733 0,-1.06 0.17333,-2.07867 0.49467,-3.02933 6.10933,1.624 11.96,4.06266 17.39333,7.23066"
         style="fill:#6a87ca;fill-opacity:1;fill-rule:evenodd;stroke:none;stroke-width:0.133333" />
      <path
         id="path90"
         d="m 943.93521,-50.971457 c 4.04933,2.45106 5.34267,7.72133 2.89067,11.77093 -2.45334,4.04786 -7.72133,5.34426 -11.77067,2.89053 -4.04933,-2.45306 -5.344,-7.72133 -2.89066,-11.7708 2.45066,-4.04893 7.72133,-5.34373 11.77066,-2.89066"
         style="fill:#415f9a;fill-opacity:1;fill-rule:evenodd;stroke:none;stroke-width:0.133333" />
      <path
         id="path91"
         d="m 963.23521,-45.495327 c 3.57467,0 6.492,-2.9172 6.492,-6.49067 0,-3.57346 -2.91733,-6.49066 -6.492,-6.49066 -3.57333,0 -6.48933,2.9172 -6.48933,6.49066 0,3.57347 2.916,6.49067 6.48933,6.49067"
         style="fill:#6a87ca;fill-opacity:1;fill-rule:evenodd;stroke:none;stroke-width:0.133333" />
      <path
         id="path92"
         d="m 963.23521,-48.188657 c 2.092,0 3.79733,-1.70667 3.79733,-3.79734 0,-2.09173 -1.70533,-3.79746 -3.79733,-3.79746 -2.09067,0 -3.79867,1.70573 -3.79867,3.79746 0,2.09067 1.708,3.79734 3.79867,3.79734"
         style="fill:#415f9a;fill-opacity:1;fill-rule:evenodd;stroke:none;stroke-width:0.133333" />
      <path
         id="path93"
         d="m 902.31121,-114.96586 c 7.47467,0 13.572,-6.096 13.572,-13.57067 0,-7.47333 -6.09733,-13.57067 -13.572,-13.57067 -7.47466,0 -13.57066,6.09734 -13.57066,13.57067 0,7.47467 6.096,13.57067 13.57066,13.57067"
         style="fill:#a2b2dc;fill-opacity:1;fill-rule:evenodd;stroke:none;stroke-width:0.133333" />
      <path
         id="path94"
         d="m 902.31121,-121.17386 c 4.056,0 7.364,-3.308 7.364,-7.36267 0,-4.056 -3.308,-7.364 -7.364,-7.364 -4.05733,0 -7.36266,3.308 -7.36266,7.364 0,4.05467 3.30533,7.36267 7.36266,7.36267"
         style="fill:#6a87ca;fill-opacity:1;fill-rule:evenodd;stroke:none;stroke-width:0.133333" />
      <path
         id="path95"
         d="m 926.91255,-74.555327 c 2.09066,0 3.79733,-1.70933 3.79733,-3.7984 0,-2.09373 -1.70667,-3.79893 -3.79733,-3.79893 -2.092,0 -3.8,1.7052 -3.8,3.79893 0,2.08907 1.708,3.7984 3.8,3.7984"
         style="fill:#415f9a;fill-opacity:1;fill-rule:evenodd;stroke:none;stroke-width:0.133333" />
      <path
         id="path96"
         d="m 886.16988,-69.563057 c 1.58133,0 2.87333,-1.29227 2.87333,-2.87187 0,-1.5844 -1.292,-2.87347 -2.87333,-2.87347 -1.58267,0 -2.872,1.28907 -2.872,2.87347 0,1.5796 1.28933,2.87187 2.872,2.87187"
         style="fill:#415f9a;fill-opacity:1;fill-rule:evenodd;stroke:none;stroke-width:0.133333" />
      <path
         id="path97"
         d="m 975.86588,-139.0912 c 1.58266,0 2.872,-1.29066 2.872,-2.87333 0,-1.58133 -1.28934,-2.872 -2.872,-2.872 -1.58134,0 -2.87334,1.29067 -2.87334,2.872 0,1.58267 1.292,2.87333 2.87334,2.87333"
         style="fill:#415f9a;fill-opacity:1;fill-rule:evenodd;stroke:none;stroke-width:0.133333" />
      <path
         id="path98"
         d="m 970.92588,-97.373997 c 2.91066,0 5.28666,-2.37346 5.28666,-5.285463 0,-2.91307 -2.376,-5.2864 -5.28666,-5.2864 -2.912,0 -5.28667,2.37333 -5.28667,5.2864 0,2.912003 2.37467,5.285463 5.28667,5.285463"
         style="fill:#415f9a;fill-opacity:1;fill-rule:evenodd;stroke:none;stroke-width:0.133333" />
      <path
         id="path99"
         d="m 922.88588,-129.78186 c 2.91333,0 5.28667,-2.37334 5.28667,-5.28667 0,-2.91333 -2.37334,-5.28667 -5.28667,-5.28667 -2.91067,0 -5.28667,2.37334 -5.28667,5.28667 0,2.91333 2.376,5.28667 5.28667,5.28667"
         style="fill:#a2b2dc;fill-opacity:1;fill-rule:evenodd;stroke:none;stroke-width:0.133333" />
    </g>
  </g>
</svg>
