<svg id="visual" viewBox="0 0 1920 1080" width="1920" height="1080" xmlns="http://www.w3.org/2000/svg" xmlns:xlink="http://www.w3.org/1999/xlink" version="1.1"><rect x="0" y="0" width="1920" height="1080" fill="#14171a"></rect><defs><linearGradient id="grad1_0" x1="43.8%" y1="0%" x2="100%" y2="100%"><stop offset="14.444444444444446%" stop-color="#393f46" stop-opacity="1"></stop><stop offset="85.55555555555554%" stop-color="#393f46" stop-opacity="1"></stop></linearGradient></defs><defs><linearGradient id="grad1_1" x1="43.8%" y1="0%" x2="100%" y2="100%"><stop offset="14.444444444444446%" stop-color="#393f46" stop-opacity="1"></stop><stop offset="85.55555555555554%" stop-color="#2c3137" stop-opacity="1"></stop></linearGradient></defs><defs><linearGradient id="grad1_2" x1="43.8%" y1="0%" x2="100%" y2="100%"><stop offset="14.444444444444446%" stop-color="#202428" stop-opacity="1"></stop><stop offset="85.55555555555554%" stop-color="#2c3137" stop-opacity="1"></stop></linearGradient></defs><defs><linearGradient id="grad1_3" x1="43.8%" y1="0%" x2="100%" y2="100%"><stop offset="14.444444444444446%" stop-color="#202428" stop-opacity="1"></stop><stop offset="85.55555555555554%" stop-color="#14171a" stop-opacity="1"></stop></linearGradient></defs><defs><linearGradient id="grad2_0" x1="0%" y1="0%" x2="56.3%" y2="100%"><stop offset="14.444444444444446%" stop-color="#393f46" stop-opacity="1"></stop><stop offset="85.55555555555554%" stop-color="#393f46" stop-opacity="1"></stop></linearGradient></defs><defs><linearGradient id="grad2_1" x1="0%" y1="0%" x2="56.3%" y2="100%"><stop offset="14.444444444444446%" stop-color="#2c3137" stop-opacity="1"></stop><stop offset="85.55555555555554%" stop-color="#393f46" stop-opacity="1"></stop></linearGradient></defs><defs><linearGradient id="grad2_2" x1="0%" y1="0%" x2="56.3%" y2="100%"><stop offset="14.444444444444446%" stop-color="#2c3137" stop-opacity="1"></stop><stop offset="85.55555555555554%" stop-color="#202428" stop-opacity="1"></stop></linearGradient></defs><defs><linearGradient id="grad2_3" x1="0%" y1="0%" x2="56.3%" y2="100%"><stop offset="14.444444444444446%" stop-color="#14171a" stop-opacity="1"></stop><stop offset="85.55555555555554%" stop-color="#202428" stop-opacity="1"></stop></linearGradient></defs><g transform="translate(1920, 0)"><path d="M0 918C-47.6 899.3 -95.2 880.6 -135.2 853.4C-175.1 826.2 -207.4 790.5 -256.2 788.4C-304.9 786.4 -370.1 818 -405.9 796.6C-441.6 775.1 -448 700.5 -490.2 674.7C-532.5 648.9 -610.7 671.9 -649.1 649.1C-687.6 626.4 -686.3 557.9 -699.8 508.4C-713.3 459 -741.5 428.5 -772.5 393.6C-803.5 358.7 -837.2 319.3 -845.5 274.7C-853.8 230.1 -836.6 180.4 -844.5 133.8C-852.3 87.1 -885.2 43.6 -918 0L0 0Z" fill="#1a1d21"></path><path d="M0 688.5C-35.7 674.5 -71.4 660.4 -101.4 640C-131.3 619.6 -155.6 592.8 -192.1 591.3C-228.7 589.8 -277.6 613.5 -304.4 597.4C-331.2 581.3 -336 525.4 -367.7 506C-399.4 486.7 -458 503.9 -486.8 486.8C-515.7 469.8 -514.7 418.4 -524.8 381.3C-535 344.2 -556.1 321.4 -579.4 295.2C-602.6 269 -627.9 239.5 -634.1 206C-640.3 172.6 -627.5 135.3 -633.4 100.3C-639.2 65.3 -663.9 32.7 -688.5 0L0 0Z" fill="#262a2f"></path><path d="M0 459C-23.8 449.6 -47.6 440.3 -67.6 426.7C-87.6 413.1 -103.7 395.2 -128.1 394.2C-152.5 393.2 -185.1 409 -202.9 398.3C-220.8 387.5 -224 350.3 -245.1 337.4C-266.2 324.5 -305.3 335.9 -324.6 324.6C-343.8 313.2 -343.2 278.9 -349.9 254.2C-356.6 229.5 -370.8 214.3 -386.3 196.8C-401.7 179.3 -418.6 159.6 -422.7 137.4C-426.9 115.1 -418.3 90.2 -422.2 66.9C-426.2 43.6 -442.6 21.8 -459 0L0 0Z" fill="#32383e"></path><path d="M0 229.5C-11.9 224.8 -23.8 220.1 -33.8 213.3C-43.8 206.5 -51.9 197.6 -64 197.1C-76.2 196.6 -92.5 204.5 -101.5 199.1C-110.4 193.8 -112 175.1 -122.6 168.7C-133.1 162.2 -152.7 168 -162.3 162.3C-171.9 156.6 -171.6 139.5 -174.9 127.1C-178.3 114.7 -185.4 107.1 -193.1 98.4C-200.9 89.7 -209.3 79.8 -211.4 68.7C-213.4 57.5 -209.2 45.1 -211.1 33.4C-213.1 21.8 -221.3 10.9 -229.5 0L0 0Z" fill="#393f46"></path></g><g transform="translate(0, 1080)"><path d="M0 -918C45.5 -901.8 91 -885.7 139.9 -883C188.7 -880.3 240.9 -891.2 283.7 -873.1C326.5 -855 360 -807.9 393.2 -771.6C426.3 -735.3 459.3 -709.8 501.4 -690.1C543.5 -670.4 594.9 -656.4 620.8 -620.8C646.8 -585.3 647.5 -528.2 676.3 -491.4C705.2 -454.6 762.3 -438 793 -404.1C823.7 -370.1 827.9 -318.7 836.9 -271.9C846 -225.2 859.8 -183 874.1 -138.4C888.4 -93.9 903.2 -46.9 918 0L0 0Z" fill="#1a1d21"></path><path d="M0 -688.5C34.1 -676.4 68.3 -664.2 104.9 -662.2C141.5 -660.2 180.6 -668.4 212.8 -654.8C244.9 -641.2 270 -605.9 294.9 -578.7C319.8 -551.5 344.4 -532.4 376 -517.6C407.6 -502.8 446.1 -492.3 465.6 -465.6C485.1 -439 485.6 -396.2 507.3 -368.5C528.9 -340.9 571.7 -328.5 594.7 -303C617.8 -277.6 620.9 -239 627.7 -204C634.5 -168.9 644.8 -137.2 655.6 -103.8C666.3 -70.4 677.4 -35.2 688.5 0L0 0Z" fill="#262a2f"></path><path d="M0 -459C22.8 -450.9 45.5 -442.8 69.9 -441.5C94.3 -440.2 120.4 -445.6 141.8 -436.5C163.2 -427.5 180 -403.9 196.6 -385.8C213.2 -367.7 229.6 -354.9 250.7 -345C271.8 -335.2 297.4 -328.2 310.4 -310.4C323.4 -292.7 323.7 -264.1 338.2 -245.7C352.6 -227.3 381.2 -219 396.5 -202C411.8 -185 413.9 -159.4 418.5 -136C423 -112.6 429.9 -91.5 437.1 -69.2C444.2 -46.9 451.6 -23.5 459 0L0 0Z" fill="#32383e"></path><path d="M0 -229.5C11.4 -225.5 22.8 -221.4 35 -220.7C47.2 -220.1 60.2 -222.8 70.9 -218.3C81.6 -213.7 90 -202 98.3 -192.9C106.6 -183.8 114.8 -177.5 125.3 -172.5C135.9 -167.6 148.7 -164.1 155.2 -155.2C161.7 -146.3 161.9 -132.1 169.1 -122.8C176.3 -113.6 190.6 -109.5 198.2 -101C205.9 -92.5 207 -79.7 209.2 -68C211.5 -56.3 214.9 -45.7 218.5 -34.6C222.1 -23.5 225.8 -11.7 229.5 0L0 0Z" fill="#393f46"></path></g></svg>