<svg id="visual" viewBox="0 0 1920 1080" width="1920" height="1080" xmlns="http://www.w3.org/2000/svg" xmlns:xlink="http://www.w3.org/1999/xlink" version="1.1"><rect x="0" y="0" width="1920" height="1080" fill="#14171a"></rect><defs><linearGradient id="grad1_0" x1="43.8%" y1="0%" x2="100%" y2="100%"><stop offset="14.444444444444446%" stop-color="#393f46" stop-opacity="1"></stop><stop offset="85.55555555555554%" stop-color="#393f46" stop-opacity="1"></stop></linearGradient></defs><defs><linearGradient id="grad1_1" x1="43.8%" y1="0%" x2="100%" y2="100%"><stop offset="14.444444444444446%" stop-color="#393f46" stop-opacity="1"></stop><stop offset="85.55555555555554%" stop-color="#2c3137" stop-opacity="1"></stop></linearGradient></defs><defs><linearGradient id="grad1_2" x1="43.8%" y1="0%" x2="100%" y2="100%"><stop offset="14.444444444444446%" stop-color="#202428" stop-opacity="1"></stop><stop offset="85.55555555555554%" stop-color="#2c3137" stop-opacity="1"></stop></linearGradient></defs><defs><linearGradient id="grad1_3" x1="43.8%" y1="0%" x2="100%" y2="100%"><stop offset="14.444444444444446%" stop-color="#202428" stop-opacity="1"></stop><stop offset="85.55555555555554%" stop-color="#14171a" stop-opacity="1"></stop></linearGradient></defs><defs><linearGradient id="grad2_0" x1="0%" y1="0%" x2="56.3%" y2="100%"><stop offset="14.444444444444446%" stop-color="#393f46" stop-opacity="1"></stop><stop offset="85.55555555555554%" stop-color="#393f46" stop-opacity="1"></stop></linearGradient></defs><defs><linearGradient id="grad2_1" x1="0%" y1="0%" x2="56.3%" y2="100%"><stop offset="14.444444444444446%" stop-color="#2c3137" stop-opacity="1"></stop><stop offset="85.55555555555554%" stop-color="#393f46" stop-opacity="1"></stop></linearGradient></defs><defs><linearGradient id="grad2_2" x1="0%" y1="0%" x2="56.3%" y2="100%"><stop offset="14.444444444444446%" stop-color="#2c3137" stop-opacity="1"></stop><stop offset="85.55555555555554%" stop-color="#202428" stop-opacity="1"></stop></linearGradient></defs><defs><linearGradient id="grad2_3" x1="0%" y1="0%" x2="56.3%" y2="100%"><stop offset="14.444444444444446%" stop-color="#14171a" stop-opacity="1"></stop><stop offset="85.55555555555554%" stop-color="#202428" stop-opacity="1"></stop></linearGradient></defs><g transform="translate(1920, 0)"><path d="M0 918C-49.3 911.9 -98.7 905.7 -139.5 881C-180.4 856.3 -212.8 813 -263 809.3C-313.2 805.7 -381.2 841.9 -416.8 817.9C-452.3 794 -455.4 710.1 -490.2 674.7C-525 639.4 -591.6 652.6 -634.3 634.3C-677 615.9 -695.8 565.9 -721.6 524.3C-747.5 482.7 -780.5 449.5 -801.9 408.6C-823.3 367.7 -833.2 319.2 -838.8 272.6C-844.5 225.9 -845.8 181.1 -858.3 135.9C-870.8 90.8 -894.4 45.4 -918 0L0 0Z" fill="#1a1d21"></path><path d="M0 688.5C-37 683.9 -74 679.3 -104.7 660.8C-135.3 642.2 -159.6 609.7 -197.2 607C-234.9 604.3 -285.9 631.4 -312.6 613.5C-339.2 595.5 -341.5 532.6 -367.7 506C-393.8 479.5 -443.7 489.5 -475.7 475.7C-507.7 461.9 -521.8 424.4 -541.2 393.2C-560.6 362 -585.4 337.1 -601.4 306.4C-617.5 275.8 -624.9 239.4 -629.1 204.4C-633.3 169.4 -634.4 135.8 -643.7 102C-653.1 68.1 -670.8 34.1 -688.5 0L0 0Z" fill="#262a2f"></path><path d="M0 459C-24.7 455.9 -49.3 452.9 -69.8 440.5C-90.2 428.1 -106.4 406.5 -131.5 404.7C-156.6 402.9 -190.6 420.9 -208.4 409C-226.2 397 -227.7 355 -245.1 337.4C-262.5 319.7 -295.8 326.3 -317.1 317.1C-338.5 308 -347.9 283 -360.8 262.2C-373.8 241.3 -390.2 224.7 -401 204.3C-411.7 183.9 -416.6 159.6 -419.4 136.3C-422.2 112.9 -422.9 90.5 -429.2 68C-435.4 45.4 -447.2 22.7 -459 0L0 0Z" fill="#32383e"></path><path d="M0 229.5C-12.3 228 -24.7 226.4 -34.9 220.3C-45.1 214.1 -53.2 203.2 -65.7 202.3C-78.3 201.4 -95.3 210.5 -104.2 204.5C-113.1 198.5 -113.8 177.5 -122.6 168.7C-131.3 159.8 -147.9 163.2 -158.6 158.6C-169.2 154 -173.9 141.5 -180.4 131.1C-186.9 120.7 -195.1 112.4 -200.5 102.1C-205.8 91.9 -208.3 79.8 -209.7 68.1C-211.1 56.5 -211.5 45.3 -214.6 34C-217.7 22.7 -223.6 11.4 -229.5 0L0 0Z" fill="#393f46"></path></g><g transform="translate(0, 1080)"><path d="M0 -918C49.5 -910.7 98.9 -903.4 138.6 -875.1C178.3 -846.8 208.1 -797.6 258.3 -795.1C308.6 -792.5 379.2 -836.6 415.9 -816.2C452.5 -795.7 455.1 -710.8 490.8 -675.5C526.5 -640.3 595.2 -654.8 632.9 -632.9C670.5 -611 677 -552.7 706.3 -513.1C735.5 -473.6 787.5 -452.7 817.9 -416.8C848.4 -380.8 857.2 -329.7 866.4 -281.5C875.6 -233.3 885.2 -188 893.9 -141.6C902.5 -95.1 910.3 -47.6 918 0L0 0Z" fill="#1a1d21"></path><path d="M0 -688.5C37.1 -683 74.2 -677.5 104 -656.3C133.7 -635.1 156.1 -598.2 193.8 -596.3C231.4 -594.4 284.4 -627.5 311.9 -612.1C339.4 -596.8 341.3 -533.1 368.1 -506.6C394.9 -480.2 446.4 -491.1 474.6 -474.6C502.9 -458.2 507.8 -414.5 529.7 -384.9C551.6 -355.2 590.6 -339.5 613.5 -312.6C636.3 -285.6 642.9 -247.3 649.8 -211.1C656.7 -175 663.9 -141 670.4 -106.2C676.9 -71.4 682.7 -35.7 688.5 0L0 0Z" fill="#262a2f"></path><path d="M0 -459C24.7 -455.3 49.5 -451.7 69.3 -437.5C89.1 -423.4 104 -398.8 129.2 -397.5C154.3 -396.3 189.6 -418.3 207.9 -408.1C226.2 -397.9 227.6 -355.4 245.4 -337.8C263.2 -320.1 297.6 -327.4 316.4 -316.4C335.2 -305.5 338.5 -276.3 353.1 -256.6C367.8 -236.8 393.8 -226.4 409 -208.4C424.2 -190.4 428.6 -164.9 433.2 -140.8C437.8 -116.7 442.6 -94 446.9 -70.8C451.3 -47.6 455.1 -23.8 459 0L0 0Z" fill="#32383e"></path><path d="M0 -229.5C12.4 -227.7 24.7 -225.8 34.7 -218.8C44.6 -211.7 52 -199.4 64.6 -198.8C77.1 -198.1 94.8 -209.2 104 -204C113.1 -198.9 113.8 -177.7 122.7 -168.9C131.6 -160.1 148.8 -163.7 158.2 -158.2C167.6 -152.7 169.3 -138.2 176.6 -128.3C183.9 -118.4 196.9 -113.2 204.5 -104.2C212.1 -95.2 214.3 -82.4 216.6 -70.4C218.9 -58.3 221.3 -47 223.5 -35.4C225.6 -23.8 227.6 -11.9 229.5 0L0 0Z" fill="#393f46"></path></g></svg>