<svg id="visual" viewBox="0 0 1920 1080" width="1920" height="1080" xmlns="http://www.w3.org/2000/svg" xmlns:xlink="http://www.w3.org/1999/xlink" version="1.1"><rect x="0" y="0" width="1920" height="1080" fill="#14171a"></rect><defs><linearGradient id="grad1_0" x1="43.8%" y1="0%" x2="100%" y2="100%"><stop offset="14.444444444444446%" stop-color="#393f46" stop-opacity="1"></stop><stop offset="85.55555555555554%" stop-color="#393f46" stop-opacity="1"></stop></linearGradient></defs><defs><linearGradient id="grad1_1" x1="43.8%" y1="0%" x2="100%" y2="100%"><stop offset="14.444444444444446%" stop-color="#393f46" stop-opacity="1"></stop><stop offset="85.55555555555554%" stop-color="#2c3137" stop-opacity="1"></stop></linearGradient></defs><defs><linearGradient id="grad1_2" x1="43.8%" y1="0%" x2="100%" y2="100%"><stop offset="14.444444444444446%" stop-color="#202428" stop-opacity="1"></stop><stop offset="85.55555555555554%" stop-color="#2c3137" stop-opacity="1"></stop></linearGradient></defs><defs><linearGradient id="grad1_3" x1="43.8%" y1="0%" x2="100%" y2="100%"><stop offset="14.444444444444446%" stop-color="#202428" stop-opacity="1"></stop><stop offset="85.55555555555554%" stop-color="#14171a" stop-opacity="1"></stop></linearGradient></defs><defs><linearGradient id="grad2_0" x1="0%" y1="0%" x2="56.3%" y2="100%"><stop offset="14.444444444444446%" stop-color="#393f46" stop-opacity="1"></stop><stop offset="85.55555555555554%" stop-color="#393f46" stop-opacity="1"></stop></linearGradient></defs><defs><linearGradient id="grad2_1" x1="0%" y1="0%" x2="56.3%" y2="100%"><stop offset="14.444444444444446%" stop-color="#2c3137" stop-opacity="1"></stop><stop offset="85.55555555555554%" stop-color="#393f46" stop-opacity="1"></stop></linearGradient></defs><defs><linearGradient id="grad2_2" x1="0%" y1="0%" x2="56.3%" y2="100%"><stop offset="14.444444444444446%" stop-color="#2c3137" stop-opacity="1"></stop><stop offset="85.55555555555554%" stop-color="#202428" stop-opacity="1"></stop></linearGradient></defs><defs><linearGradient id="grad2_3" x1="0%" y1="0%" x2="56.3%" y2="100%"><stop offset="14.444444444444446%" stop-color="#14171a" stop-opacity="1"></stop><stop offset="85.55555555555554%" stop-color="#202428" stop-opacity="1"></stop></linearGradient></defs><g transform="translate(1920, 0)"><path d="M0 918C-50.9 924.9 -101.8 931.7 -143.6 906.7C-185.4 881.7 -218 824.8 -262 806.5C-306 788.2 -361.4 808.5 -410 804.6C-458.5 800.6 -500.3 772.4 -537.8 740.3C-575.3 708.1 -608.6 672.1 -626.5 626.5C-644.4 580.9 -647.1 525.7 -669.1 486.1C-691 446.5 -732.2 422.6 -761.8 388.2C-791.4 353.8 -809.4 309 -812.2 263.9C-815 218.8 -802.7 173.6 -817.8 129.5C-832.9 85.5 -875.5 42.8 -918 0L0 0Z" fill="#1a1d21"></path><path d="M0 688.5C-38.2 693.6 -76.4 698.8 -107.7 680C-139 661.3 -163.5 618.6 -196.5 604.9C-229.5 591.2 -271 606.4 -307.5 603.4C-343.9 600.5 -375.2 579.3 -403.4 555.2C-431.5 531.1 -456.4 504.1 -469.9 469.9C-483.3 435.7 -485.3 394.3 -501.8 364.6C-518.3 334.9 -549.2 316.9 -571.4 291.1C-593.6 265.3 -607 231.7 -609.2 197.9C-611.3 164.1 -602 130.2 -613.4 97.1C-624.7 64.1 -656.6 32.1 -688.5 0L0 0Z" fill="#262a2f"></path><path d="M0 459C-25.5 462.4 -50.9 465.9 -71.8 453.3C-92.7 440.8 -109 412.4 -131 403.2C-153 394.1 -180.7 404.3 -205 402.3C-229.3 400.3 -250.2 386.2 -268.9 370.1C-287.7 354.1 -304.3 336.1 -313.2 313.2C-322.2 290.4 -323.6 262.8 -334.5 243C-345.5 223.3 -366.1 211.3 -380.9 194.1C-395.7 176.9 -404.7 154.5 -406.1 132C-407.5 109.4 -401.3 86.8 -408.9 64.8C-416.5 42.8 -437.7 21.4 -459 0L0 0Z" fill="#32383e"></path><path d="M0 229.5C-12.7 231.2 -25.5 232.9 -35.9 226.7C-46.3 220.4 -54.5 206.2 -65.5 201.6C-76.5 197.1 -90.3 202.1 -102.5 201.1C-114.6 200.2 -125.1 193.1 -134.5 185.1C-143.8 177 -152.1 168 -156.6 156.6C-161.1 145.2 -161.8 131.4 -167.3 121.5C-172.8 111.6 -183.1 105.6 -190.5 97C-197.9 88.4 -202.3 77.2 -203.1 66C-203.8 54.7 -200.7 43.4 -204.5 32.4C-208.2 21.4 -218.9 10.7 -229.5 0L0 0Z" fill="#393f46"></path></g><g transform="translate(0, 1080)"><path d="M0 -918C42.6 -880.2 85.3 -842.4 132.5 -836.6C179.7 -830.7 231.5 -856.9 278.4 -856.9C325.3 -856.9 367.2 -830.9 413.6 -811.7C459.9 -792.5 510.7 -780.2 539.6 -742.7C568.5 -705.2 575.7 -642.4 604.6 -604.6C633.5 -566.7 684.2 -553.7 725.7 -527.2C767.2 -500.7 799.4 -460.7 813.5 -414.5C827.6 -368.3 823.6 -315.9 827.4 -268.8C831.2 -221.8 842.9 -180 859.3 -136.1C875.7 -92.2 896.8 -46.1 918 0L0 0Z" fill="#1a1d21"></path><path d="M0 -688.5C32 -660.2 64 -631.8 99.4 -627.4C134.8 -623.1 173.7 -642.6 208.8 -642.7C244 -642.7 275.4 -623.2 310.2 -608.8C344.9 -594.4 383 -585.2 404.7 -557C426.4 -528.9 431.7 -481.8 453.4 -453.4C475.1 -425 513.2 -415.3 544.3 -395.4C575.4 -375.6 599.5 -345.5 610.1 -310.9C620.7 -276.2 617.7 -236.9 620.6 -201.6C623.4 -166.3 632.2 -135 644.5 -102.1C656.8 -69.1 672.6 -34.6 688.5 0L0 0Z" fill="#262a2f"></path><path d="M0 -459C21.3 -440.1 42.6 -421.2 66.2 -418.3C89.9 -415.4 115.8 -428.4 139.2 -428.5C162.7 -428.5 183.6 -415.4 206.8 -405.9C230 -396.3 255.3 -390.1 269.8 -371.3C284.3 -352.6 287.8 -321.2 302.3 -302.3C316.8 -283.4 342.1 -276.9 362.8 -263.6C383.6 -250.4 399.7 -230.3 406.7 -207.2C413.8 -184.1 411.8 -158 413.7 -134.4C415.6 -110.9 421.4 -90 429.6 -68C437.8 -46.1 448.4 -23 459 0L0 0Z" fill="#32383e"></path><path d="M0 -229.5C10.7 -220.1 21.3 -210.6 33.1 -209.1C44.9 -207.7 57.9 -214.2 69.6 -214.2C81.3 -214.2 91.8 -207.7 103.4 -202.9C115 -198.1 127.7 -195.1 134.9 -185.7C142.1 -176.3 143.9 -160.6 151.1 -151.1C158.4 -141.7 171.1 -138.4 181.4 -131.8C191.8 -125.2 199.8 -115.2 203.4 -103.6C206.9 -92.1 205.9 -79 206.9 -67.2C207.8 -55.4 210.7 -45 214.8 -34C218.9 -23 224.2 -11.5 229.5 0L0 0Z" fill="#393f46"></path></g></svg>