<svg id="visual" viewBox="0 0 960 540" width="960" height="540" xmlns="http://www.w3.org/2000/svg" xmlns:xlink="http://www.w3.org/1999/xlink" version="1.1"><rect x="0" y="0" width="960" height="540" fill="#14171a"></rect><defs><linearGradient id="grad1_0" x1="43.8%" y1="0%" x2="100%" y2="100%"><stop offset="14.444444444444446%" stop-color="#393f46" stop-opacity="1"></stop><stop offset="85.55555555555554%" stop-color="#393f46" stop-opacity="1"></stop></linearGradient></defs><defs><linearGradient id="grad1_1" x1="43.8%" y1="0%" x2="100%" y2="100%"><stop offset="14.444444444444446%" stop-color="#393f46" stop-opacity="1"></stop><stop offset="85.55555555555554%" stop-color="#33393f" stop-opacity="1"></stop></linearGradient></defs><defs><linearGradient id="grad1_2" x1="43.8%" y1="0%" x2="100%" y2="100%"><stop offset="14.444444444444446%" stop-color="#2e3339" stop-opacity="1"></stop><stop offset="85.55555555555554%" stop-color="#33393f" stop-opacity="1"></stop></linearGradient></defs><defs><linearGradient id="grad1_3" x1="43.8%" y1="0%" x2="100%" y2="100%"><stop offset="14.444444444444446%" stop-color="#2e3339" stop-opacity="1"></stop><stop offset="85.55555555555554%" stop-color="#282d32" stop-opacity="1"></stop></linearGradient></defs><defs><linearGradient id="grad1_4" x1="43.8%" y1="0%" x2="100%" y2="100%"><stop offset="14.444444444444446%" stop-color="#23272c" stop-opacity="1"></stop><stop offset="85.55555555555554%" stop-color="#282d32" stop-opacity="1"></stop></linearGradient></defs><defs><linearGradient id="grad1_5" x1="43.8%" y1="0%" x2="100%" y2="100%"><stop offset="14.444444444444446%" stop-color="#23272c" stop-opacity="1"></stop><stop offset="85.55555555555554%" stop-color="#1e2226" stop-opacity="1"></stop></linearGradient></defs><defs><linearGradient id="grad1_6" x1="43.8%" y1="0%" x2="100%" y2="100%"><stop offset="14.444444444444446%" stop-color="#191c20" stop-opacity="1"></stop><stop offset="85.55555555555554%" stop-color="#1e2226" stop-opacity="1"></stop></linearGradient></defs><defs><linearGradient id="grad1_7" x1="43.8%" y1="0%" x2="100%" y2="100%"><stop offset="14.444444444444446%" stop-color="#191c20" stop-opacity="1"></stop><stop offset="85.55555555555554%" stop-color="#14171a" stop-opacity="1"></stop></linearGradient></defs><defs><linearGradient id="grad2_0" x1="0%" y1="0%" x2="56.3%" y2="100%"><stop offset="14.444444444444446%" stop-color="#393f46" stop-opacity="1"></stop><stop offset="85.55555555555554%" stop-color="#393f46" stop-opacity="1"></stop></linearGradient></defs><defs><linearGradient id="grad2_1" x1="0%" y1="0%" x2="56.3%" y2="100%"><stop offset="14.444444444444446%" stop-color="#33393f" stop-opacity="1"></stop><stop offset="85.55555555555554%" stop-color="#393f46" stop-opacity="1"></stop></linearGradient></defs><defs><linearGradient id="grad2_2" x1="0%" y1="0%" x2="56.3%" y2="100%"><stop offset="14.444444444444446%" stop-color="#33393f" stop-opacity="1"></stop><stop offset="85.55555555555554%" stop-color="#2e3339" stop-opacity="1"></stop></linearGradient></defs><defs><linearGradient id="grad2_3" x1="0%" y1="0%" x2="56.3%" y2="100%"><stop offset="14.444444444444446%" stop-color="#282d32" stop-opacity="1"></stop><stop offset="85.55555555555554%" stop-color="#2e3339" stop-opacity="1"></stop></linearGradient></defs><defs><linearGradient id="grad2_4" x1="0%" y1="0%" x2="56.3%" y2="100%"><stop offset="14.444444444444446%" stop-color="#282d32" stop-opacity="1"></stop><stop offset="85.55555555555554%" stop-color="#23272c" stop-opacity="1"></stop></linearGradient></defs><defs><linearGradient id="grad2_5" x1="0%" y1="0%" x2="56.3%" y2="100%"><stop offset="14.444444444444446%" stop-color="#1e2226" stop-opacity="1"></stop><stop offset="85.55555555555554%" stop-color="#23272c" stop-opacity="1"></stop></linearGradient></defs><defs><linearGradient id="grad2_6" x1="0%" y1="0%" x2="56.3%" y2="100%"><stop offset="14.444444444444446%" stop-color="#1e2226" stop-opacity="1"></stop><stop offset="85.55555555555554%" stop-color="#191c20" stop-opacity="1"></stop></linearGradient></defs><defs><linearGradient id="grad2_7" x1="0%" y1="0%" x2="56.3%" y2="100%"><stop offset="14.444444444444446%" stop-color="#14171a" stop-opacity="1"></stop><stop offset="85.55555555555554%" stop-color="#191c20" stop-opacity="1"></stop></linearGradient></defs><g transform="translate(960, 0)"><path d="M0 540C-23.2 542.9 -46.5 545.9 -64.4 530.1C-82.3 514.3 -94.8 479.8 -118.5 480.6C-142.1 481.5 -176.9 517.7 -191.5 504.9C-206.1 492.2 -200.5 430.4 -218.9 417C-237.3 403.7 -279.7 438.7 -303.3 439.5C-327 440.3 -331.9 406.9 -336.2 379.5C-340.5 352.1 -344.2 330.6 -355.5 315C-366.9 299.4 -385.8 289.6 -400.8 276.6C-415.8 263.7 -426.9 247.4 -445.4 233.8C-463.8 220.1 -489.6 208.9 -504 191.1C-518.3 173.4 -521.2 149 -506.8 124.9C-492.5 100.8 -460.9 77.1 -463.6 56.3C-466.3 35.5 -503.1 17.8 -540 0L0 0Z" fill="#161a1d"></path><path d="M0 472.5C-20.3 475.1 -40.7 477.7 -56.3 463.8C-72 450 -83 419.8 -103.7 420.5C-124.4 421.3 -154.8 453 -167.6 441.8C-180.3 430.6 -175.4 376.6 -191.5 364.9C-207.6 353.2 -244.7 383.8 -265.4 384.5C-286.1 385.2 -290.4 356.1 -294.2 332.1C-297.9 308.1 -301.2 289.3 -311.1 275.6C-321 262 -337.6 253.4 -350.7 242.1C-363.8 230.7 -373.6 216.5 -389.7 204.5C-405.9 192.6 -428.4 182.8 -441 167.2C-453.5 151.7 -456 130.4 -443.5 109.3C-430.9 88.2 -403.3 67.4 -405.6 49.3C-408 31.1 -440.2 15.5 -472.5 0L0 0Z" fill="#1b1f23"></path><path d="M0 405C-17.4 407.2 -34.9 409.4 -48.3 397.6C-61.7 385.7 -71.1 359.8 -88.8 360.5C-106.6 361.1 -132.7 388.3 -143.6 378.7C-154.6 369.1 -150.4 322.8 -164.2 312.8C-178 302.8 -209.8 329 -227.5 329.6C-245.2 330.2 -248.9 305.2 -252.2 284.6C-255.4 264.1 -258.2 247.9 -266.7 236.2C-275.1 224.5 -289.3 217.2 -300.6 207.5C-311.9 197.7 -320.2 185.6 -334 175.3C-347.9 165 -367.2 156.7 -378 143.3C-388.7 130 -390.9 111.7 -380.1 93.7C-369.4 75.6 -345.7 57.8 -347.7 42.2C-349.7 26.6 -377.3 13.3 -405 0L0 0Z" fill="#212529"></path><path d="M0 337.5C-14.5 339.3 -29 341.2 -40.2 331.3C-51.4 321.4 -59.3 299.9 -74 300.4C-88.8 300.9 -110.6 323.5 -119.7 315.6C-128.8 307.6 -125.3 269 -136.8 260.7C-148.3 252.3 -174.8 274.2 -189.6 274.7C-204.4 275.2 -207.4 254.3 -210.1 237.2C-212.8 220 -215.1 206.6 -222.2 196.9C-229.3 187.1 -241.1 181 -250.5 172.9C-259.9 164.8 -266.8 154.7 -278.4 146.1C-289.9 137.5 -306 130.6 -315 119.5C-323.9 108.4 -325.7 93.1 -316.8 78.1C-307.8 63 -288.1 48.2 -289.7 35.2C-291.4 22.2 -314.5 11.1 -337.5 0L0 0Z" fill="#262a2f"></path><path d="M0 270C-11.6 271.5 -23.2 272.9 -32.2 265.1C-41.1 257.2 -47.4 239.9 -59.2 240.3C-71.1 240.7 -88.4 258.8 -95.7 252.5C-103 246.1 -100.2 215.2 -109.4 208.5C-118.6 201.8 -139.8 219.3 -151.7 219.7C-163.5 220.1 -165.9 203.5 -168.1 189.7C-170.3 176 -172.1 165.3 -177.8 157.5C-183.4 149.7 -192.9 144.8 -200.4 138.3C-207.9 131.8 -213.5 123.7 -222.7 116.9C-231.9 110 -244.8 104.4 -252 95.6C-259.2 86.7 -260.6 74.5 -253.4 62.5C-246.2 50.4 -230.5 38.5 -231.8 28.1C-233.1 17.8 -251.6 8.9 -270 0L0 0Z" fill="#2b3036"></path><path d="M0 202.5C-8.7 203.6 -17.4 204.7 -24.1 198.8C-30.8 192.9 -35.6 179.9 -44.4 180.2C-53.3 180.5 -66.3 194.1 -71.8 189.3C-77.3 184.6 -75.2 161.4 -82.1 156.4C-89 151.4 -104.9 164.5 -113.8 164.8C-122.6 165.1 -124.5 152.6 -126.1 142.3C-127.7 132 -129.1 124 -133.3 118.1C-137.6 112.3 -144.7 108.6 -150.3 103.7C-155.9 98.9 -160.1 92.8 -167 87.7C-173.9 82.5 -183.6 78.3 -189 71.7C-194.4 65 -195.4 55.9 -190.1 46.8C-184.7 37.8 -172.9 28.9 -173.8 21.1C-174.8 13.3 -188.7 6.7 -202.5 0L0 0Z" fill="#31363c"></path><path d="M0 135C-5.8 135.7 -11.6 136.5 -16.1 132.5C-20.6 128.6 -23.7 119.9 -29.6 120.2C-35.5 120.4 -44.2 129.4 -47.9 126.2C-51.5 123 -50.1 107.6 -54.7 104.3C-59.3 100.9 -69.9 109.7 -75.8 109.9C-81.7 110.1 -83 101.7 -84.1 94.9C-85.1 88 -86.1 82.6 -88.9 78.7C-91.7 74.8 -96.4 72.4 -100.2 69.2C-104 65.9 -106.7 61.9 -111.3 58.4C-116 55 -122.4 52.2 -126 47.8C-129.6 43.3 -130.3 37.2 -126.7 31.2C-123.1 25.2 -115.2 19.3 -115.9 14.1C-116.6 8.9 -125.8 4.4 -135 0L0 0Z" fill="#363c43"></path><path d="M0 67.5C-2.9 67.9 -5.8 68.2 -8 66.3C-10.3 64.3 -11.9 60 -14.8 60.1C-17.8 60.2 -22.1 64.7 -23.9 63.1C-25.8 61.5 -25.1 53.8 -27.4 52.1C-29.7 50.5 -35 54.8 -37.9 54.9C-40.9 55 -41.5 50.9 -42 47.4C-42.6 44 -43 41.3 -44.4 39.4C-45.9 37.4 -48.2 36.2 -50.1 34.6C-52 33 -53.4 30.9 -55.7 29.2C-58 27.5 -61.2 26.1 -63 23.9C-64.8 21.7 -65.1 18.6 -63.4 15.6C-61.6 12.6 -57.6 9.6 -57.9 7C-58.3 4.4 -62.9 2.2 -67.5 0L0 0Z" fill="#393f46"></path></g><g transform="translate(0, 540)"><path d="M0 -540C19.1 -518.7 38.2 -497.4 60.6 -499.3C83 -501.2 108.8 -526.3 129.2 -524.3C149.7 -522.3 164.9 -493.3 178.7 -471.2C192.5 -449.2 204.9 -434 224.9 -428.6C244.9 -423.2 272.6 -427.6 284 -411.5C295.5 -395.4 290.8 -358.8 305.7 -345.1C320.6 -331.3 355.1 -340.5 380.2 -336.9C405.4 -333.2 421.1 -316.9 431.2 -297.7C441.4 -278.5 446 -256.4 447.2 -234.7C448.3 -212.9 445.8 -191.4 459.1 -174.1C472.3 -156.8 501.2 -143.6 506.8 -124.9C512.4 -106.2 494.7 -82 496.4 -60.3C498 -38.5 519 -19.3 540 0L0 0Z" fill="#161a1d"></path><path d="M0 -472.5C16.7 -453.9 33.4 -435.3 53.1 -436.9C72.7 -438.6 95.2 -460.5 113.1 -458.8C131 -457 144.3 -431.7 156.4 -412.3C168.5 -393 179.3 -379.7 196.8 -375C214.3 -370.3 238.5 -374.1 248.5 -360.1C258.6 -346 254.4 -313.9 267.5 -301.9C280.5 -289.9 310.7 -297.9 332.7 -294.8C354.7 -291.6 368.4 -277.3 377.3 -260.5C386.2 -243.7 390.3 -224.4 391.3 -205.3C392.2 -186.3 390.1 -167.5 401.7 -152.3C413.3 -137.2 438.6 -125.7 443.5 -109.3C448.4 -93 432.9 -71.8 434.3 -52.7C435.7 -33.7 454.1 -16.9 472.5 0L0 0Z" fill="#1b1f23"></path><path d="M0 -405C14.3 -389 28.7 -373.1 45.5 -374.5C62.3 -375.9 81.6 -394.7 96.9 -393.2C112.3 -391.8 123.7 -370 134 -353.4C144.4 -336.9 153.7 -325.5 168.7 -321.4C183.7 -317.4 204.4 -320.7 213 -308.6C221.6 -296.5 218.1 -269.1 229.3 -258.8C240.5 -248.5 266.3 -255.4 285.2 -252.6C304 -249.9 315.8 -237.7 323.4 -223.2C331.1 -208.8 334.5 -192.3 335.4 -176C336.2 -159.7 334.4 -143.6 344.3 -130.6C354.3 -117.6 375.9 -107.7 380.1 -93.7C384.3 -79.7 371 -61.5 372.3 -45.2C373.5 -28.9 389.2 -14.4 405 0L0 0Z" fill="#212529"></path><path d="M0 -337.5C11.9 -324.2 23.9 -310.9 37.9 -312.1C51.9 -313.3 68 -328.9 80.8 -327.7C93.6 -326.5 103.1 -308.3 111.7 -294.5C120.3 -280.7 128.1 -271.2 140.6 -267.9C153.1 -264.5 170.4 -267.2 177.5 -257.2C184.7 -247.1 181.7 -224.2 191.1 -215.7C200.4 -207.1 222 -212.8 237.7 -210.5C253.3 -208.3 263.2 -198 269.5 -186C275.9 -174 278.8 -160.3 279.5 -146.7C280.2 -133.1 278.7 -119.6 286.9 -108.8C295.2 -98 313.3 -89.8 316.8 -78.1C320.3 -66.4 309.2 -51.3 310.2 -37.7C311.2 -24.1 324.4 -12 337.5 0L0 0Z" fill="#262a2f"></path><path d="M0 -270C9.6 -259.4 19.1 -248.7 30.3 -249.7C41.5 -250.6 54.4 -263.1 64.6 -262.2C74.8 -261.2 82.5 -246.7 89.4 -235.6C96.3 -224.6 102.5 -217 112.5 -214.3C122.5 -211.6 136.3 -213.8 142 -205.7C147.7 -197.7 145.4 -179.4 152.8 -172.5C160.3 -165.7 177.6 -170.2 190.1 -168.4C202.7 -166.6 210.5 -158.4 215.6 -148.8C220.7 -139.2 223 -128.2 223.6 -117.3C224.1 -106.5 222.9 -95.7 229.5 -87.1C236.2 -78.4 250.6 -71.8 253.4 -62.5C256.2 -53.1 247.4 -41 248.2 -30.1C249 -19.3 259.5 -9.6 270 0L0 0Z" fill="#2b3036"></path><path d="M0 -202.5C7.2 -194.5 14.3 -186.5 22.7 -187.2C31.1 -188 40.8 -197.4 48.5 -196.6C56.1 -195.9 61.8 -185 67 -176.7C72.2 -168.4 76.8 -162.7 84.3 -160.7C91.9 -158.7 102.2 -160.3 106.5 -154.3C110.8 -148.3 109 -134.5 114.6 -129.4C120.2 -124.3 133.2 -127.7 142.6 -126.3C152 -125 157.9 -118.8 161.7 -111.6C165.5 -104.4 167.3 -96.2 167.7 -88C168.1 -79.8 167.2 -71.8 172.2 -65.3C177.1 -58.8 188 -53.9 190.1 -46.8C192.2 -39.8 185.5 -30.8 186.1 -22.6C186.7 -14.4 194.6 -7.2 202.5 0L0 0Z" fill="#31363c"></path><path d="M0 -135C4.8 -129.7 9.6 -124.4 15.2 -124.8C20.8 -125.3 27.2 -131.6 32.3 -131.1C37.4 -130.6 41.2 -123.3 44.7 -117.8C48.1 -112.3 51.2 -108.5 56.2 -107.1C61.2 -105.8 68.1 -106.9 71 -102.9C73.9 -98.8 72.7 -89.7 76.4 -86.3C80.2 -82.8 88.8 -85.1 95.1 -84.2C101.3 -83.3 105.3 -79.2 107.8 -74.4C110.4 -69.6 111.5 -64.1 111.8 -58.7C112.1 -53.2 111.5 -47.9 114.8 -43.5C118.1 -39.2 125.3 -35.9 126.7 -31.2C128.1 -26.6 123.7 -20.5 124.1 -15.1C124.5 -9.6 129.7 -4.8 135 0L0 0Z" fill="#363c43"></path><path d="M0 -67.5C2.4 -64.8 4.8 -62.2 7.6 -62.4C10.4 -62.7 13.6 -65.8 16.2 -65.5C18.7 -65.3 20.6 -61.7 22.3 -58.9C24.1 -56.1 25.6 -54.2 28.1 -53.6C30.6 -52.9 34.1 -53.4 35.5 -51.4C36.9 -49.4 36.3 -44.8 38.2 -43.1C40.1 -41.4 44.4 -42.6 47.5 -42.1C50.7 -41.7 52.6 -39.6 53.9 -37.2C55.2 -34.8 55.8 -32.1 55.9 -29.3C56 -26.6 55.7 -23.9 57.4 -21.8C59 -19.6 62.7 -18 63.4 -15.6C64.1 -13.3 61.8 -10.3 62 -7.5C62.2 -4.8 64.9 -2.4 67.5 0L0 0Z" fill="#393f46"></path></g></svg>